<svg width="71" height="71" viewBox="0 0 71 71" fill="none" xmlns="http://www.w3.org/2000/svg">
<path d="M30.3043 21.7577C36.3037 21.7577 41.1827 16.8785 41.1827 10.8789C41.1827 4.87919 36.3037 0 30.3043 0C24.3048 0 19.4258 4.87919 19.4258 10.8789C19.4156 16.8785 24.3048 21.7577 30.3043 21.7577ZM30.3043 1.51774C35.4583 1.51774 39.6548 5.71446 39.6548 10.8687C39.6548 16.0229 35.4583 20.2196 30.3043 20.2196C25.1502 20.2196 20.9537 16.0229 20.9537 10.8687C20.9435 5.71446 25.14 1.51774 30.3043 1.51774Z" fill="currentColor"/>
<path d="M30.3021 14.9027C29.4058 14.9027 28.6724 14.1693 28.6724 13.2729C28.6724 12.8553 28.3261 12.509 27.9085 12.509C27.4908 12.509 27.1445 12.8553 27.1445 13.2729C27.1445 14.7499 28.1631 15.9825 29.5382 16.3288V17.3474C29.5382 17.7651 29.8845 18.1114 30.3021 18.1114C30.7198 18.1114 31.0661 17.7651 31.0661 17.3474V16.3288C32.4412 15.9825 33.4597 14.7499 33.4597 13.2729C33.4597 11.5311 32.0439 10.1152 30.3021 10.1152C29.4058 10.1152 28.6724 9.38181 28.6724 8.48542C28.6724 7.58903 29.4058 6.85563 30.3021 6.85563C31.1985 6.85563 31.9319 7.58903 31.9319 8.48542C31.9319 8.90306 32.2782 9.24939 32.6958 9.24939C33.1134 9.24939 33.4597 8.90306 33.4597 8.48542C33.4597 7.00842 32.4412 5.77589 31.0661 5.42956V4.41094C31.0661 3.9933 30.7198 3.64697 30.3021 3.64697C29.8845 3.64697 29.5382 3.9933 29.5382 4.41094V5.42956C28.1631 5.77589 27.1445 7.00842 27.1445 8.48542C27.1445 10.2273 28.5604 11.6431 30.3021 11.6431C31.1985 11.6431 31.9319 12.3766 31.9319 13.2729C31.9319 14.1693 31.1985 14.9027 30.3021 14.9027Z" fill="currentColor"/>
<path d="M63.9161 37.2103H60.6057V25.8527C60.6057 24.3044 59.3528 23.0515 57.8046 23.0515H56.511V17.7343C56.511 13.9654 53.445 10.8892 49.6661 10.8892H43.4324C43.0147 10.8892 42.6684 11.2355 42.6684 11.6531C42.6684 12.0708 43.0147 12.4171 43.4324 12.4171H49.6661C52.5996 12.4171 54.9831 14.8007 54.9831 17.7343V23.0515H6.84488C3.91136 23.0515 1.52787 20.6679 1.52787 17.7343C1.52787 14.8007 3.91136 12.4171 6.84488 12.4171H17.1733C17.5909 12.4171 17.9372 12.0708 17.9372 11.6531C17.9372 11.2355 17.5909 10.8892 17.1733 10.8892H6.84488C3.07612 10.8892 0 13.9552 0 17.7343V57.1549C0 60.9238 3.06593 64 6.84488 64H57.8046C59.3528 64 60.6057 62.7471 60.6057 61.1988V49.8412H63.9161C64.3337 49.8412 64.68 49.4949 64.68 49.0773V37.9743C64.68 37.5567 64.3337 37.2103 63.9161 37.2103ZM6.84488 24.5794H57.8046C58.5074 24.5794 59.0778 25.1498 59.0778 25.8527V29.1632H1.52787V22.0431C2.78073 23.5914 4.69567 24.5794 6.84488 24.5794ZM57.8046 62.4721H6.84488C4.166 62.4721 1.96586 60.4756 1.60936 57.8883H59.0778V61.1988C59.0778 61.9017 58.5074 62.4721 57.8046 62.4721ZM59.0778 56.3604H1.52787V30.6911H59.0778V37.2103H49.8087C46.3251 37.2103 43.4935 40.0421 43.4935 43.5258C43.4935 47.0095 46.3251 49.8412 49.8087 49.8412H59.0778V56.3604ZM63.1521 48.3133H49.7985C47.1604 48.3133 45.0112 46.164 45.0112 43.5258C45.0112 40.8875 47.1604 38.7383 49.7985 38.7383H63.1521V48.3133Z" fill="currentColor"/>
<path d="M50.012 40.7246C48.4638 40.7246 47.2109 41.9775 47.2109 43.5258C47.2109 45.0741 48.4638 46.327 50.012 46.327C51.5603 46.327 52.8131 45.0741 52.8131 43.5258C52.8131 41.9775 51.5501 40.7246 50.012 40.7246ZM50.012 44.7991C49.3092 44.7991 48.7388 44.2287 48.7388 43.5258C48.7388 42.823 49.3092 42.2525 50.012 42.2525C50.7149 42.2525 51.2853 42.823 51.2853 43.5258C51.2853 44.2287 50.7149 44.7991 50.012 44.7991Z" fill="currentColor"/>
</svg>
