<svg width="71" height="71" viewBox="0 0 71 71" fill="none" xmlns="http://www.w3.org/2000/svg">
<g clip-path="url(#clip0_1124_41616)">
<path d="M18.5673 53.4876C19.4113 53.6986 20.1498 53.6986 20.9938 53.6986C21.8378 53.6986 22.5763 53.5931 23.4203 53.4876C29.1173 52.3271 33.2318 47.3687 33.2318 41.5663C33.2318 35.764 29.1173 30.7001 23.4203 29.6451C21.8378 29.3286 20.1498 29.3286 18.6728 29.6451C12.9758 30.8056 8.86133 35.764 8.86133 41.5663C8.86133 47.3687 12.9758 52.3271 18.5673 53.4876ZM22.3653 33.443C22.3653 34.1815 21.7323 34.8145 20.9938 34.8145C20.2553 34.8145 19.6223 34.1815 19.6223 33.443V31.1221C20.4663 31.0166 21.4158 31.0166 22.3653 31.1221V33.443ZM19.6223 49.6897C19.6223 48.9512 20.2553 48.3182 20.9938 48.3182C21.7323 48.3182 22.3653 48.9512 22.3653 49.6897V52.0106C21.4158 52.1161 20.4663 52.1161 19.6223 52.0106V49.6897ZM20.9938 36.5024C22.6818 36.5024 24.0533 35.131 24.0533 33.443V31.544C28.4843 32.9155 31.4383 37.0299 31.4383 41.5663C31.4383 46.2082 28.3788 50.2172 24.0533 51.5886V49.6897C24.0533 48.0017 22.6818 46.6302 20.9938 46.6302C19.3058 46.6302 17.9343 48.0017 17.9343 49.6897V51.5886C13.5033 50.2172 10.5493 46.2082 10.5493 41.5663C10.5493 36.9244 13.6088 32.81 17.9343 31.544V33.443C17.9343 35.131 19.3058 36.5024 20.9938 36.5024Z" fill="currentColor"/>
<path d="M13.1875 41.7772C13.1875 43.3596 14.559 44.7311 16.1415 44.7311C17.724 44.7311 19.0955 43.4651 19.0955 41.7772C19.0955 40.1947 17.724 38.8232 16.1415 38.8232C14.4535 38.8232 13.1875 40.1947 13.1875 41.7772ZM14.8755 41.7772C14.8755 41.0387 15.403 40.5112 16.1415 40.5112C16.88 40.5112 17.4075 41.0387 17.4075 41.7772C17.4075 42.5157 16.88 43.0432 16.1415 43.0432C15.403 43.0432 14.8755 42.5157 14.8755 41.7772Z" fill="currentColor"/>
<path d="M25.952 44.7311C27.5345 44.7311 28.906 43.3596 28.906 41.7772C28.906 40.1947 27.5345 38.8232 25.952 38.8232C24.264 38.8232 22.998 40.1947 22.998 41.7772C22.998 43.4651 24.264 44.7311 25.952 44.7311ZM24.686 41.7772C24.686 41.0387 25.2135 40.5112 25.952 40.5112C26.6905 40.5112 27.218 41.0387 27.218 41.7772C27.218 42.5157 26.6905 43.0432 25.952 43.0432C25.2135 43.0432 24.686 42.5157 24.686 41.7772Z" fill="currentColor"/>
<path d="M53.805 58.0238C53.6995 57.7073 53.383 57.4963 53.0665 57.4963H48.4245V51.9049C48.4245 51.4829 48.108 51.0609 47.5805 51.0609L43.044 50.8499C43.044 50.8499 43.044 50.8499 42.9385 50.8499H42.0945V27.5349C42.0945 23.737 39.035 20.7831 35.3425 20.7831H29.118L37.8745 12.7652C38.0855 12.5542 38.191 12.1322 38.0855 11.8158C37.98 11.4993 37.6635 11.2883 37.347 11.2883H27.852L32.494 1.26597C32.5995 0.94948 32.5995 0.738484 32.3885 0.421991C32.283 0.210996 31.9665 0 31.65 0L17.6185 0.316493C17.1965 0.316493 16.88 0.632987 16.7745 1.05498L13.715 18.5676C13.715 18.8841 13.715 19.0951 13.926 19.3061C14.137 19.5171 14.4535 19.6226 14.6645 19.5171L20.9945 18.3566L20.467 20.6776H6.752C2.954 20.6776 0 23.737 0 27.4294V56.1248C0 59.9227 3.0595 62.8767 6.752 62.8767H35.3425C35.448 62.8767 35.5535 62.8767 35.659 62.7712L42.411 70.6835C42.622 70.8945 42.833 71 43.044 71C43.255 71 43.5715 70.8945 43.677 70.6835L53.6995 58.8678C53.9105 58.6568 54.016 58.3403 53.805 58.0238ZM38.5075 59.2898C38.9295 59.2898 39.3515 58.8678 39.3515 58.4458V52.7489L43.044 52.5379L46.7365 52.7489V58.4458C46.7365 58.8678 47.1585 59.2898 47.5805 59.2898H51.273L43.044 68.89L34.815 59.2898H38.5075ZM19.0955 27.7459C18.99 28.0624 19.201 28.4844 19.5175 28.6954C19.834 28.9064 20.256 28.8009 20.467 28.5899L27.219 22.471H35.3425C38.191 22.471 40.4065 24.792 40.4065 27.5349V50.9554L38.402 51.0609C37.98 51.0609 37.558 51.4829 37.558 51.9049V57.4963H32.916C32.5995 57.4963 32.283 57.7073 32.1775 58.0238C32.072 58.3403 32.072 58.6568 32.283 58.9733L34.182 61.1887H6.6465C3.9035 61.0832 1.688 58.8678 1.688 56.1248V27.5349C1.688 24.6865 4.009 22.471 6.752 22.471H20.1505L19.0955 27.7459ZM25.742 12.5542C25.8475 12.7652 26.164 12.9762 26.4805 12.9762H35.1315L21.311 25.5305L22.999 17.5126C23.1045 17.1961 22.999 16.9851 22.788 16.7741C22.577 16.5632 22.366 16.5632 22.155 16.5632H22.0495L15.7195 17.7236L18.4625 2.00446L30.4895 1.79346L25.742 11.7103C25.531 12.0267 25.531 12.3432 25.742 12.5542Z" fill="currentColor"/>
<path d="M45.0491 47.7905C45.4711 47.7905 45.8931 47.3685 45.8931 46.9465V32.9153C45.8931 32.4933 45.4711 32.0713 45.0491 32.0713C44.6271 32.0713 44.2051 32.4933 44.2051 32.9153V46.9465C44.2051 47.474 44.5216 47.7905 45.0491 47.7905Z" fill="currentColor"/>
</g>
<defs>
<clipPath id="clip0_1124_41616">
<rect width="71" height="71" fill="currentColor"/>
</clipPath>
</defs>
</svg>
