<svg width="71" height="71" viewBox="0 0 71 71" fill="none" xmlns="http://www.w3.org/2000/svg">
<path d="M44.8308 18.3187C44.5385 18.0263 44.0546 18.0263 43.7622 18.3187C43.4699 18.6111 43.4699 19.095 43.7622 19.3874L46.0809 21.7063C46.2321 21.8575 46.4237 21.9281 46.6152 21.9281C46.8068 21.9281 46.9983 21.8575 47.1495 21.7063L53.7427 15.1127C54.035 14.8203 54.035 14.3364 53.7427 14.044C53.4503 13.7516 52.9664 13.7516 52.674 14.044L46.6152 20.1032L44.8308 18.3187Z" fill="currentColor"/>
<path d="M62.576 4.66793C52.5149 3.60933 49.3494 0.272212 49.3192 0.241966C49.0268 -0.0806554 48.4724 -0.0806554 48.1901 0.241966C48.1598 0.272212 45.0951 3.59925 34.9333 4.66793C34.5502 4.70826 34.2578 5.03088 34.2578 5.42407V22.6138C34.2578 22.6541 34.2578 22.6944 34.2679 22.7448C34.3284 23.1178 35.9313 31.7984 48.5328 35.7404C48.6034 35.7606 48.6841 35.7707 48.7546 35.7707C48.8252 35.7707 48.9058 35.7606 48.9764 35.7404C61.578 31.7984 63.1708 23.1078 63.2414 22.7448C63.2514 22.7045 63.2515 22.6642 63.2515 22.6138V5.41399C63.2515 5.03088 62.9591 4.70826 62.576 4.66793ZM61.7393 22.5331C61.588 23.2388 59.7734 30.6793 48.7546 34.208C37.6754 30.6591 35.9313 23.3094 35.77 22.5331V6.08948C43.7543 5.15186 47.4642 2.80277 48.7546 1.75425C50.0551 2.80277 53.7549 5.14178 61.7393 6.08948V22.5331Z" fill="currentColor"/>
<path d="M48.4002 6.14982C46.0614 7.3899 43.2084 8.34768 39.9017 9.003C39.5489 9.07358 39.2969 9.38612 39.2969 9.74907V21.9784C39.2969 22.0591 39.307 22.1397 39.3372 22.2103C39.7505 23.4605 41.6256 27.7554 48.491 30.3968C48.5817 30.4271 48.6724 30.4472 48.7632 30.4472C48.8539 30.4472 48.9446 30.4271 49.0354 30.3968C55.9208 27.7554 57.7859 23.4907 58.1891 22.2506C58.2093 22.17 58.2294 22.0994 58.2294 22.0188V9.74907C58.2294 9.38612 57.9774 9.07358 57.6246 9.003C54.3179 8.34768 51.4548 7.3899 49.1261 6.14982C48.8942 6.02884 48.622 6.02884 48.4002 6.14982ZM56.7072 10.3641V21.8776C56.2838 23.0673 54.6002 26.5355 48.7531 28.8644C42.916 26.5455 41.2224 23.037 40.799 21.8373V10.3641C43.8334 9.71882 46.505 8.81145 48.7531 7.67219C51.0012 8.81145 53.6727 9.71882 56.7072 10.3641Z" fill="currentColor"/>
<path d="M55.1242 47.7377H49.1964C49.3779 47.3747 49.4888 46.9714 49.4888 46.5379V38.1598C49.4888 37.7465 49.146 37.4037 48.7327 37.4037C48.3194 37.4037 47.9766 37.7465 47.9766 38.1598V46.5379C47.9766 47.2033 47.4423 47.7377 46.787 47.7377H16.4727C15.8175 47.7377 15.2832 47.2033 15.2832 46.5379V19.1756C15.2832 18.5102 15.8175 17.9758 16.4727 17.9758H24.6385V26.1019C24.6385 26.364 24.7696 26.606 24.9914 26.737C25.1124 26.8177 25.2535 26.858 25.3946 26.858C25.5055 26.858 25.6164 26.8378 25.7172 26.7874L31.9474 23.8133C32.3204 23.6318 32.4817 23.1781 32.3003 22.8051C32.1188 22.432 31.6752 22.2707 31.2922 22.4522L26.1406 24.9122V17.9859H31.9878C32.4011 17.9859 32.7439 17.6431 32.7439 17.2298C32.7439 16.8164 32.4011 16.4736 31.9878 16.4736H16.4627C14.9706 16.4736 13.7609 17.6935 13.7609 19.1857V46.548C13.7609 46.9815 13.8718 47.3848 14.0532 47.7478H8.12548C3.63933 47.7478 0 51.3974 0 55.8738C0 60.3502 3.64941 63.9998 8.12548 63.9998H55.1242C59.6104 63.9998 63.2497 60.3502 63.2497 55.8738C63.2497 51.3974 59.6104 47.7377 55.1242 47.7377ZM55.1242 62.4875H8.12548C4.47607 62.4875 1.51219 59.5234 1.51219 55.8738C1.51219 52.2241 4.47607 49.26 8.12548 49.26H55.1242C58.7736 49.26 61.7375 52.2241 61.7375 55.8738C61.7375 59.5234 58.7736 62.4875 55.1242 62.4875Z" fill="currentColor"/>
<path d="M8.12581 51.7305C5.83737 51.7305 3.98242 53.5855 3.98242 55.8741C3.98242 58.1627 5.83737 60.0178 8.12581 60.0178C10.4143 60.0178 12.2692 58.1627 12.2692 55.8741C12.2692 53.5855 10.4143 51.7305 8.12581 51.7305ZM8.12581 58.5055C6.67411 58.5055 5.49461 57.3259 5.49461 55.8741C5.49461 54.4223 6.67411 53.2428 8.12581 53.2428C9.57751 53.2428 10.757 54.4223 10.757 55.8741C10.757 57.3259 9.57751 58.5055 8.12581 58.5055Z" fill="currentColor"/>
<path d="M19.8719 51.7305C17.5835 51.7305 15.7285 53.5855 15.7285 55.8741C15.7285 58.1627 17.5835 60.0178 19.8719 60.0178C22.1603 60.0178 24.0153 58.1627 24.0153 55.8741C24.0153 53.5855 22.1603 51.7305 19.8719 51.7305ZM19.8719 58.5055C18.4202 58.5055 17.2407 57.3259 17.2407 55.8741C17.2407 54.4223 18.4202 53.2428 19.8719 53.2428C21.3236 53.2428 22.5031 54.4223 22.5031 55.8741C22.5031 57.3259 21.3337 58.5055 19.8719 58.5055Z" fill="currentColor"/>
<path d="M31.6258 51.7305C29.3374 51.7305 27.4824 53.5855 27.4824 55.8741C27.4824 58.1627 29.3374 60.0178 31.6258 60.0178C33.9143 60.0178 35.7692 58.1627 35.7692 55.8741C35.7692 53.5855 33.9143 51.7305 31.6258 51.7305ZM31.6258 58.5055C30.1741 58.5055 28.9946 57.3259 28.9946 55.8741C28.9946 54.4223 30.1741 53.2428 31.6258 53.2428C33.0775 53.2428 34.257 54.4223 34.257 55.8741C34.257 57.3259 33.0775 58.5055 31.6258 58.5055Z" fill="currentColor"/>
<path d="M43.3719 51.7305C41.0835 51.7305 39.2285 53.5855 39.2285 55.8741C39.2285 58.1627 41.0835 60.0178 43.3719 60.0178C45.6603 60.0178 47.5153 58.1627 47.5153 55.8741C47.5153 53.5855 45.6603 51.7305 43.3719 51.7305ZM43.3719 58.5055C41.9202 58.5055 40.7407 57.3259 40.7407 55.8741C40.7407 54.4223 41.9202 53.2428 43.3719 53.2428C44.8236 53.2428 46.0031 54.4223 46.0031 55.8741C46.0031 57.3259 44.8337 58.5055 43.3719 58.5055Z" fill="currentColor"/>
<path d="M55.1239 51.7305C52.8354 51.7305 50.9805 53.5855 50.9805 55.8741C50.9805 58.1627 52.8354 60.0178 55.1239 60.0178C57.4123 60.0178 59.2672 58.1627 59.2672 55.8741C59.2672 53.5855 57.4123 51.7305 55.1239 51.7305ZM55.1239 58.5055C53.6722 58.5055 52.4927 57.3259 52.4927 55.8741C52.4927 54.4223 53.6722 53.2428 55.1239 53.2428C56.5756 53.2428 57.7551 54.4223 57.7551 55.8741C57.7551 57.3259 56.5756 58.5055 55.1239 58.5055Z" fill="currentColor"/>
<path d="M26.6153 39.1782H18.8225C18.4092 39.1782 18.0664 39.521 18.0664 39.9344C18.0664 40.3477 18.4092 40.6905 18.8225 40.6905H26.6254C27.0387 40.6905 27.3815 40.3477 27.3815 39.9344C27.3815 39.521 27.0387 39.1782 26.6153 39.1782Z" fill="currentColor"/>
<path d="M26.6153 42.7773H18.8225C18.4092 42.7773 18.0664 43.1201 18.0664 43.5335C18.0664 43.9468 18.4092 44.2896 18.8225 44.2896H26.6254C27.0387 44.2896 27.3815 43.9468 27.3815 43.5335C27.3815 43.1201 27.0387 42.7773 26.6153 42.7773Z" fill="currentColor"/>
</svg>
