<svg width="71" height="71" viewBox="0 0 71 71" fill="none" xmlns="http://www.w3.org/2000/svg">
<path d="M63.3901 25.8433C63.3064 25.4248 62.9357 25.1259 62.5052 25.1259H55.8087C55.2945 23.3442 54.5889 21.6462 53.6921 20.0319L58.4275 15.2967C58.7265 14.9978 58.7743 14.5195 58.5351 14.1608C56.2033 10.705 53.2735 7.77542 49.8296 5.45565C49.4709 5.2165 48.9925 5.26433 48.6936 5.56327L43.9582 10.2985C42.3558 9.41361 40.6457 8.69616 38.864 8.18198V1.48573C38.864 1.05526 38.565 0.684572 38.1465 0.600869C34.0927 -0.20029 29.8954 -0.20029 25.8416 0.600869C25.423 0.684572 25.1241 1.05526 25.1241 1.48573V8.18198C23.3423 8.69616 21.6442 9.40165 20.0299 10.2985L15.2945 5.56327C14.9955 5.26433 14.5172 5.2165 14.1584 5.45565C10.7025 7.78738 7.7728 10.717 5.45292 14.1608C5.21375 14.5195 5.26159 14.9978 5.56054 15.2967L10.296 20.0319C9.41106 21.6462 8.69357 23.3442 8.17937 25.1259H1.48281C1.05232 25.1259 0.681614 25.4248 0.597907 25.8433C0.203288 27.8642 0 29.9328 0 32.0015C0 34.0702 0.203288 36.1269 0.597907 38.1597C0.681614 38.5782 1.05232 38.8771 1.48281 38.8771H8.17937C8.69357 40.6468 9.3991 42.3568 10.296 43.971L5.56054 48.7062C5.26159 49.0052 5.21375 49.4835 5.45292 49.8422C7.78475 53.298 10.7145 56.2276 14.1584 58.5473C14.5172 58.7865 14.9955 58.7387 15.2945 58.4397L20.0299 53.7045C21.6323 54.5894 23.3423 55.3068 25.1241 55.821V62.5173C25.1241 62.9477 25.423 63.3184 25.8416 63.4021C27.8625 63.7967 29.9312 64 32 64C34.0688 64 36.1256 63.7967 38.1585 63.4021C38.577 63.3184 38.8759 62.9477 38.8759 62.5173V55.821C40.6577 55.3068 42.3558 54.6013 43.9701 53.7045L48.7055 58.4397C49.0045 58.7506 49.4828 58.7865 49.8416 58.5473C53.2975 56.2156 56.2272 53.286 58.5471 49.8422C58.7863 49.4835 58.7384 49.0052 58.4395 48.7062L53.704 43.971C54.5889 42.3687 55.3064 40.6588 55.8206 38.8771H62.5172C62.9477 38.8771 63.3184 38.5782 63.4021 38.1597C63.7967 36.1388 64 34.0702 64 32.0015C64 29.9328 63.7967 27.8761 63.4021 25.8433H63.3901ZM61.7638 37.0835H55.139C54.7324 37.0835 54.3737 37.3585 54.2661 37.7531C53.728 39.8337 52.9028 41.8187 51.8147 43.6601C51.6114 44.0069 51.6592 44.4613 51.9581 44.7483L56.6457 49.4357C54.6607 52.2337 52.2451 54.6492 49.4469 56.6341L44.7593 51.9468C44.4724 51.6598 44.0179 51.6 43.6712 51.8033C41.8296 52.8914 39.8445 53.7165 37.7638 54.2546C37.3692 54.3502 37.0942 54.709 37.0942 55.1275V61.752C33.7339 62.3379 30.29 62.3379 26.9297 61.752V55.1275C26.9297 54.7209 26.6547 54.3622 26.2601 54.2546C24.1794 53.7165 22.1943 52.8914 20.3528 51.8033C20.006 51.6 19.5516 51.6478 19.2646 51.9468L14.577 56.6341C11.7788 54.6492 9.36323 52.2337 7.37818 49.4357L12.0658 44.7483C12.3528 44.4613 12.4126 44.0069 12.2093 43.6601C11.1211 41.8187 10.296 39.8337 9.75785 37.7531C9.65022 37.3585 9.30344 37.0835 8.8849 37.0835H2.26009C1.97309 35.4094 1.8296 33.6995 1.8296 32.0015C1.8296 30.3035 1.97309 28.5936 2.26009 26.9195H8.8849C9.29148 26.9195 9.65022 26.6445 9.75785 26.2499C10.296 24.1693 11.1211 22.1843 12.2093 20.3428C12.4126 19.9961 12.3647 19.5417 12.0658 19.2547L7.37818 14.5673C9.36323 11.7693 11.7788 9.35382 14.577 7.36886L19.2646 12.0562C19.5516 12.3432 20.006 12.403 20.3528 12.1997C22.1943 11.1116 24.1794 10.2865 26.2601 9.74842C26.6547 9.65276 26.9297 9.29404 26.9297 8.87552V2.25102C30.29 1.67705 33.7339 1.67705 37.0942 2.25102V8.87552C37.0942 9.28208 37.3692 9.64081 37.7638 9.74842C39.8445 10.2865 41.8296 11.1116 43.6712 12.1997C44.0299 12.403 44.4724 12.3552 44.7593 12.0562L49.4469 7.36886C52.2451 9.35382 54.6607 11.7693 56.6457 14.5673L51.9581 19.2547C51.6712 19.5417 51.6114 19.9961 51.8147 20.3428C52.9028 22.1843 53.728 24.1693 54.2661 26.2499C54.3617 26.6445 54.7205 26.9195 55.139 26.9195H61.7638C62.0508 28.5936 62.1943 30.3035 62.1943 32.0015C62.1943 33.6995 62.0508 35.4094 61.7638 37.0835ZM17.3513 32.0015C17.3513 23.9301 23.9283 17.3534 32 17.3534C34.8341 17.3534 37.5366 18.1546 39.8924 19.6732C39.6413 20.1396 39.4738 20.6657 39.4738 21.2397C39.4738 23.0572 40.9447 24.528 42.7623 24.528C44.58 24.528 46.0508 23.0572 46.0508 21.2397C46.0508 19.4221 44.58 17.9513 42.7623 17.9513C42.1883 17.9513 41.6502 18.1187 41.1719 18.3818C38.4574 16.5403 35.3004 15.5598 32 15.5598C22.9357 15.5598 15.5575 22.9376 15.5575 32.0015C15.5575 33.5919 15.7848 35.1463 16.2272 36.6171C16.3468 36.9998 16.7055 37.2509 17.0882 37.2509C17.1719 37.2509 17.2676 37.2389 17.3513 37.215C17.8296 37.0715 18.0927 36.5693 17.9492 36.091C17.5546 34.7996 17.3513 33.4125 17.3513 32.0015ZM44.2571 21.2397C44.2571 22.0647 43.5874 22.7344 42.7623 22.7344C41.9372 22.7344 41.2676 22.0647 41.2676 21.2397C41.2676 20.4146 41.9372 19.745 42.7623 19.745C43.5874 19.745 44.2571 20.4146 44.2571 21.2397ZM46.6487 26.788C46.1704 26.9315 45.9073 27.4337 46.0508 27.912C46.4454 29.2034 46.6487 30.5785 46.6487 32.0015C46.6487 40.0729 40.0718 46.6495 32 46.6495C29.2377 46.6495 26.583 45.8843 24.275 44.4254C24.562 43.9352 24.7414 43.3732 24.7414 42.7633C24.7414 40.9458 23.2706 39.475 21.4529 39.475C19.6353 39.475 18.1644 40.9458 18.1644 42.7633C18.1644 44.5809 19.6353 46.0517 21.4529 46.0517C21.991 46.0517 22.4813 45.9082 22.9238 45.681C25.6144 47.4746 28.7235 48.4432 31.988 48.4432C41.0523 48.4432 48.4305 41.0653 48.4305 32.0015C48.4305 30.3992 48.2033 28.8566 47.7608 27.3859C47.6173 26.9076 47.1151 26.6445 46.6368 26.788H46.6487ZM21.4529 44.258C20.6278 44.258 19.9581 43.5884 19.9581 42.7633C19.9581 41.9383 20.6278 41.2686 21.4529 41.2686C22.278 41.2686 22.9477 41.9383 22.9477 42.7633C22.9477 43.5884 22.278 44.258 21.4529 44.258ZM39.4021 27.1348C39.7489 27.4815 39.7489 28.0555 39.4021 28.4023L30.9477 36.8563C30.7683 37.0356 30.5411 37.1193 30.3139 37.1193C30.0867 37.1193 29.8595 37.0356 29.6801 36.8563L24.8251 32.0015C24.4783 31.6547 24.4783 31.0808 24.8251 30.734C25.1719 30.3872 25.7459 30.3872 26.0927 30.734L30.3139 34.955L38.1345 27.1348C38.4813 26.788 39.0553 26.788 39.4021 27.1348Z" fill="currentColor"/>
</svg>
