<svg width="24" height="23" viewBox="0 0 24 23" fill="none" xmlns="http://www.w3.org/2000/svg">
<path d="M18 18.5C18.5304 18.5 19.0391 18.7107 19.4142 19.0858C19.7893 19.4609 20 19.9696 20 20.5C20 21.0304 19.7893 21.5391 19.4142 21.9142C19.0391 22.2893 18.5304 22.5 18 22.5C17.4696 22.5 16.9609 22.2893 16.5858 21.9142C16.2107 21.5391 16 21.0304 16 20.5C16 19.39 16.89 18.5 18 18.5ZM2 2.5H5.27L6.21 4.5H21C21.2652 4.5 21.5196 4.60536 21.7071 4.79289C21.8946 4.98043 22 5.23478 22 5.5C22 5.67 21.95 5.84 21.88 6L18.3 12.47C17.96 13.08 17.3 13.5 16.55 13.5H9.1L8.2 15.13L8.17 15.25C8.17 15.3163 8.19634 15.3799 8.24322 15.4268C8.29011 15.4737 8.3537 15.5 8.42 15.5H20V17.5H8C7.46957 17.5 6.96086 17.2893 6.58579 16.9142C6.21071 16.5391 6 16.0304 6 15.5C6 15.15 6.09 14.82 6.24 14.54L7.6 12.09L4 4.5H2V2.5ZM8 18.5C8.53043 18.5 9.03914 18.7107 9.41421 19.0858C9.78929 19.4609 10 19.9696 10 20.5C10 21.0304 9.78929 21.5391 9.41421 21.9142C9.03914 22.2893 8.53043 22.5 8 22.5C7.46957 22.5 6.96086 22.2893 6.58579 21.9142C6.21071 21.5391 6 21.0304 6 20.5C6 19.39 6.89 18.5 8 18.5ZM17 11.5L19.78 6.5H7.14L9.5 11.5H17Z" fill="currentColor"/>
</svg>
