<svg width="30" height="30" viewBox="0 0 30 30" fill="none" xmlns="http://www.w3.org/2000/svg">
<path fill-rule="evenodd" clip-rule="evenodd" d="M15.2481 0C12.7617 0 10.3772 0.987726 8.61899 2.74589C6.86084 4.50405 5.87311 6.88862 5.87311 9.37504V18.75H4.9375C4.41973 18.75 4 19.1697 4 19.6875C4 20.2053 4.41973 20.625 4.9375 20.625H6.79899L6.81061 20.6251H9.625V29.0625C9.625 29.5803 10.0447 30 10.5625 30C11.0803 30 11.5 29.5803 11.5 29.0625V20.6251H19.0019V29.0625C19.0019 29.5803 19.4216 30 19.9394 30C20.4572 30 20.8769 29.5803 20.8769 29.0625V20.6251H23.6857L23.6973 20.625H25.5626C26.0804 20.625 26.5001 20.2053 26.5001 19.6875C26.5001 19.1697 26.0804 18.75 25.5626 18.75H24.6232V9.37504C24.6232 6.88861 23.6354 4.50405 21.8773 2.7459L21.8773 2.74588C20.1191 0.987727 17.7345 0 15.2481 0ZM19.9394 18.75H22.7482V9.37504C22.7482 7.38592 21.9579 5.47824 20.5515 4.0717C19.1449 2.66518 17.2372 1.87501 15.2481 1.87501C13.259 1.87501 11.3514 2.66519 9.94482 4.07172C8.5383 5.47824 7.74812 7.38591 7.74812 9.37504V18.75H10.5625H14.3106V14.4507L11.7727 11.9128C11.4066 11.5467 11.4066 10.9531 11.7727 10.587C12.1388 10.2209 12.7324 10.2209 13.0985 10.587L15.2481 12.7366L17.3977 10.587C17.7638 10.2209 18.3574 10.2209 18.7235 10.587C19.0897 10.9531 19.0897 11.5467 18.7235 11.9128L16.1856 14.4507V18.75H19.9394Z" fill="currentColor"/>
</svg>
