
<svg width="130" height="56" fill="none" xmlns="http://www.w3.org/2000/svg"><path d="M79.655 38.136a2.856 2.856 0 01-3.254-2.961l-.21-8.265a4.772 4.772 0 00-1.746-3.886c-.456-.372-1.305-.647-1.96-.823-2.27-.614-4.738-.025-6.402 1.636l-.336.337c-.635-1.04-1.262-1.631-2.54-1.835l-1.364-.191a.425.425 0 00-.491.423l.112 8.438c.023 1.674.127 3.31-.887 4.642-.392.515-1.044.808-1.676.673-.823-.178-1.315-.925-1.28-1.727l-.18-10.477a1.774 1.774 0 00-1.868-1.875c-1.103.043-1.916.593-2.576 1.602-.66 1.01-2.667 1.868-3.526 1.868 0 0 .044-.9-.007-2.232-.077-1.997-2-3.414-3.758-2.474-1.995 1.068-2.1 3.84-.253 5.068.688.456 1.45.754 2.237.9 0 0 .084 5.327.08 6.516-.008 1.19-1.34 2.26-2.857 2.26-1.516 0-1.83-1.467-1.867-2.672-.039-1.205-.23-7.394-.23-7.394-.122-2.194-1.399-3.643-3.513-4.036l-1.198-.221a.424.424 0 00-.502.41s.51 10.31.431 11.91c-.079 1.598-1.022 2.245-2.173 2.245-1.152 0-2.105-.767-2.145-1.995 0 0-.13-5.57-.13-7.352 0-1.784-.163-3.927-2.092-4.706-.956-.385-2.538-.48-3.328-.16l-1.052.425a.282.282 0 00-.038.504l.303.181c.958.576 1.333 1.536 1.399 2.762.066 1.225-.064 2.706-.064 5.99 0 5.59 3.659 7.401 6.194 7.401s3.824-2.97 3.824-2.97 2.013 2.807 4.95 2.97c4.138.23 6.018-2.66 5.945-5.175-.074-2.517-.194-6.743-.194-6.743 1.531 0 2.902-.53 2.902-.53s-.535 3.74.013 6.986c.662 3.941 2.761 5.465 4.973 5.465 2.212 0 3.468-1.206 4.35-2.78l.506-.904.038 1.816c0 1.065.859 1.847 2.135 1.847 1.277 0 2.184-.5 2.286-1.847l-.288-10.484c.058-.803.881-1.445 1.597-1.812 1.218-.624 3.063.21 3.035 1.947l.517 7.18c-.003 2.28 1.669 4.326 3.801 5.13a6.146 6.146 0 004.589-.096.476.476 0 00.255-.634.484.484 0 00-.487-.276zM47.841 25.337a4.318 4.318 0 01-1.55-.798c-.598-.484-.66-1.44.013-1.811.731-.405 1.455.278 1.542 1.009.089.729-.005 1.6-.005 1.6z" fill="currentColor"/><path d="M27.025 32.768c-.173.05-.211 1.274-1.083 2.512-.494.7-1.551 1.646-2.507 1.36-.968-.288-1.077-1.562-1.093-2.384-.005-.212-.155-8.994-.26-15.12A77.734 77.734 0 0124.401 19a35.68 35.68 0 012.58-.015l2.024.066c.622.026 1.098.044 1.401.054.247.01.377-.046.403-.102.025-.056-.117-.138-.375-.23a24.267 24.267 0 00-1.312-.427 29.294 29.294 0 00-1.997-.518 21.704 21.704 0 00-2.67-.433 30.382 30.382 0 00-2.403-.135l-.066-3.949c0-.675-.097-2.178-.097-2.178a3.515 3.515 0 00-3.353-3.45l-1.506-.069a.754.754 0 00-.79.754s.02 4.184.138 9.35c-.815.174-1.638.398-2.461.717l-.477.188c-.074.028-.29.117-.397.15a3.429 3.429 0 01-.711.146 3.766 3.766 0 01-1.56-.196c-.086-.028-.168-.077-.252-.11.13-.11.255-.227.378-.357.264-.295.417-.547.568-.902.13-.338.25-.795.053-1.296-.199-.515-.703-.798-1.09-.892a2.63 2.63 0 00-.579-.087c-.219-.01-.402 0-.609.033-.797.125-1.638.698-1.887 1.646a2.007 2.007 0 00.168 1.43 2.176 2.176 0 00.423.565c.056.054.104.097.152.14a6.667 6.667 0 01-1.959.484 4.164 4.164 0 01-1.274-.086 2.993 2.993 0 01-.545-.194c-.097-.043-.194-.089-.29-.132-.095-.041-.21-.077-.311-.115-.826-.265-1.58-.14-2.13.013-.558.158-.966.334-1.249.44-.127.049-.226.087-.3.113-.087.033-.016.226.089.198l.288-.081c.29-.082.713-.22 1.25-.321.533-.097 1.206-.14 1.873.13.082.038.156.063.245.11.087.045.173.094.262.142.2.117.418.209.645.285.459.148.955.212 1.47.212a7.557 7.557 0 002.742-.568c.4.275.828.517 1.294.705.683.28 1.445.451 2.217.428.39-.005.759-.06 1.18-.163.2-.053.28-.076.509-.147l.42-.128a19.054 19.054 0 011.903-.428c.199 7.386.808 15.725 1.41 17.05.71 1.564 2.501 2.186 3.839 2.184 1.156-.003 3.083-.449 4.433-2a5.85 5.85 0 001.192-2.268c.13-.477.324-2.16-.275-1.987zM9.478 16.365c.1-.026.227-.036.316-.038.186.002.23.002.337.025.2.038.282.107.313.163.043.061.048.242-.02.451a1.988 1.988 0 01-.332.601c-.158.192-.349.37-.56.53-.084-.056-.173-.102-.257-.16a6.58 6.58 0 01-.327-.252l-.043-.039-.013-.015a.574.574 0 01-.107-.13.565.565 0 01-.084-.415c.044-.313.362-.63.777-.721zm120.507 30.548c0-.339-.079-.887-.273-1.521a5.758 5.758 0 00-1.21-2.097 5.959 5.959 0 00-2.209-1.546 3.901 3.901 0 00-.199-.918 5.91 5.91 0 00-1.203-2.132 6.072 6.072 0 00-4.519-2.033c-.041.002-.084.002-.125.002l.063-8.588c.041-2.918-2.079-5.672-4.843-5.672-1.378 0-2.288.943-2.285 2.204l.01 10.02c-.107 2.78-2.673 2.383-2.614.87l.145-9.942c.023-.423-.176-1.312-.484-1.694-.693-.854-1.559-1.348-2.652-1.465l-.864-.092a.534.534 0 00-.591.55s.084 4.224.16 7.422a6.984 6.984 0 01-1.763 4.81c-.56.63-1.775 1.707-2.716 1.43-.952-.283-1.398-1.74-1.416-2.548-.227-3.511-.286-8.013-.286-8.013 5.027-2.026 8.204-8.495 6.209-13.55a4.6 4.6 0 00-2.693-2.631c-4.662-1.718-9.003 1.116-9.014 6.5-.005 2.705.199 11.283.436 15.584.204 3.669-1.192 5.328-3.46 5.238-1.76-.068-3.307-4.112-3.307-4.937 1.37-1.241 2.479-2.91 3.243-4.37.762-1.46 1.08-3.093 1.08-4.308 0-.93-.231-1.674-.698-2.23-.463-.555-1.148-.832-2.053-.832-1.697 0-3.027 1.928-3.992 5.77l-.316-13.034c-.034-1.832-1.68-3.45-3.511-3.537L80.77 9.56c-.425-.02-1.006.333-1.006.759l.82 26.617c-.002 1.088.879 1.842 1.967 1.842h1.004c1.004 0 1.939-.405 2.418-1.287.356-.655.632-1.197.98-2.387 0 .076 1.542 3.895 4.273 3.895 3.295 0 4.418-3.212 4.418-3.164 0 .051.375.88.484 1.045.39.59 1.572 2.155 3.773 2.155 2.89 0 4.235-1.5 4.818-2.142a16.739 16.739 0 001.672-2.212c.002.12.005.074.007.168.054 2.196 1.893 3.929 4.092 3.929h.252c2.232 0 4.268-1.498 4.579-3.71l-.031 3.177c-.486.393-1.248.913-2.573 2.704-4.28 5.786-2.178 12.237-.892 13.628.831.897 2.724 1.574 4.872.349 2.148-1.223 3.406-4.512 3.406-8.207 0-3.694.117-8.31.117-8.31.061-.006.125-.008.186-.016 1.233-.074 2.502.42 3.386 1.317a4.53 4.53 0 011.03 1.649l-.003.002c-.272-.033-.504-.094-.932.008-.795.194-1.412 1.001-1.348 1.898a1.9 1.9 0 00.545 1.175c.357.364.81.53 1.292.547.476.008.955-.163 1.327-.494a1.93 1.93 0 00.635-1.34l.025-.522-.002-.072c.687.276 1.273.68 1.73 1.124a5.618 5.618 0 011.253 1.842c.232.589.341 1.055.372 1.411.023.161.036.28.041.365.007.1.061.153.12.155.058.003.107-.046.109-.135a2.438 2.438 0 00-.002-.41zm-41.996-17.9c.206-1.654.502-2.663.724-3.44.219-.775.665-1.162 1.128-1.162.439 0 .66.247.66.736 0 .517-.12 1.175-.535 2.107-.757 1.7-2.155 3.088-2.155 3.088l.178-1.33zm11.934-11.634a3.816 3.816 0 011.885-3.305l.13-.076c1.065-.622 2.4-.069 2.703 1.095l.026.102c.713 2.737-.95 6.971-4.563 9.435l-.181-7.251zm15.641 25.465c.015 2.795-.12 6.29-1.666 8.635-.507.77-1.425 1.174-1.812-.772-.899-4.525.487-7.69 3.486-10.63-.003 0-.016 1.705-.008 2.767zm9.131 1.004a.768.768 0 01-.507-.163.867.867 0 01-.308-.517.878.878 0 01.573-.94c.044-.013.072-.02.115-.034l.188-.012c.135.007.273.012.406.02.068.008.135.015.201.026.018.12.041.231.043.377l.003.525c.015.361-.314.7-.714.718zm.525-21.485h-.563v-2.815h-.955v-.484h2.484v.484h-.966v2.815zm2.747 0l-.92-2.558h-.035l.028.591v1.967h-.546v-3.3h.856l.897 2.559.93-2.558H130v3.299h-.581v-1.924l.028-.627h-.035l-.966 2.55h-.479zM64.965 6.762c-.377-.955-1.393-1.324-2.326-1.482-1.08-.184-2.204-.184-3.266.102-.265-1.394-.808-2.77-1.697-3.886-.135-.17-.989-1.088-1.182-1.088-.107 0-.655.75-.877 1.073a9.63 9.63 0 00-.942 1.671c-.125.29-.286.782-.367 1.09-.054.204-.197.648.002.68.227.04.286-.152.342-.432.081-.413.25-.775.435-1.152.344-.693.823-1.314 1.356-1.872.81.935 1.279 2.132 1.493 3.34.056.313.094.629.117.948.018.27-.028.59.056.848.18.563.663.51 1.096.372 1.05-.329 2.575-.166 3.592.26.533.224.036.644-.214.907-.448.474-.963.874-1.48 1.269-.449.341-.958.642-1.386 1.008-.52.446-.324.948-.212 1.501.181.907.38 1.972.375 2.882 0 .196-.174.046-.268-.028a8.209 8.209 0 01-.91-.851 17.244 17.244 0 01-1.128-1.31c-.349-.448-.7-.881-1.292-.99-.91-.169-1.714.67-2.4 1.14-.305.212-.703.505-1.06.622-.05-.132.13-.678.367-1.358.242-.69.65-1.253.37-1.893-.293-.667-1.03-1.075-1.588-1.495a15.117 15.117 0 01-2.073-1.88c1.212-.485 2.524-.464 3.76-.07.58.187 1.144.439 1.674.742.255.145.596.438.764.316.214-.156-.089-.477-.418-.856-1.645-1.906-3.882-2.925-6.43-2.466-.933.168-1.99.51-2.528 1.347-.504.79.013 1.636.436 2.342.632 1.06 1.455 2.158 2.334 3.027a12.298 12.298 0 00-.525 1.745 12.76 12.76 0 00-.245 2.089c-.028.617-.005 1.254.077 1.865a1.904 1.904 0 002.076 1.69c.64-.07 2.049-.864 2.65-1.221.98-.586 2.166-1.643 2.255-1.72.555.57 1.406 1.246 2.102 1.643 1.452.831 2.537 1.198 3.057 1.228 1.078.064 1.264-.695 1.46-1.674.346-1.727.199-3.243-.341-4.927-.077-.237.247-.39.42-.548.242-.219.482-.44.718-.67.377-.362.75-.731 1.073-1.144.591-.751 1.093-1.77.698-2.734.194.47-.186-.47 0 0z" fill="currentColor"/></svg>