<svg width="100" height="100" viewBox="0 0 100 100" fill="none" xmlns="http://www.w3.org/2000/svg">
<g clip-path="url(#clip0_648_28198)">
<g filter="url(#filter0_f_648_28198)">
<path d="M50 9.26953L85.507 29.7695V70.7695L50 91.2695L14.493 70.7695V29.7695L50 9.26953Z" stroke="#AA6CFF" stroke-width="5"/>
</g>
<g filter="url(#filter1_d_648_28198)">
<path d="M15.493 30.3469L50 10.4242L84.507 30.3469V70.1922L50 90.1148L15.493 70.1922V30.3469Z" stroke="#AA6CFF" stroke-width="2" shape-rendering="crispEdges"/>
</g>
<path d="M72.9013 57.0059L61.3543 57.0059L67.1278 67.0059L72.9013 57.0059ZM43.0905 75.3719L65.6071 62.3719L64.6071 60.6398L42.0905 73.6398L43.0905 75.3719Z" fill="#AA6CFF"/>
<path d="M68.7307 39.7832L57.1837 39.7832L62.9572 49.7832L68.7307 39.7832ZM30.2595 63.1492L61.4364 45.1492L60.4364 43.4172L29.2595 61.4172L30.2595 63.1492Z" fill="#AA6CFF"/>
<path d="M56.4013 28.4268L44.8543 28.4268L50.6278 38.4268L56.4013 28.4268ZM26.5905 46.7928L49.1071 33.7928L48.1071 32.0607L25.5905 45.0607L26.5905 46.7928Z" fill="#AA6CFF"/>
</g>
<defs>
<filter id="filter0_f_648_28198" x="4.99292" y="-0.617188" width="90.0142" height="101.773" filterUnits="userSpaceOnUse" color-interpolation-filters="sRGB">
<feFlood flood-opacity="0" result="BackgroundImageFix"/>
<feBlend mode="normal" in="SourceGraphic" in2="BackgroundImageFix" result="shape"/>
<feGaussianBlur stdDeviation="3.5" result="effect1_foregroundBlur_648_28198"/>
</filter>
<filter id="filter1_d_648_28198" x="4.49292" y="-0.730469" width="91.0142" height="102" filterUnits="userSpaceOnUse" color-interpolation-filters="sRGB">
<feFlood flood-opacity="0" result="BackgroundImageFix"/>
<feColorMatrix in="SourceAlpha" type="matrix" values="0 0 0 0 0 0 0 0 0 0 0 0 0 0 0 0 0 0 127 0" result="hardAlpha"/>
<feOffset/>
<feGaussianBlur stdDeviation="5"/>
<feComposite in2="hardAlpha" operator="out"/>
<feColorMatrix type="matrix" values="0 0 0 0 0.665298 0 0 0 0 0.425 0 0 0 0 1 0 0 0 1 0"/>
<feBlend mode="normal" in2="BackgroundImageFix" result="effect1_dropShadow_648_28198"/>
<feBlend mode="normal" in="SourceGraphic" in2="effect1_dropShadow_648_28198" result="shape"/>
</filter>
<clipPath id="clip0_648_28198">
<rect width="100" height="100" fill="white"/>
</clipPath>
</defs>
</svg>
