<svg width="100" height="100" viewBox="0 0 100 100" fill="none" xmlns="http://www.w3.org/2000/svg">
<g clip-path="url(#clip0_648_28218)">
<g filter="url(#filter0_f_648_28218)">
<path d="M50 9.26953L85.507 29.7695V70.7695L50 91.2695L14.493 70.7695V29.7695L50 9.26953Z" stroke="#AA6CFF" stroke-width="5"/>
</g>
<g filter="url(#filter1_d_648_28218)">
<path d="M15.493 30.3469L50 10.4242L84.507 30.3469V70.1922L50 90.1148L15.493 70.1922V30.3469Z" stroke="#AA6CFF" stroke-width="2" shape-rendering="crispEdges"/>
</g>
<path fill-rule="evenodd" clip-rule="evenodd" d="M42.9292 65.5558L65.5566 42.9284C67.8998 40.5853 67.8998 36.7863 65.5566 34.4431C63.2135 32.1 59.4145 32.1 57.0713 34.4431L34.4439 57.0706C32.1008 59.4137 32.1008 63.2127 34.4439 65.5558C36.7871 67.899 40.586 67.899 42.9292 65.5558ZM66.9708 33.0289C63.8466 29.9047 58.7813 29.9047 55.6571 33.0289L33.0297 55.6563C29.9055 58.7805 29.9055 63.8459 33.0297 66.97C36.1539 70.0942 41.2192 70.0942 44.3434 66.97L66.9708 44.3426C70.095 41.2184 70.095 36.1531 66.9708 33.0289Z" fill="#AA6CFF"/>
<path fill-rule="evenodd" clip-rule="evenodd" d="M65.5566 57.0713L42.9292 34.4439C40.586 32.1007 36.787 32.1007 34.4439 34.4439C32.1007 36.787 32.1007 40.586 34.4439 42.9292L57.0713 65.5566C59.4144 67.8997 63.2134 67.8997 65.5566 65.5566C67.8997 63.2134 67.8997 59.4144 65.5566 57.0713ZM33.0297 33.0297C29.9055 36.1539 29.9055 41.2192 33.0297 44.3434L55.6571 66.9708C58.7813 70.095 63.8466 70.095 66.9708 66.9708C70.095 63.8466 70.095 58.7813 66.9708 55.6571L44.3434 33.0297C41.2192 29.9055 36.1539 29.9055 33.0297 33.0297Z" fill="#AA6CFF"/>
<path d="M41.5149 35.858C39.5623 33.9054 37.1036 33.1983 35.151 35.1509C33.1983 37.1035 33.1983 40.2694 35.151 42.222L40.1007 47.1717L39.3936 47.8788L34.4439 42.9291C32.1007 40.5859 32.1007 36.787 34.4439 34.4438C36.787 32.1007 40.586 32.1007 42.9291 34.4438L54.2428 45.7575L57.7784 49.293L57.0713 50.0002L52.8286 47.1717L41.5149 35.858Z" fill="#1D1C21"/>
<path d="M58.4855 64.1423C60.4381 66.0949 62.8968 66.802 64.8494 64.8494C66.8021 62.8968 66.8021 59.731 64.8494 57.7783L59.8997 52.8286L60.6068 52.1215L65.5566 57.0712C67.8997 59.4144 67.8997 63.2134 65.5566 65.5565C63.2134 67.8997 59.4144 67.8997 57.0713 65.5565L42.222 50.7073L43.6362 49.293L58.4855 64.1423Z" fill="#1D1C21"/>
<path d="M32.3225 45.0504C28.8078 41.5357 28.8078 35.8372 32.3225 32.3225C35.8373 28.8078 42.2428 28.1007 45.7576 31.6154L57.0713 42.9291L59.8997 47.1717L59.1926 47.8788L55.6571 44.3433L44.3433 33.0296C41.2192 29.9054 36.1538 29.9054 33.0296 33.0296C29.9054 36.1538 29.9054 41.2191 33.0296 44.3433L37.9794 49.293L37.2723 50.0002L32.3225 45.0504Z" fill="#1D1C21"/>
<path d="M67.6779 54.9499C71.1926 58.4646 71.1926 64.1631 67.6779 67.6778C64.1632 71.1925 57.7576 71.8997 54.2428 68.3849L39.3936 53.5357L40.8078 52.1215L55.6571 66.9707C58.7813 70.0949 63.8466 70.0949 66.9708 66.9707C70.095 63.8465 70.095 58.7812 66.9708 55.657L62.021 50.7073L62.7281 50.0002L67.6779 54.9499Z" fill="#1D1C21"/>
<path d="M64.1423 41.5144C66.095 39.5618 66.8021 37.1031 64.8495 35.1505C62.8968 33.1979 59.731 33.1979 57.7784 35.1505L52.8286 40.1002L52.1215 39.3931L57.0713 34.4434C59.4144 32.1002 63.2134 32.1002 65.5566 34.4434C67.8997 36.7865 67.8997 40.5855 65.5566 42.9286L54.2429 54.2424L50.7073 57.7779L50.0002 57.0708L52.8286 52.8281L64.1423 41.5144Z" fill="#1D1C21"/>
<path d="M35.8581 58.485C33.9055 60.4376 33.1983 62.8963 35.151 64.849C37.1036 66.8016 40.2694 66.8016 42.222 64.849L47.1718 59.8992L47.8789 60.6063L42.9291 65.5561C40.586 67.8992 36.787 67.8992 34.4439 65.5561C32.1007 63.2129 32.1007 59.4139 34.4439 57.0708L49.2931 42.2215L50.7073 43.6358L35.8581 58.485Z" fill="#1D1C21"/>
<path d="M54.95 32.322C58.4647 28.8073 64.1632 28.8073 67.6779 32.322C71.1926 35.8368 71.8997 42.2424 68.385 45.7571L57.0713 57.0708L52.8286 59.8992L52.1215 59.1921L55.6571 55.6566L66.9708 44.3429C70.095 41.2187 70.095 36.1533 66.9708 33.0292C63.8466 29.905 58.7813 29.905 55.6571 33.0292L50.7073 37.9789L50.0002 37.2718L54.95 32.322Z" fill="#1D1C21"/>
<path d="M45.0505 67.6774C41.5357 71.1921 35.8373 71.1921 32.3225 67.6774C28.8078 64.1627 28.1007 57.7571 31.6154 54.2424L46.4647 39.3931L47.8789 40.8073L33.0296 55.6566C29.9055 58.7808 29.9055 63.8461 33.0296 66.9703C36.1538 70.0945 41.2192 70.0945 44.3434 66.9703L49.2931 62.0205L50.0002 62.7276L45.0505 67.6774Z" fill="#1D1C21"/>
</g>
<defs>
<filter id="filter0_f_648_28218" x="4.99292" y="-0.617188" width="90.0142" height="101.773" filterUnits="userSpaceOnUse" color-interpolation-filters="sRGB">
<feFlood flood-opacity="0" result="BackgroundImageFix"/>
<feBlend mode="normal" in="SourceGraphic" in2="BackgroundImageFix" result="shape"/>
<feGaussianBlur stdDeviation="3.5" result="effect1_foregroundBlur_648_28218"/>
</filter>
<filter id="filter1_d_648_28218" x="4.49292" y="-0.730469" width="91.0142" height="102" filterUnits="userSpaceOnUse" color-interpolation-filters="sRGB">
<feFlood flood-opacity="0" result="BackgroundImageFix"/>
<feColorMatrix in="SourceAlpha" type="matrix" values="0 0 0 0 0 0 0 0 0 0 0 0 0 0 0 0 0 0 127 0" result="hardAlpha"/>
<feOffset/>
<feGaussianBlur stdDeviation="5"/>
<feComposite in2="hardAlpha" operator="out"/>
<feColorMatrix type="matrix" values="0 0 0 0 0.665298 0 0 0 0 0.425 0 0 0 0 1 0 0 0 1 0"/>
<feBlend mode="normal" in2="BackgroundImageFix" result="effect1_dropShadow_648_28218"/>
<feBlend mode="normal" in="SourceGraphic" in2="effect1_dropShadow_648_28218" result="shape"/>
</filter>
<clipPath id="clip0_648_28218">
<rect width="100" height="100" fill="white"/>
</clipPath>
</defs>
</svg>
