<svg width="35" height="12" viewBox="0 0 35 12" fill="none" xmlns="http://www.w3.org/2000/svg">
<path d="M27.4123 8.17434L27.4123 7.55823L34.6885 7.55824C34.847 7.55824 34.9714 7.43722 34.9714 7.28319C34.9714 7.12917 34.847 7.00815 34.6885 7.00815L27.4123 7.00815L27.4123 6.40305L34.6885 6.40305C34.847 6.40305 34.9714 6.28203 34.9714 6.128C34.9714 5.97398 34.847 5.85296 34.6885 5.85296L27.4123 5.85296L27.4123 5.24786L34.6885 5.24786C34.847 5.24786 34.9714 5.12684 34.9714 4.97281C34.9714 4.81879 34.847 4.69777 34.6885 4.69777L27.4123 4.69777L27.4123 4.09267L34.6885 4.09267C34.847 4.09267 34.9714 3.97165 34.9714 3.81762C34.9714 3.6636 34.847 3.54258 34.6885 3.54258L27.4123 3.54258L27.4123 2.92648C27.4123 1.30921 26.0656 -3.89285e-07 24.4248 -4.61008e-07L11.3207 -1.03381e-06C9.66855 -1.10602e-06 8.33325 1.32021 8.33325 2.92648L8.33325 4.69777L1.03434 4.69777C0.875912 4.69777 0.751434 4.81879 0.751434 4.97281C0.751434 5.12684 0.875911 5.24786 1.03434 5.24786L8.33325 5.24786L8.33325 5.85296L1.03434 5.85296C0.875911 5.85296 0.751434 5.97398 0.751434 6.128C0.751434 6.28203 0.875911 6.40305 1.03434 6.40305L8.33325 6.40305L8.33325 8.17433C8.33325 9.7916 9.67987 11.1008 11.3207 11.1008L24.4248 11.1008C26.077 11.1008 27.4123 9.7916 27.4123 8.17434ZM11.3207 10.5507C9.9854 10.5507 8.89905 9.48355 8.89905 8.17433L8.89905 2.92648C8.89905 1.61726 9.9854 0.550089 11.3207 0.550089L24.4248 0.550089C25.7601 0.550089 26.8464 1.61726 26.8464 2.92648L26.8464 8.17434C26.8464 9.48355 25.7601 10.5507 24.4248 10.5507L11.3207 10.5507Z" fill="currentColor"/>
<path d="M23.3385 5.54509C23.3385 4.27988 22.2861 3.25671 20.9847 3.25671C19.6834 3.25671 18.631 4.27988 18.631 5.54509C18.631 6.81029 19.6834 7.83346 20.9847 7.83346C22.2861 7.83346 23.3385 6.81029 23.3385 5.54509ZM19.2081 5.54509C19.2081 4.58793 20.0116 3.8068 20.9961 3.8068C21.9806 3.8068 22.784 4.58793 22.784 5.54509C22.784 6.50224 21.9806 7.28337 20.9961 7.28337C20.0116 7.28337 19.2081 6.50224 19.2081 5.54509Z" fill="currentColor"/>
<path d="M16.0056 5.5451C16.0056 5.18204 15.7001 4.896 15.338 4.896C14.9758 4.896 14.659 5.19304 14.659 5.5451C14.659 5.89716 14.9645 6.20521 15.338 6.20521C15.7114 6.20521 16.0056 5.90816 16.0056 5.5451Z" fill="currentColor"/>
</svg>
