<svg width="20" height="21" viewBox="0 0 20 21" fill="none" xmlns="http://www.w3.org/2000/svg">
	<circle cx="10" cy="10" r="7" stroke="currentColor"/>
	<path d="M9.59961 12.1211V11.8164C9.59961 11.5039 9.62891 11.2363 9.6875 11.0137C9.74609 10.7871 9.84766 10.5762 9.99219 10.3809C10.1406 10.1855 10.3457 9.97852 10.6074 9.75977C10.9121 9.50586 11.1523 9.29102 11.3281 9.11523C11.5078 8.93555 11.6367 8.75586 11.7148 8.57617C11.793 8.39648 11.832 8.17969 11.832 7.92578C11.832 7.51953 11.7012 7.20898 11.4395 6.99414C11.1777 6.77539 10.8086 6.66602 10.332 6.66602C9.94531 6.66602 9.60156 6.71484 9.30078 6.8125C9 6.91016 8.71094 7.02734 8.43359 7.16406L8.09375 6.37891C8.41406 6.21094 8.76172 6.07422 9.13672 5.96875C9.51172 5.86328 9.92969 5.81055 10.3906 5.81055C11.1445 5.81055 11.7285 5.99805 12.1426 6.37305C12.5566 6.74414 12.7637 7.25586 12.7637 7.9082C12.7637 8.27148 12.7051 8.58203 12.5879 8.83984C12.4707 9.09375 12.3047 9.32812 12.0898 9.54297C11.875 9.75391 11.6211 9.97852 11.3281 10.2168C11.0703 10.4355 10.873 10.6289 10.7363 10.7969C10.5996 10.9609 10.5059 11.1309 10.4551 11.3066C10.4043 11.4785 10.3789 11.6855 10.3789 11.9277V12.1211H9.59961ZM9.3418 13.8906C9.3418 13.6172 9.40625 13.4238 9.53516 13.3105C9.66406 13.1934 9.83008 13.1348 10.0332 13.1348C10.2246 13.1348 10.3867 13.1934 10.5195 13.3105C10.6562 13.4238 10.7246 13.6172 10.7246 13.8906C10.7246 14.1602 10.6562 14.3574 10.5195 14.4824C10.3867 14.6035 10.2246 14.6641 10.0332 14.6641C9.83008 14.6641 9.66406 14.6035 9.53516 14.4824C9.40625 14.3574 9.3418 14.1602 9.3418 13.8906Z" fill="currentColor"/>
</svg>
