<svg width="30" height="30" viewBox="0 0 30 30" fill="none" xmlns="http://www.w3.org/2000/svg">
<g clip-path="url(#clip0_648_28349)">
<path d="M13.1825 3.04792C13.4119 3.30253 13.6921 3.50612 14.0052 3.64548C14.3184 3.78483 14.6572 3.85684 15 3.85684C15.3426 3.85684 15.6816 3.78483 15.9946 3.64548C16.3077 3.50612 16.5881 3.30253 16.8175 3.04792L18 1.75042C18.3389 1.37534 18.7855 1.11434 19.2787 1.00324C19.7719 0.892134 20.2872 0.936374 20.7542 1.12989C21.2212 1.32339 21.617 1.65669 21.887 2.08403C22.157 2.51137 22.2881 3.0118 22.2625 3.51667L22.1737 5.26665C22.1565 5.60804 22.2111 5.94924 22.3337 6.26827C22.4565 6.58729 22.6447 6.87708 22.8862 7.11895C23.1277 7.36083 23.4172 7.54943 23.7361 7.67262C24.055 7.79579 24.3961 7.85083 24.7375 7.83417L26.4875 7.74542C26.992 7.72054 27.4919 7.8523 27.9186 8.12264C28.3452 8.39299 28.678 8.78868 28.871 9.25549C29.064 9.7223 29.1079 10.2374 28.9967 10.7301C28.8856 11.2229 28.6247 11.6692 28.25 12.0079L26.9475 13.1829C26.6931 13.4126 26.4899 13.6931 26.3507 14.0062C26.2116 14.3195 26.1397 14.6584 26.1397 15.001C26.1397 15.3437 26.2116 15.6826 26.3507 15.9957C26.4899 16.309 26.6931 16.5895 26.9475 16.8191L28.25 17.9941C28.625 18.3331 28.886 18.7797 28.9971 19.2729C29.1082 19.766 29.064 20.2815 28.8705 20.7485C28.677 21.2155 28.3437 21.6111 27.9164 21.8811C27.489 22.1512 26.9886 22.2824 26.4837 22.2566L24.7337 22.1679C24.3916 22.1504 24.0495 22.2047 23.7297 22.3276C23.41 22.4506 23.1196 22.6392 22.8774 22.8815C22.6351 23.1237 22.4464 23.4142 22.3235 23.734C22.2005 24.0537 22.1461 24.3957 22.1637 24.7379L22.2525 26.4879C22.2749 26.9902 22.142 27.4872 21.8721 27.9115C21.6022 28.3357 21.2082 28.6665 20.7437 28.859C20.2792 29.0516 19.7667 29.0964 19.2759 28.9875C18.785 28.8786 18.3395 28.6212 18 28.2504L16.8237 26.9491C16.5941 26.6949 16.3137 26.4916 16.0006 26.3525C15.6876 26.2134 15.3489 26.1415 15.0062 26.1415C14.6636 26.1415 14.3249 26.2134 14.0117 26.3525C13.6987 26.4916 13.4184 26.6949 13.1887 26.9491L12.0075 28.2504C11.6685 28.623 11.2228 28.882 10.7313 28.9921C10.2397 29.1021 9.72616 29.058 9.26064 28.8655C8.79511 28.6731 8.40027 28.3417 8.12992 27.9167C7.85957 27.4917 7.7269 26.9936 7.74996 26.4904L7.83996 24.7404C7.85756 24.3982 7.80313 24.0562 7.68021 23.7365C7.55727 23.4167 7.36858 23.1262 7.12633 22.884C6.88408 22.6417 6.59367 22.4531 6.2739 22.3301C5.95412 22.2072 5.6121 22.1529 5.26996 22.1704L3.51996 22.2591C3.01531 22.2855 2.51488 22.155 2.08738 21.8855C1.65987 21.6161 1.32625 21.221 1.13231 20.7544C0.938372 20.2876 0.893625 19.7725 1.00421 19.2794C1.1148 18.7862 1.37531 18.3395 1.74996 18.0004L3.05121 16.8254C3.30552 16.5957 3.50881 16.3152 3.64795 16.002C3.78709 15.6889 3.85898 15.35 3.85898 15.0072C3.85898 14.6646 3.78709 14.3257 3.64795 14.0125C3.50881 13.6994 3.30552 13.4189 3.05121 13.1891L1.74996 12.0079C1.37652 11.6692 1.11681 11.2234 1.00634 10.7314C0.895859 10.2395 0.940004 9.72543 1.13274 9.25953C1.32547 8.79363 1.65738 8.39863 2.08311 8.1285C2.50883 7.85839 3.0076 7.72634 3.51121 7.75042L5.26121 7.83917C5.604 7.85718 5.94673 7.8029 6.26718 7.67983C6.58762 7.55677 6.8786 7.36768 7.1212 7.12484C7.3638 6.882 7.55261 6.59084 7.67536 6.27029C7.79811 5.94973 7.85206 5.60693 7.83371 5.26417L7.74996 3.5129C7.72635 3.00949 7.85862 2.51104 8.12876 2.08559C8.3989 1.66013 8.79373 1.32838 9.25938 1.13561C9.72503 0.942846 10.2388 0.898448 10.7306 1.00848C11.2224 1.1185 11.6683 1.3776 12.0075 1.75042L13.1825 3.04792Z" stroke="currentColor" stroke-width="2" stroke-linecap="round" stroke-linejoin="round"/>
<path d="M9.375 15.001C9.375 16.4929 9.96764 17.9235 11.0225 18.9785C12.0774 20.0334 13.5081 20.626 15 20.626C16.4919 20.626 17.9226 20.0334 18.9775 18.9785C20.0324 17.9235 20.625 16.4929 20.625 15.001C20.625 13.5091 20.0324 12.0784 18.9775 11.0235C17.9226 9.9686 16.4919 9.37598 15 9.37598C13.5081 9.37598 12.0774 9.9686 11.0225 11.0235C9.96764 12.0784 9.375 13.5091 9.375 15.001Z" stroke="currentColor" stroke-width="2" stroke-linecap="round" stroke-linejoin="round"/>
</g>
<defs>
<clipPath id="clip0_648_28349">
<rect width="30" height="30" fill="currentColor"/>
</clipPath>
</defs>
</svg>
