<svg width="26" height="27" viewBox="0 0 26 27" fill="none" xmlns="http://www.w3.org/2000/svg">
<path d="M24.489 3.45859C24.3908 3.20663 24.2927 3.14365 24.1619 3.11215C23.8021 2.98617 23.2461 3.17515 23.2461 3.17515C23.2461 3.17515 2.60823 10.2931 1.43079 11.0805C1.16914 11.2379 1.10373 11.3639 1.03832 11.4584C0.842076 12.0253 1.4635 12.2773 1.4635 12.2773L6.79468 13.9465C6.79468 13.9465 6.99093 13.978 7.05634 13.9465C8.26648 13.2221 19.2232 6.54514 19.8446 6.32468C19.9427 6.29318 20.0082 6.32466 20.0082 6.38765C19.7465 7.23802 10.2289 15.3953 10.2289 15.3953C10.2289 15.3953 10.1962 15.4268 10.1635 15.4898L9.67287 20.5605C9.67287 20.5605 9.47663 22.1038 11.0793 20.5605C12.224 19.4582 13.336 18.5448 13.8593 18.1039C15.6909 19.3322 17.6533 20.655 18.5037 21.3794C18.9288 21.7259 19.2886 21.7888 19.583 21.7888C20.4006 21.7574 20.6296 20.907 20.6296 20.907C20.6296 20.907 24.3909 6.32467 24.5217 4.37196C24.5217 4.18299 24.5544 4.057 24.5544 3.93102C24.5544 3.71056 24.5217 3.55308 24.489 3.45859Z" fill="white"/>
</svg>
