<svg width="30" height="30" viewBox="0 0 30 30" fill="none" xmlns="http://www.w3.org/2000/svg">
<g clip-path="url(#clip0_648_28371)">
<path fill-rule="evenodd" clip-rule="evenodd" d="M18.9985 2.46392C16.7093 1.77029 14.2751 1.70881 11.9539 2.286C9.63261 2.86319 7.51072 4.05755 5.81302 5.74253C4.11532 7.42751 2.90504 9.54036 2.31042 11.8572C1.71579 14.1741 1.75897 16.6086 2.43537 18.9029L2.43538 18.9029C3.11177 21.1972 4.3962 23.2658 6.15259 24.8896L5.5346 25.558L6.1526 24.8896C7.90896 26.5133 10.0719 27.6317 12.4121 28.1261C12.9238 28.2342 13.2511 28.7367 13.1429 29.2485C13.0348 29.7603 12.5323 30.0875 12.0205 29.9794C9.34593 29.4143 6.87403 28.1361 4.86675 26.2804C2.85947 24.4247 1.39154 22.0606 0.618516 19.4385L1.52694 19.1707L0.618516 19.4385C-0.154523 16.8165 -0.203864 14.0342 0.475707 11.3863L1.39249 11.6216L0.475709 11.3863C1.15528 8.7385 2.53846 6.32381 4.47868 4.39812C6.41891 2.47243 8.84393 1.10745 11.4968 0.4478C14.1496 -0.211846 16.9315 -0.141583 19.5477 0.651137L19.2926 1.49311L19.5477 0.65114C22.1638 1.44386 24.5168 2.92952 26.3575 4.95068L26.3575 4.95071C28.198 6.97189 29.4575 9.45332 30.0025 12.1321C30.1068 12.6446 29.7758 13.1447 29.2633 13.249C28.7507 13.3533 28.2506 13.0223 28.1464 12.5097C27.6695 10.1658 26.5674 7.99458 24.957 6.22603L25.6572 5.58837L24.957 6.22603C23.3464 4.45748 21.2875 3.15754 18.9985 2.46392Z" fill="currentColor"/>
<path d="M6.3441 26.2751L7.60688 19.898H8.97069C9.2587 19.8989 9.54304 19.8334 9.80152 19.7063C10.06 19.5793 10.2856 19.3942 10.4608 19.1656C10.6412 18.9422 10.7661 18.6793 10.8254 18.3984C10.8847 18.1174 10.8765 17.8264 10.8017 17.5493L9.85464 13.7609C9.75538 13.3501 9.52079 12.9848 9.18864 12.7237C8.8565 12.4626 8.44612 12.3208 8.0236 12.3213H1.29297" stroke="currentColor" stroke-width="2" stroke-linecap="round" stroke-linejoin="round"/>
<path d="M26.5486 6.63867H21.3964C20.9739 6.63819 20.5635 6.77994 20.2314 7.04107C19.8993 7.30222 19.6646 7.66755 19.5654 8.07825L19.2118 9.46731" stroke="currentColor" stroke-width="2" stroke-linecap="round" stroke-linejoin="round"/>
<path fill-rule="evenodd" clip-rule="evenodd" d="M19.737 18.8146C20.2699 18.2817 20.9926 17.9824 21.746 17.9824C22.4996 17.9824 23.2223 18.2817 23.7552 18.8146C24.2881 19.3474 24.5873 20.0701 24.5873 20.8237C24.5873 21.5772 24.288 22.2998 23.7552 22.8327C23.2224 23.3654 22.4998 23.6649 21.746 23.6649C20.9924 23.6649 20.2698 23.3654 19.737 22.8327C19.2043 22.2999 18.9048 21.5773 18.9048 20.8237C18.9048 20.0699 19.2043 19.3473 19.737 18.8146ZM21.746 19.8766C21.4949 19.8766 21.254 19.9764 21.0764 20.1539C20.8988 20.3316 20.799 20.5725 20.799 20.8237C20.799 21.0747 20.8987 21.3156 21.0764 21.4933C21.2541 21.671 21.495 21.7708 21.746 21.7708C21.9972 21.7708 22.2381 21.671 22.4158 21.4933C22.5934 21.3157 22.6931 21.0749 22.6931 20.8237C22.6931 20.5723 22.5934 20.3315 22.4158 20.1539C22.2382 19.9764 21.9974 19.8766 21.746 19.8766Z" fill="currentColor"/>
<path d="M23.349 13.4992L23.9551 15.3302C24.049 15.6324 24.253 15.8884 24.5265 16.0474C24.8001 16.2065 25.1235 16.2568 25.4325 16.1889L27.2888 15.7596C27.6419 15.6784 28.0118 15.7127 28.3439 15.8574C28.676 16.0021 28.9528 16.2497 29.1338 16.5635C29.3147 16.8773 29.3902 17.2409 29.3491 17.6008C29.3079 17.9607 29.1523 18.298 28.9052 18.5629L27.6424 19.9646C27.4258 20.1981 27.3056 20.5049 27.3056 20.8233C27.3056 21.1418 27.4258 21.4484 27.6424 21.682L28.9052 23.0837C29.1523 23.3485 29.3079 23.6858 29.3491 24.0457C29.3902 24.4056 29.3147 24.7693 29.1338 25.0831C28.9528 25.397 28.676 25.6444 28.3439 25.7891C28.0118 25.9338 27.6419 25.9682 27.2888 25.8871L25.4325 25.4577C25.1235 25.3897 24.8001 25.4402 24.5265 25.5992C24.253 25.7582 24.049 26.0141 23.9551 26.3164L23.3868 28.1475C23.288 28.4965 23.0778 28.8039 22.7884 29.0227C22.499 29.2414 22.146 29.3599 21.7831 29.3599C21.4203 29.3599 21.0674 29.2414 20.7779 29.0227C20.4885 28.8039 20.2784 28.4965 20.1794 28.1475L19.6111 26.3164C19.5173 26.0141 19.3134 25.7582 19.0397 25.5992C18.7662 25.4402 18.4428 25.3897 18.1337 25.4577L16.2774 25.8871C15.9243 25.9682 15.5546 25.9338 15.2224 25.7891C14.8903 25.6444 14.6134 25.397 14.4324 25.0831C14.2515 24.7693 14.1761 24.4056 14.2173 24.0457C14.2584 23.6858 14.4139 23.3485 14.661 23.0837L15.9238 21.682C16.1404 21.4484 16.2607 21.1418 16.2607 20.8233C16.2607 20.5049 16.1404 20.1981 15.9238 19.9646L14.661 18.5629C14.4139 18.298 14.2584 17.9607 14.2173 17.6008C14.1761 17.2409 14.2515 16.8773 14.4324 16.5635C14.6134 16.2497 14.8903 16.0021 15.2224 15.8574C15.5546 15.7127 15.9243 15.6784 16.2774 15.7596L18.1337 16.1889C18.4428 16.2568 18.7662 16.2065 19.0397 16.0474C19.3134 15.8884 19.5173 15.6324 19.6111 15.3302L20.1667 13.4992C20.2727 13.16 20.4842 12.8636 20.7703 12.6531C21.0566 12.4426 21.4026 12.3291 21.7578 12.3291C22.1132 12.3291 22.4592 12.4426 22.7453 12.6531C23.0316 12.8636 23.2431 13.16 23.349 13.4992Z" stroke="currentColor" stroke-width="2" stroke-linecap="round" stroke-linejoin="round"/>
</g>
<defs>
<clipPath id="clip0_648_28371">
<rect width="30" height="30" fill="currentColor"/>
</clipPath>
</defs>
</svg>
