<svg width="26" height="27" viewBox="0 0 26 27" fill="none" xmlns="http://www.w3.org/2000/svg">
<path fill-rule="evenodd" clip-rule="evenodd" d="M22.2209 3.97184C19.7721 1.53434 16.5372 0.210268 13.0605 0.180176C5.92558 0.180176 0.120938 5.95795 0.120938 13.0598C0.120938 15.3168 0.725574 17.5436 1.84418 19.4996L0 26.1802L6.86279 24.3746C8.76745 25.3978 10.8837 25.9394 13.0605 25.9394C20.1954 25.9394 26 20.1617 26 13.0598C26 9.62925 24.6395 6.40934 22.2209 3.97184ZM13.0605 23.7728C11.1256 23.7728 9.22092 23.2612 7.58836 22.2681L7.19535 22.0274L3.11395 23.0806L4.20233 19.1385L3.93023 18.7473C2.84186 17.032 2.29767 15.076 2.29767 13.0598C2.29767 7.16166 7.13489 2.34684 13.0605 2.34684C15.9326 2.34684 18.6233 3.46027 20.6791 5.47647C22.7047 7.49268 23.8233 10.201 23.8233 13.0598C23.8233 18.988 18.9861 23.7728 13.0605 23.7728ZM18.9558 15.7681C18.6233 15.6177 17.0512 14.8353 16.7488 14.7149C16.4465 14.5945 16.2349 14.5644 16.0233 14.8654C15.8116 15.1964 15.1767 15.9186 14.9953 16.1293C14.8139 16.3399 14.6326 16.37 14.3 16.2195C13.9674 16.0691 12.9395 15.708 11.7 14.6246C10.7326 13.782 10.0977 12.7288 9.88605 12.3978C9.70465 12.0668 9.85582 11.9163 10.0372 11.7357C10.1884 11.5853 10.3698 11.3746 10.5209 11.164C10.6721 10.9834 10.7326 10.833 10.8535 10.6223C10.9744 10.4117 10.9139 10.2311 10.8233 10.0505C10.7326 9.90008 10.0977 8.30518 9.82558 7.67323C9.55349 7.04129 9.28139 7.13157 9.09999 7.13157C8.9186 7.13157 8.70698 7.13157 8.46512 7.13157C8.25349 7.13157 7.89069 7.22184 7.58836 7.52277C7.28604 7.85379 6.46977 8.63619 6.46977 10.201C6.46977 11.7959 7.6186 13.3306 7.8 13.5413C7.95116 13.7519 10.0674 17.0019 13.3326 18.4163C14.1186 18.7473 14.693 18.958 15.1767 19.1084C15.9628 19.3492 16.6581 19.3191 17.2023 19.2288C17.8372 19.1385 19.107 18.4464 19.3791 17.6941C19.6512 16.9418 19.6512 16.3098 19.5605 16.1593C19.5 16.0089 19.2884 15.9186 18.9558 15.7681Z" fill="white"/>
</svg>
