<svg width="26" height="27" viewBox="0 0 26 27" fill="none" xmlns="http://www.w3.org/2000/svg">
<path d="M25.031 8.37448C24.7589 7.31309 23.9152 6.49663 22.8538 6.19726C20.9487 5.68017 13.2741 5.68018 13.2741 5.68018C13.2741 5.68018 5.62658 5.68017 3.6943 6.19726C2.63291 6.46941 1.81645 7.31309 1.51709 8.37448C0.999998 10.2795 1 14.2802 1 14.2802C1 14.2802 0.999998 18.2536 1.51709 20.1859C1.78924 21.2473 2.63291 22.0637 3.6943 22.3631C5.59936 22.8802 13.2741 22.8802 13.2741 22.8802C13.2741 22.8802 20.9215 22.8802 22.8538 22.3631C23.9152 22.0909 24.7316 21.2473 25.031 20.1859C25.5481 18.2808 25.5481 14.2802 25.5481 14.2802C25.5481 14.2802 25.5481 10.2795 25.031 8.37448ZM10.8519 17.927V10.5789L17.2203 14.253L10.8519 17.927Z" fill="white"/>
</svg>
