<svg width="75" height="74" viewBox="0 0 75 74" fill="none" xmlns="http://www.w3.org/2000/svg">
<path d="M50.9315 44.2798C49.8059 44.2798 48.8508 45.0985 48.6461 46.173H45.0815C44.8939 45.5078 44.2969 44.9961 43.5635 44.9961C42.8302 44.9961 42.2332 45.5078 42.0456 46.173H40.1524C40.0842 45.8489 39.9648 45.5419 39.7943 45.2861L41.1417 43.9387C41.3804 44.0751 41.6363 44.1604 41.9092 44.1604C42.3185 44.1604 42.7278 44.0069 43.0348 43.6999C43.5465 43.1882 43.6147 42.4037 43.2736 41.7897L44.638 40.4252C45.0133 40.6811 45.4397 40.8687 45.9172 40.8687C46.5312 40.8687 47.1281 40.6299 47.5545 40.1865C48.4585 39.2825 48.4585 37.7987 47.5545 36.8948C46.6506 35.9908 45.1668 35.9908 44.2628 36.8948C43.8194 37.3382 43.5806 37.9181 43.5806 38.5321C43.5806 39.0096 43.7512 39.436 44.024 39.8113L42.6596 41.1757C42.0456 40.8346 41.2781 40.9028 40.7664 41.4145C40.2548 41.9261 40.1866 42.7107 40.5277 43.3247L39.1803 44.6721C38.9244 44.4845 38.6175 44.3651 38.2934 44.3139V42.3525C39.3679 42.1479 40.1866 41.2098 40.1866 40.0671C40.1866 38.9244 39.3679 37.9863 38.2934 37.7816V35.8203C39.3679 35.6156 40.1866 34.6775 40.1866 33.5348C40.1866 32.3921 39.3679 31.4541 38.2934 31.2494V13.4264C38.2934 13.1876 38.1058 13 37.867 13C37.6282 13 37.4406 13.1876 37.4406 13.4264V31.2835C36.3661 31.4882 35.5475 32.4262 35.5475 33.5689C35.5475 34.7117 36.3661 35.6497 37.4406 35.8544V37.8158C36.3661 38.0204 35.5475 38.9585 35.5475 40.1012C35.5475 41.2439 36.3661 42.182 37.4406 42.3866V44.348C37.1166 44.4162 36.8096 44.5356 36.5537 44.7062L35.2063 43.3588C35.5475 42.7448 35.4792 41.9773 34.9676 41.4486C34.4559 40.9369 33.6714 40.8687 33.0744 41.2098L31.71 39.8454C31.9658 39.4701 32.1534 39.0438 32.1534 38.5662C32.1534 37.9522 31.9146 37.3553 31.4712 36.9289C30.5673 36.0249 29.1005 36.0249 28.1795 36.9289C27.736 37.3723 27.4973 37.9522 27.4973 38.5662C27.4973 39.1802 27.736 39.7771 28.1795 40.2035C28.64 40.664 29.2199 40.8857 29.8168 40.8857C30.2773 40.8857 30.7037 40.7152 31.096 40.4423L32.4604 41.8067C32.1193 42.4207 32.1875 43.1882 32.6992 43.717C33.0062 44.024 33.4155 44.1775 33.8249 44.1775C34.0977 44.1775 34.3536 44.0922 34.5924 43.9557L35.9397 45.3031C35.7521 45.559 35.6327 45.866 35.5816 46.19H33.6884C33.5008 45.5248 32.9039 45.0132 32.1705 45.0132C31.4371 45.0132 30.8572 45.5078 30.6525 46.19H27.105C26.9003 45.1155 25.9623 44.2968 24.8195 44.2968C23.5404 44.2968 22.5 45.3372 22.5 46.6164C22.5 47.8956 23.5404 48.9359 24.8195 48.9359C25.9623 48.9359 26.9003 48.1173 27.105 47.0257H30.6525C30.8401 47.708 31.4371 48.2026 32.1705 48.2026C32.9039 48.2026 33.5008 47.6909 33.6884 47.0257H35.5816C35.6498 47.3498 35.7692 47.6568 35.9397 47.9126L34.5924 49.26C33.9784 48.9189 33.2109 48.9871 32.6992 49.4988C32.1875 50.0104 32.1193 50.795 32.4604 51.409L31.096 52.7734C30.192 52.1594 28.964 52.2106 28.1795 53.0122C27.2755 53.9162 27.2755 55.4 28.1795 56.3039C28.64 56.7644 29.2199 56.9861 29.8168 56.9861C30.4138 56.9861 31.0107 56.7644 31.4541 56.3039C32.2557 55.5023 32.3069 54.2914 31.6929 53.3874L33.0574 52.023C33.2961 52.1594 33.552 52.2447 33.8249 52.2447C34.2342 52.2447 34.6435 52.0912 34.9505 51.7842C35.4622 51.2725 35.5304 50.488 35.1893 49.874L36.5367 48.5266C36.7925 48.7142 37.0995 48.8336 37.4236 48.8848V50.8462C36.3491 51.0508 35.5304 51.9889 35.5304 53.1316C35.5304 54.2743 36.3491 55.2124 37.4236 55.417V57.3784C36.3491 57.5831 35.5304 58.5211 35.5304 59.6639C35.5304 60.943 36.5708 61.9834 37.85 61.9834C39.1291 61.9834 40.1695 60.943 40.1695 59.6639C40.1695 58.5211 39.3508 57.5831 38.2763 57.3784V55.417C39.3508 55.2124 40.1695 54.2743 40.1695 53.1316C40.1695 51.9889 39.3508 51.0508 38.2763 50.8462V48.8848C38.6004 48.8166 38.9074 48.6972 39.1632 48.5266L40.5106 49.874C40.1695 50.488 40.2377 51.2555 40.7494 51.7842C41.0564 52.0912 41.4657 52.2447 41.8751 52.2447C42.1479 52.2447 42.4038 52.1594 42.6425 52.023L44.007 53.3874C43.393 54.2914 43.4442 55.5194 44.2458 56.3039C44.6892 56.7474 45.2691 56.9861 45.8831 56.9861C46.4971 56.9861 47.094 56.7474 47.5204 56.3039C48.4244 55.4 48.4244 53.9162 47.5204 53.0122C46.7529 52.2447 45.4908 52.1935 44.6039 52.7734L43.2224 51.3919C43.5635 50.7779 43.4953 50.0104 42.9837 49.4817C42.472 48.9701 41.6874 48.9018 41.0905 49.2429L39.7431 47.8956C39.9307 47.6397 40.0501 47.3327 40.1013 47.0087H41.9944C42.1821 47.6738 42.779 48.1855 43.5124 48.1855C44.2458 48.1855 44.8427 47.6738 45.0303 47.0087H48.5779C48.7825 48.0832 49.7206 48.9189 50.8633 48.9189C52.1425 48.9189 53.1829 47.8785 53.1829 46.5993C53.1829 45.3202 52.1425 44.2798 50.8633 44.2798H50.9315ZM37.9011 48.0832C37.4918 48.0832 37.1336 47.9126 36.8607 47.6568C36.5878 47.3839 36.4343 47.0257 36.4343 46.6164C36.4343 45.7977 37.0995 45.1496 37.9011 45.1496C38.3105 45.1496 38.6686 45.3202 38.9415 45.576C39.2144 45.8489 39.3679 46.2071 39.3679 46.6164C39.3679 47.4351 38.7027 48.0832 37.9011 48.0832ZM44.9109 37.5088C45.2009 37.2188 45.5761 37.0824 45.9513 37.0824C46.3265 37.0824 46.7018 37.2188 46.9917 37.5088C47.5716 38.0886 47.5716 39.0096 46.9917 39.5895C46.4118 40.1694 45.4738 40.1524 44.9109 39.5895C44.638 39.3166 44.4845 38.9414 44.4845 38.5491C44.4845 38.1569 44.638 37.7816 44.9109 37.5088ZM41.3804 42.0455C41.6704 41.7556 42.1479 41.7556 42.4379 42.0455C42.7278 42.3355 42.7278 42.813 42.4379 43.103C42.1479 43.3929 41.6704 43.3929 41.3804 43.103C41.0905 42.813 41.0905 42.3355 41.3804 42.0455ZM36.4173 33.5689C36.4173 32.7503 37.0825 32.1022 37.8841 32.1022C38.6857 32.1022 39.3508 32.7673 39.3508 33.5689C39.3508 34.3705 38.6857 35.0357 37.8841 35.0357C37.0825 35.0357 36.4173 34.3705 36.4173 33.5689ZM36.4173 40.0841C36.4173 39.2655 37.0825 38.6174 37.8841 38.6174C38.6857 38.6174 39.3508 39.2825 39.3508 40.0841C39.3508 40.8857 38.6857 41.5509 37.8841 41.5509C37.0825 41.5509 36.4173 40.8857 36.4173 40.0841ZM28.8105 39.5895C28.5376 39.3166 28.3841 38.9414 28.3841 38.5491C28.3841 38.1569 28.5376 37.7816 28.8105 37.5088C29.0834 37.2359 29.4757 37.0824 29.8509 37.0824C30.2261 37.0824 30.6014 37.2188 30.8913 37.5088C31.1813 37.7987 31.3177 38.1569 31.3177 38.5491C31.3177 38.9414 31.1642 39.3166 30.8913 39.5895C30.3114 40.1694 29.3904 40.1694 28.8105 39.5895ZM33.3302 43.103C33.0403 42.813 33.0403 42.3355 33.3302 42.0455C33.4837 41.9091 33.6714 41.8238 33.859 41.8238C34.0466 41.8238 34.2342 41.892 34.3877 42.0455C34.6776 42.3355 34.6776 42.813 34.3877 43.103C34.0977 43.3929 33.6202 43.3929 33.3302 43.103ZM24.8537 48.0832C24.035 48.0832 23.3869 47.418 23.3869 46.6164C23.3869 45.8148 24.0521 45.1496 24.8537 45.1496C25.6553 45.1496 26.3204 45.8148 26.3204 46.6164C26.3204 47.418 25.6553 48.0832 24.8537 48.0832ZM32.2046 47.3498C31.7952 47.3498 31.4541 47.0087 31.4541 46.5993C31.4541 46.19 31.7952 45.8489 32.2046 45.8489C32.6139 45.8489 32.955 46.19 32.955 46.5993C32.955 47.0087 32.6139 47.3498 32.2046 47.3498ZM30.8913 55.6899C30.3114 56.2698 29.3904 56.2698 28.8105 55.6899C28.2306 55.11 28.2306 54.189 28.8105 53.6092C29.1005 53.3192 29.4757 53.1828 29.8509 53.1828C30.2261 53.1828 30.6014 53.3192 30.8913 53.6092C31.4712 54.189 31.4712 55.11 30.8913 55.6899ZM34.4047 51.1532C34.1148 51.4431 33.6372 51.4431 33.3473 51.1532C33.0574 50.8632 33.0574 50.3857 33.3473 50.0957C33.6372 49.8058 34.1148 49.8058 34.4047 50.0957C34.6947 50.3857 34.6947 50.8632 34.4047 51.1532ZM39.3679 59.6468C39.3679 60.4655 38.7027 61.1136 37.9011 61.1136C37.0995 61.1136 36.4343 60.4484 36.4343 59.6468C36.4343 58.8452 37.0995 58.18 37.9011 58.18C38.7027 58.18 39.3679 58.8452 39.3679 59.6468ZM39.3679 53.1316C39.3679 53.9503 38.7027 54.5984 37.9011 54.5984C37.0995 54.5984 36.4343 53.9332 36.4343 53.1316C36.4343 52.33 37.0995 51.6648 37.9011 51.6648C38.7027 51.6648 39.3679 52.33 39.3679 53.1316ZM45.9343 53.1828C46.3265 53.1828 46.7018 53.3363 46.9746 53.6092C47.5545 54.189 47.5545 55.11 46.9746 55.6899C46.3948 56.2698 45.4567 56.2528 44.8939 55.6899C44.314 55.11 44.314 54.189 44.8939 53.6092C45.1668 53.3363 45.542 53.1828 45.9343 53.1828ZM41.9262 49.874C42.1138 49.874 42.3014 49.9422 42.4549 50.0957C42.7449 50.3857 42.7449 50.8632 42.4549 51.1532C42.165 51.4431 41.6874 51.4431 41.3975 51.1532C41.1076 50.8632 41.1076 50.3857 41.3975 50.0957C41.551 49.9593 41.7386 49.874 41.9262 49.874ZM43.5806 47.3498C43.1713 47.3498 42.8302 47.0087 42.8302 46.5993C42.8302 46.19 43.1713 45.8489 43.5806 45.8489C43.9899 45.8489 44.331 46.19 44.331 46.5993C44.331 47.0087 43.9899 47.3498 43.5806 47.3498ZM50.9315 48.0832C50.1129 48.0832 49.4648 47.418 49.4648 46.6164C49.4648 45.8148 50.1299 45.1496 50.9315 45.1496C51.7331 45.1496 52.3983 45.8148 52.3983 46.6164C52.3983 47.418 51.7331 48.0832 50.9315 48.0832Z" fill="white"/>
</svg>
