<svg width="75" height="74" viewBox="0 0 75 74" fill="none" xmlns="http://www.w3.org/2000/svg">
<path d="M4.78994 19.9102H15.552V21.2064H14.7333C14.5627 21.2064 14.4434 21.3429 14.4434 21.4964V24.7199C14.4434 24.8904 14.5798 25.0098 14.7333 25.0098H15.0232C14.4604 25.675 14.1364 26.5278 14.1364 27.3976C14.1364 29.3419 15.7055 33.8957 17.8545 33.8957C20.0035 33.8957 21.5726 29.3419 21.5726 27.3976C21.5726 26.4936 21.2485 25.6579 20.6857 25.0098H20.9756C21.1462 25.0098 21.2656 24.8734 21.2656 24.7199V21.4964C21.2656 21.3258 21.1291 21.2064 20.9756 21.2064H20.157V19.9102H34.8417V21.2064H34.0231C33.8525 21.2064 33.7331 21.3429 33.7331 21.4964V24.7199C33.7331 24.8904 33.8696 25.0098 34.0231 25.0098H34.313C33.7502 25.675 33.4261 26.5278 33.4261 27.3976C33.4261 29.3419 34.9952 33.8957 37.1442 33.8957C39.2932 33.8957 40.8623 29.3419 40.8623 27.3976C40.8623 26.4936 40.5383 25.6579 39.9754 25.0098H40.2654C40.4359 25.0098 40.5553 24.8734 40.5553 24.7199V21.4964C40.5553 21.3258 40.4189 21.2064 40.2654 21.2064H39.4467V19.9102H54.1486V21.2064H53.3299C53.1593 21.2064 53.04 21.3429 53.04 21.4964V24.7199C53.04 24.8904 53.1764 25.0098 53.3299 25.0098H53.6198C53.057 25.675 52.733 26.5278 52.733 27.3976C52.733 29.3419 54.3021 33.8957 56.4511 33.8957C58.6001 33.8957 60.1692 29.3419 60.1692 27.3976C60.1692 26.4936 59.8451 25.6579 59.2823 25.0098H59.5722C59.7428 25.0098 59.8622 24.8734 59.8622 24.7199V21.4964C59.8622 21.3258 59.7257 21.2064 59.5722 21.2064H58.7535V19.9102H69.5156C69.6861 19.9102 69.8055 19.7738 69.8055 19.6203C69.8055 19.4668 69.6691 19.3303 69.5156 19.3303H58.7535V18.2899C58.7535 18.1194 58.6171 18 58.4636 18H54.4385C54.268 18 54.1486 18.1364 54.1486 18.2899V19.3303H39.4467V18.2899C39.4467 18.1194 39.3103 18 39.1568 18H35.1487C34.9782 18 34.8588 18.1364 34.8588 18.2899V19.3303H20.174V18.2899C20.174 18.1194 20.0376 18 19.8841 18H15.859C15.6884 18 15.569 18.1364 15.569 18.2899V19.3303H4.78994C4.61939 19.3303 4.5 19.4668 4.5 19.6203C4.5 19.7738 4.63644 19.9102 4.78994 19.9102ZM20.9756 27.4146C20.9756 29.2566 19.4577 33.3158 17.8545 33.3158C16.2512 33.3158 14.7333 29.2566 14.7333 27.4146C14.7333 26.4936 15.1597 25.6068 15.859 25.0269H19.85C20.5663 25.6068 20.9756 26.4766 20.9756 27.4146ZM20.6857 24.4299H15.0403V21.8034H20.6857V24.4299ZM40.2824 27.4146C40.2824 29.2566 38.7816 33.3158 37.1613 33.3158C35.541 33.3158 34.0401 29.2566 34.0401 27.4146C34.0401 26.4936 34.4665 25.6068 35.1658 25.0269H39.1568C39.8731 25.6068 40.2824 26.4766 40.2824 27.4146ZM39.9754 24.4299H34.3301V21.8034H39.9754V24.4299ZM59.5893 27.4146C59.5893 29.2566 58.0713 33.3158 56.4681 33.3158C54.8649 33.3158 53.347 29.2566 53.347 27.4146C53.347 26.4936 53.7733 25.6068 54.4726 25.0269H58.4636C59.1799 25.6068 59.5893 26.4766 59.5893 27.4146ZM59.2823 24.4299H53.6369V21.8034H59.2823V24.4299ZM54.7455 18.5799H58.1737V21.2064H54.7455V18.5799ZM35.4557 18.5799H38.8839V21.2064H35.4557V18.5799ZM16.1489 18.5799H19.5771V21.2064H16.1489V18.5799Z" fill="white"/>
<path d="M69.5326 41.4683H58.7706V40.4279C58.7706 40.2573 58.6342 40.1379 58.4807 40.1379H54.4556C54.285 40.1379 54.1656 40.2744 54.1656 40.4279V41.4683H39.4638V40.4279C39.4638 40.2573 39.3273 40.1379 39.1738 40.1379H35.1658C34.9952 40.1379 34.8758 40.2744 34.8758 40.4279V41.4683H20.1911V40.4279C20.1911 40.2573 20.0546 40.1379 19.9011 40.1379H15.876C15.7055 40.1379 15.5861 40.2744 15.5861 40.4279V41.4683H4.78994C4.61939 41.4683 4.5 41.6047 4.5 41.7582C4.5 41.9117 4.63644 42.0482 4.78994 42.0482H15.552V43.3444H14.7333C14.5627 43.3444 14.4434 43.4808 14.4434 43.6343V46.8578C14.4434 47.0284 14.5798 47.1478 14.7333 47.1478H15.0232C14.4604 47.8129 14.1364 48.6657 14.1364 49.5355C14.1364 51.4628 15.7055 56.0337 17.8545 56.0337C20.0035 56.0337 21.5726 51.4798 21.5726 49.5355C21.5726 48.6316 21.2485 47.7959 20.6857 47.1478H20.9756C21.1462 47.1478 21.2656 47.0113 21.2656 46.8578V43.6343C21.2656 43.4638 21.1291 43.3444 20.9756 43.3444H20.157V42.0482H34.8417V43.3444H34.0231C33.8525 43.3444 33.7331 43.4808 33.7331 43.6343V46.8578C33.7331 47.0284 33.8696 47.1478 34.0231 47.1478H34.313C33.7502 47.8129 33.4261 48.6657 33.4261 49.5355C33.4261 51.4628 34.9952 56.0337 37.1442 56.0337C39.2932 56.0337 40.8623 51.4798 40.8623 49.5355C40.8623 48.6316 40.5383 47.7959 39.9754 47.1478H40.2654C40.4359 47.1478 40.5553 47.0113 40.5553 46.8578V43.6343C40.5553 43.4638 40.4189 43.3444 40.2654 43.3444H39.4467V42.0482H54.1486V43.3444H53.3299C53.1593 43.3444 53.04 43.4808 53.04 43.6343V46.8578C53.04 47.0284 53.1764 47.1478 53.3299 47.1478H53.6198C53.057 47.8129 52.733 48.6657 52.733 49.5355C52.733 51.4628 54.3021 56.0337 56.4511 56.0337C58.6001 56.0337 60.1692 51.4798 60.1692 49.5355C60.1692 48.6316 59.8451 47.7959 59.2823 47.1478H59.5722C59.7428 47.1478 59.8622 47.0113 59.8622 46.8578V43.6343C59.8622 43.4638 59.7257 43.3444 59.5722 43.3444H58.7535V42.0482H69.5156C69.6861 42.0482 69.8055 41.9117 69.8055 41.7582C69.8055 41.6047 69.6691 41.4683 69.5156 41.4683H69.5326ZM20.9756 49.5696C20.9756 51.4116 19.4577 55.4708 17.8545 55.4708C16.2512 55.4708 14.7333 51.4116 14.7333 49.5696C14.7333 48.6486 15.1597 47.7617 15.859 47.1819H19.85C20.5663 47.7617 20.9756 48.6316 20.9756 49.5696ZM20.6857 46.5679H15.0403V43.9413H20.6857V46.5679ZM16.1489 40.7178H19.5771V43.3444H16.1489V40.7178ZM40.2824 49.5696C40.2824 51.4116 38.7816 55.4708 37.1613 55.4708C35.541 55.4708 34.0401 51.4116 34.0401 49.5696C34.0401 48.6486 34.4665 47.7617 35.1658 47.1819H39.1568C39.8731 47.7617 40.2824 48.6316 40.2824 49.5696ZM39.9754 46.5679H34.3301V43.9413H39.9754V46.5679ZM35.4557 40.7178H38.8839V43.3444H35.4557V40.7178ZM59.5893 49.5696C59.5893 51.4116 58.0713 55.4708 56.4681 55.4708C54.8649 55.4708 53.347 51.4116 53.347 49.5696C53.347 48.6486 53.7733 47.7617 54.4726 47.1819H58.4636C59.1799 47.7617 59.5893 48.6316 59.5893 49.5696ZM59.2823 46.5679H53.6369V43.9413H59.2823V46.5679ZM54.7455 40.7178H58.1737V43.3444H54.7455V40.7178Z" fill="white"/>
</svg>
