<svg width="75" height="74" viewBox="0 0 75 74" fill="none" xmlns="http://www.w3.org/2000/svg">
<path d="M44.9299 27.3249C45.4245 27.3249 45.8167 26.9326 45.8167 26.438C45.8167 25.9434 45.4245 25.5511 44.9299 25.5511C44.4352 25.5511 44.043 25.9434 44.043 26.438C44.043 26.9326 44.4352 27.3249 44.9299 27.3249Z" fill="white"/>
<path d="M36.965 29.201C37.4596 29.201 37.8519 28.8087 37.8519 28.3141C37.8519 27.8195 37.4596 27.4272 36.965 27.4272C36.4704 27.4272 36.0781 27.8195 36.0781 28.3141C36.0781 28.8087 36.4704 29.201 36.965 29.201Z" fill="white"/>
<path d="M28.8634 31.2476C29.3581 31.2476 29.7503 30.8554 29.7503 30.3608C29.7503 29.8662 29.3581 29.4739 28.8634 29.4739C28.3688 29.4739 27.9766 29.8662 27.9766 30.3608C27.9766 30.8554 28.3688 31.2476 28.8634 31.2476Z" fill="white"/>
<path d="M38.8244 34.2262C38.5345 34.2262 38.2616 34.2262 37.9887 34.2262C36.7266 34.2262 35.618 34.2262 34.6458 34.2262C30.6719 34.2433 28.4717 34.2603 28.0624 33.8339C28.0283 33.7998 28.0112 33.7657 27.9942 33.6463C28.2159 33.5269 28.4717 33.3905 28.7787 33.2711C30.8936 32.3842 34.3388 31.685 37.6817 31.0198C40.4276 30.474 43.0371 29.9453 44.8791 29.3313C49.0577 27.9327 51.1897 25.869 51.1897 23.2254C51.1897 19.3027 45.3567 16.1133 38.1934 16.1133C37.9034 16.1133 37.6305 16.1133 37.3577 16.1133H35.7033C35.4645 16.1133 35.2769 16.3009 35.2769 16.5397V21.878C35.2769 22.1168 35.4645 22.3044 35.7033 22.3044C37.0336 22.3044 38.2104 22.3044 39.2338 22.3044C43.003 22.2874 44.9132 22.2703 45.3396 22.6967C45.3737 22.7308 45.3908 22.7649 45.4249 22.8331C45.1861 22.9696 44.9303 23.089 44.6233 23.2084C43.31 23.703 39.5066 24.5558 35.8397 25.3915C32.8721 26.0737 30.0579 26.7047 28.5229 27.1482C24.3273 28.3762 22.1953 30.4228 22.1953 33.2711C22.1953 37.2621 27.9089 40.3833 35.1916 40.3833C35.4304 40.3833 35.6692 40.3833 35.9079 40.3833C35.9079 40.3833 35.9079 40.3833 35.942 40.3833H37.7499C38.7562 40.3833 39.6601 40.3833 40.4618 40.3833C43.7364 40.3662 45.5443 40.3491 45.9707 40.7755C46.0048 40.8096 46.0389 40.8608 46.056 40.9461C45.8172 41.0825 45.5614 41.2019 45.2544 41.3213C43.9411 41.8159 40.1548 42.6687 36.4878 43.5044C33.5031 44.1866 30.689 44.8177 29.154 45.2611C26.0328 46.1821 22.8264 47.6148 22.8264 51.3841C22.8264 55.1533 28.6593 58.4962 35.8227 58.4962C36.0614 58.4962 36.3002 58.4962 36.539 58.4962C36.539 58.4962 36.556 58.4962 36.5731 58.4962H38.381C38.6198 58.4962 38.8074 58.3086 38.8074 58.0698V52.7314C38.8074 52.4927 38.6198 52.3051 38.381 52.3051C31.9511 52.3051 28.6935 52.3051 28.6593 51.674C28.8811 51.5717 29.1028 51.4864 29.3757 51.4011C30.9789 50.9747 33.2302 50.429 35.618 49.8661C39.1996 49.0133 43.2589 48.0412 45.749 47.2737C49.8423 46.0286 51.8378 44.0843 51.8378 41.3213C51.8378 37.3985 46.0048 34.2092 38.8415 34.2092L38.8244 34.2262ZM45.9025 22.0998C45.2202 21.4175 43.7023 21.4346 39.1996 21.4517C38.2957 21.4517 37.2724 21.4517 36.1126 21.4517V16.9661H37.3406C42.6107 17.1366 46.8917 18.8592 46.8917 20.8206C46.8917 21.4005 46.6017 21.9122 46.073 22.3556C46.0218 22.2703 45.9707 22.168 45.9025 22.0827V22.0998ZM46.5506 40.1786C45.8854 39.5134 44.4016 39.5305 40.4447 39.5305C39.6431 39.5305 38.7392 39.5305 37.7329 39.5305H36.0103C30.7401 39.3429 26.4592 37.6203 26.4592 35.6589C26.4592 35.1984 26.5956 34.6867 27.2608 34.1409C27.312 34.2603 27.3802 34.3627 27.4655 34.4479C28.0283 35.0108 29.2733 35.0961 32.548 35.0961C33.1791 35.0961 33.8783 35.0961 34.6629 35.0961C35.6521 35.0961 36.7607 35.0961 38.0058 35.0961C43.2759 35.2666 47.5568 36.9892 47.5568 38.9506C47.5568 39.5305 47.2669 40.0421 46.7552 40.4685C46.7041 40.3662 46.6529 40.2468 46.5676 40.1786H46.5506ZM37.9546 53.1749V57.6605H36.6584C31.3882 57.4729 27.1073 55.7503 27.1073 53.7889C27.1073 53.1067 27.3802 52.5779 27.8748 52.1686C28.2841 53.1578 30.4161 53.1749 37.9546 53.1749Z" fill="white"/>
<path d="M46.2267 43.6641C45.7321 43.6641 45.3398 44.0563 45.3398 44.5509C45.3398 45.0456 45.7321 45.4378 46.2267 45.4378C46.7213 45.4378 47.1136 45.0456 47.1136 44.5509C47.1136 44.0563 46.7213 43.6641 46.2267 43.6641Z" fill="white"/>
<path d="M37.6134 45.7277C37.1188 45.7277 36.7266 46.12 36.7266 46.6146C36.7266 47.1092 37.1188 47.5015 37.6134 47.5015C38.1081 47.5015 38.5003 47.1092 38.5003 46.6146C38.5003 46.12 38.1081 45.7277 37.6134 45.7277Z" fill="white"/>
<path d="M28.8634 48.0303C28.3688 48.0303 27.9766 48.4226 27.9766 48.9172C27.9766 49.4118 28.3688 49.804 28.8634 49.804C29.3581 49.804 29.7503 49.4118 29.7503 48.9172C29.7503 48.4226 29.3581 48.0303 28.8634 48.0303Z" fill="white"/>
</svg>
