<svg width="75" height="74" viewBox="0 0 75 74" fill="none" xmlns="http://www.w3.org/2000/svg">
<path d="M4.92639 21.1831H15.569V22.2235H14.8868C14.648 22.2235 14.4604 22.4111 14.4604 22.6499V25.8734C14.4604 26.1121 14.648 26.2998 14.8868 26.2998H14.9209C14.4434 26.9479 14.1534 27.7495 14.1534 28.5681C14.1534 30.7001 15.876 32.4227 17.9909 32.4227C20.1058 32.4227 21.8454 30.7001 21.8454 28.5681C21.8454 27.7324 21.5726 26.9479 21.095 26.2998H21.1291C21.3679 26.2998 21.5555 26.1121 21.5555 25.8734V22.6499C21.5555 22.4111 21.3679 22.2235 21.1291 22.2235H20.4469V21.1831H34.8758V22.2235H34.1936C33.9549 22.2235 33.7672 22.4111 33.7672 22.6499V25.8734C33.7672 26.1121 33.9549 26.2998 34.1936 26.2998H34.2277C33.7502 26.9479 33.4602 27.7495 33.4602 28.5681C33.4602 30.7001 35.1828 32.4227 37.2977 32.4227C39.4126 32.4227 41.1523 30.7001 41.1523 28.5681C41.1523 27.7324 40.8794 26.9479 40.4018 26.2998H40.4359C40.6747 26.2998 40.8623 26.1121 40.8623 25.8734V22.6499C40.8623 22.4111 40.6747 22.2235 40.4359 22.2235H39.7537V21.1831H54.1827V22.2235H53.5005C53.2617 22.2235 53.0741 22.4111 53.0741 22.6499V25.8734C53.0741 26.1121 53.2617 26.2998 53.5005 26.2998H53.5346C53.057 26.9479 52.7671 27.7495 52.7671 28.5681C52.7671 30.7001 54.4897 32.4227 56.6046 32.4227C58.7194 32.4227 60.4591 30.7001 60.4591 28.5681C60.4591 27.7324 60.1862 26.9479 59.7087 26.2998H59.7428C59.9815 26.2998 60.1692 26.1121 60.1692 25.8734V22.6499C60.1692 22.4111 59.9815 22.2235 59.7428 22.2235H59.0606V21.1831H69.7032C69.942 21.1831 70.1296 20.9955 70.1296 20.7567C70.1296 20.5179 69.942 20.3303 69.7032 20.3303H59.0606V19.4264C59.0606 19.1876 58.8729 19 58.6342 19H54.6261C54.3873 19 54.1997 19.1876 54.1997 19.4264V20.3303H39.7708V19.4264C39.7708 19.1876 39.5832 19 39.3444 19H35.3193C35.0805 19 34.8929 19.1876 34.8929 19.4264V20.3303H20.464V19.4264C20.464 19.1876 20.2763 19 20.0376 19H16.0295C15.7907 19 15.6031 19.1876 15.6031 19.4264V20.3303H4.92639C4.68761 20.3303 4.5 20.5179 4.5 20.7567C4.5 20.9955 4.68761 21.1831 4.92639 21.1831ZM20.9927 28.5511C20.9927 30.2055 19.6453 31.5528 17.9909 31.5528C16.3365 31.5528 15.0062 30.2055 15.0062 28.5511C15.0062 27.6813 15.3985 26.8455 16.0636 26.2827H19.9523C20.6175 26.8455 20.9927 27.6642 20.9927 28.5511ZM20.6857 25.4299H15.2961V23.0592H20.6857V25.4299ZM40.2824 28.5511C40.2824 30.2055 38.9351 31.5528 37.2807 31.5528C35.6263 31.5528 34.296 30.2055 34.296 28.5511C34.296 27.6813 34.6882 26.8455 35.3363 26.2827H39.225C39.8902 26.8455 40.2654 27.6642 40.2654 28.5511H40.2824ZM39.9925 25.4299H34.603V23.0592H39.9925V25.4299ZM59.5893 28.5511C59.5893 30.2055 58.2419 31.5528 56.5875 31.5528C54.9331 31.5528 53.6028 30.2055 53.6028 28.5511C53.6028 27.6813 53.9951 26.8455 54.6602 26.2827H58.5489C59.2141 26.8455 59.5893 27.6642 59.5893 28.5511ZM59.2993 25.4299H53.9098V23.0592H59.2993V25.4299ZM55.0184 19.8357H58.1737V22.1894H55.0184V19.8357ZM35.7116 19.8357H38.8839V22.1894H35.7116V19.8357ZM16.4047 19.8357H19.56V22.1894H16.4047V19.8357Z" fill="white"/>
<path d="M69.6691 42.4684H59.0264V41.5644C59.0264 41.3257 58.8388 41.1381 58.6001 41.1381H54.592C54.3532 41.1381 54.1656 41.3257 54.1656 41.5644V42.4684H39.7367V41.5644C39.7367 41.3257 39.5491 41.1381 39.3103 41.1381H35.2852C35.0464 41.1381 34.8588 41.3257 34.8588 41.5644V42.4684H20.4298V41.5644C20.4298 41.3257 20.2422 41.1381 20.0035 41.1381H15.9954C15.7566 41.1381 15.569 41.3257 15.569 41.5644V42.4684H4.92639C4.68761 42.4684 4.5 42.656 4.5 42.8948C4.5 43.1336 4.68761 43.3212 4.92639 43.3212H15.569V44.3616H14.8868C14.648 44.3616 14.4604 44.5492 14.4604 44.7879V47.9944C14.4604 48.2331 14.648 48.4208 14.8868 48.4208H14.9209C14.4434 49.0689 14.1534 49.8705 14.1534 50.6891C14.1534 52.8211 15.876 54.5437 17.9909 54.5437C20.1058 54.5437 21.8454 52.8211 21.8454 50.6891C21.8454 49.8534 21.5726 49.0689 21.095 48.4208H21.1291C21.3679 48.4208 21.5555 48.2331 21.5555 47.9944V44.7879C21.5555 44.5492 21.3679 44.3616 21.1291 44.3616H20.4469V43.3212H34.8758V44.3616H34.1936C33.9549 44.3616 33.7672 44.5492 33.7672 44.7879V47.9944C33.7672 48.2331 33.9549 48.4208 34.1936 48.4208H34.2277C33.7502 49.0689 33.4602 49.8705 33.4602 50.6891C33.4602 52.8211 35.1828 54.5437 37.2977 54.5437C39.4126 54.5437 41.1523 52.8211 41.1523 50.6891C41.1523 49.8534 40.8794 49.0689 40.4018 48.4208H40.4359C40.6747 48.4208 40.8623 48.2331 40.8623 47.9944V44.7879C40.8623 44.5492 40.6747 44.3616 40.4359 44.3616H39.7537V43.3212H54.1827V44.3616H53.5005C53.2617 44.3616 53.0741 44.5492 53.0741 44.7879V47.9944C53.0741 48.2331 53.2617 48.4208 53.5005 48.4208H53.5346C53.057 49.0689 52.7671 49.8705 52.7671 50.6891C52.7671 52.8211 54.4897 54.5437 56.6046 54.5437C58.7194 54.5437 60.4591 52.8211 60.4591 50.6891C60.4591 49.8534 60.1862 49.0689 59.7087 48.4208H59.7428C59.9815 48.4208 60.1692 48.2331 60.1692 47.9944V44.7879C60.1692 44.5492 59.9815 44.3616 59.7428 44.3616H59.0606V43.3212H69.7032C69.942 43.3212 70.1296 43.1336 70.1296 42.8948C70.1296 42.656 69.942 42.4684 69.7032 42.4684H69.6691ZM20.9927 50.7062C20.9927 52.3606 19.6453 53.708 17.9909 53.708C16.3365 53.708 15.0062 52.3606 15.0062 50.7062C15.0062 49.8364 15.3985 49.0006 16.0636 48.4378H19.9523C20.6175 49.0006 20.9927 49.8193 20.9927 50.7062ZM20.6857 47.585H15.2961V45.2314H20.6857V47.585ZM16.4047 41.9908H19.56V44.3445H16.4047V41.9908ZM40.2824 50.7062C40.2824 52.3606 38.9351 53.708 37.2807 53.708C35.6263 53.708 34.296 52.3606 34.296 50.7062C34.296 49.8364 34.6882 49.0006 35.3363 48.4378H39.225C39.8902 49.0006 40.2654 49.8193 40.2654 50.7062H40.2824ZM39.9925 47.585H34.603V45.2314H39.9925V47.585ZM35.7116 41.9908H38.8839V44.3445H35.7116V41.9908ZM59.5893 50.7062C59.5893 52.3606 58.2419 53.708 56.5875 53.708C54.9331 53.708 53.6028 52.3606 53.6028 50.7062C53.6028 49.8364 53.9951 49.0006 54.6602 48.4378H58.5489C59.2141 49.0006 59.5893 49.8193 59.5893 50.7062ZM59.2993 47.585H53.9098V45.2314H59.2993V47.585ZM55.0184 41.9908H58.1737V44.3445H55.0184V41.9908Z" fill="white"/>
</svg>
