<svg width="75" height="74" viewBox="0 0 75 74" fill="none" xmlns="http://www.w3.org/2000/svg">
<path d="M39.6287 14.2809C38.776 14.2809 38.0938 14.9632 38.0938 15.8159C38.0938 16.6687 38.776 17.3509 39.6287 17.3509C40.4815 17.3509 41.1637 16.6687 41.1637 15.8159C41.1637 14.9632 40.4645 14.2809 39.6287 14.2809Z" fill="white"/>
<path d="M42.1211 41.0069V45.4413C42.2575 45.4072 42.394 45.3561 42.5475 45.3561C42.701 45.3561 42.8374 45.4072 42.9739 45.4413V41.0069C42.8374 41.041 42.701 41.0922 42.5475 41.0922C42.394 41.0922 42.2575 41.041 42.1211 41.0069Z" fill="white"/>
<path d="M51.8768 16.3447C51.6721 16.3447 51.4845 16.2935 51.2969 16.2253V20.7109C51.4333 20.6768 51.5698 20.6256 51.7233 20.6256C51.8768 20.6256 52.0132 20.6768 52.1497 20.7109V16.2935C52.0644 16.2935 51.9791 16.3447 51.8768 16.3447Z" fill="white"/>
<path d="M47.2186 51.2744C46.3658 51.2744 45.6836 51.9566 45.6836 52.8094C45.6836 53.6621 46.3829 54.3443 47.2186 54.3443C48.0543 54.3443 48.7536 53.6451 48.7536 52.8094C48.7536 51.9736 48.0714 51.2744 47.2186 51.2744Z" fill="white"/>
<path d="M40.9922 30.9442C40.9922 31.7969 41.6915 32.4792 42.5272 32.4792C43.3629 32.4792 44.0622 31.7969 44.0622 30.9442C44.0622 30.0914 43.38 29.4092 42.5272 29.4092C41.6744 29.4092 40.9922 30.0914 40.9922 30.9442Z" fill="white"/>
<path d="M53.238 47.1469C53.238 46.2942 52.5557 45.6119 51.703 45.6119C50.8502 45.6119 50.168 46.3112 50.168 47.1469C50.168 47.9827 50.8672 48.6819 51.703 48.6819C52.5387 48.6819 53.238 47.9997 53.238 47.1469Z" fill="white"/>
<path d="M51.8748 12.8312C51.0221 12.8312 50.3398 13.5135 50.3398 14.3662C50.3398 15.219 51.0391 15.9012 51.8748 15.9012C52.7106 15.9012 53.4098 15.219 53.4098 14.3662C53.4098 13.5135 52.7276 12.8312 51.8748 12.8312Z" fill="white"/>
<path d="M42.1211 32.8203V37.2547C42.2575 37.2206 42.394 37.1694 42.5475 37.1694C42.701 37.1694 42.8374 37.2206 42.9739 37.2547V32.8203C42.8374 32.8544 42.701 32.9055 42.5475 32.9055C42.394 32.9055 42.2575 32.8544 42.1211 32.8203Z" fill="white"/>
<path d="M40.9922 39.1308C40.9922 39.9836 41.6915 40.6658 42.5272 40.6658C43.3629 40.6658 44.0622 39.9836 44.0622 39.1308C44.0622 38.278 43.38 37.5958 42.5272 37.5958C41.6744 37.5958 40.9922 38.2951 40.9922 39.1308Z" fill="white"/>
<path d="M40.9922 22.7575C40.9922 23.6103 41.6915 24.2925 42.5272 24.2925C43.3629 24.2925 44.0622 23.6103 44.0622 22.7575C44.0622 21.9048 43.38 21.2225 42.5272 21.2225C41.6744 21.2225 40.9922 21.9048 40.9922 22.7575Z" fill="white"/>
<path d="M40.9585 17.2486C41.6577 17.999 42.1012 18.9883 42.1012 20.0798V20.8814C42.2376 20.8473 42.3741 20.7961 42.5276 20.7961C42.6811 20.7961 42.8175 20.8473 42.954 20.8814V20.0798C42.954 18.6813 42.357 17.4533 41.436 16.5493C41.3337 16.8222 41.1631 17.0439 40.9414 17.2486H40.9585Z" fill="white"/>
<path d="M44.0817 47.3175C44.0817 46.4647 43.3995 45.7825 42.5467 45.7825C41.6939 45.7825 41.0117 46.4647 41.0117 47.3175C41.0117 48.1702 41.711 48.8525 42.5467 48.8525C43.3824 48.8525 44.0817 48.1532 44.0817 47.3175Z" fill="white"/>
<path d="M51.703 21.052C50.8502 21.052 50.168 21.7342 50.168 22.587C50.168 23.4398 50.8672 24.122 51.703 24.122C52.5387 24.122 53.238 23.4398 53.238 22.587C53.238 21.7342 52.5557 21.052 51.703 21.052Z" fill="white"/>
<path d="M42.1211 24.6337V29.0681C42.2575 29.034 42.394 28.9828 42.5475 28.9828C42.701 28.9828 42.8374 29.034 42.9739 29.0681V24.6337C42.8374 24.6678 42.701 24.7189 42.5475 24.7189C42.394 24.7189 42.2575 24.6678 42.1211 24.6337Z" fill="white"/>
<path d="M60.8795 37.1012C60.726 37.1012 60.5896 37.05 60.4531 37.0159V41.4504C60.5896 41.4163 60.726 41.3651 60.8795 41.3651C61.033 41.3651 61.1695 41.4163 61.3059 41.4504V37.0159C61.1695 37.05 61.033 37.1012 60.8795 37.1012Z" fill="white"/>
<path d="M60.8787 25.4011C60.026 25.4011 59.3438 26.0833 59.3438 26.9361C59.3438 27.7889 60.043 28.4711 60.8787 28.4711C61.7145 28.4711 62.4137 27.7889 62.4137 26.9361C62.4137 26.0833 61.7315 25.4011 60.8787 25.4011Z" fill="white"/>
<path d="M59.3281 18.7495C59.3281 19.6022 60.0274 20.2845 60.8631 20.2845C61.6988 20.2845 62.3981 19.6022 62.3981 18.7495C62.3981 17.8967 61.7159 17.2145 60.8631 17.2145C60.0103 17.2145 59.3281 17.8967 59.3281 18.7495Z" fill="white"/>
<path d="M34.5452 17.7774C35.2445 16.737 36.3872 16.0377 37.7005 15.9524C37.7005 15.9012 37.6664 15.8671 37.6664 15.816C37.6664 15.5601 37.7175 15.3043 37.8199 15.0826C36.0802 15.1337 34.5964 16.0718 33.7266 17.4533C34.0336 17.5045 34.2894 17.6068 34.5282 17.7774H34.5452Z" fill="white"/>
<path d="M60.8795 20.7279C60.726 20.7279 60.5896 20.6768 60.4531 20.6426V25.0771C60.5896 25.043 60.726 24.9918 60.8795 24.9918C61.033 24.9918 61.1695 25.043 61.3059 25.0771V20.6426C61.1695 20.6768 61.033 20.7279 60.8795 20.7279Z" fill="white"/>
<path d="M58.4061 13.07C59.2589 13.07 59.9411 12.3878 59.9411 11.535C59.9411 10.6822 59.2589 10 58.4061 10C57.5533 10 56.8711 10.6822 56.8711 11.535C56.8711 12.3878 57.5704 13.07 58.4061 13.07Z" fill="white"/>
<path d="M60.8787 33.5878C60.026 33.5878 59.3438 34.27 59.3438 35.1228C59.3438 35.9755 60.043 36.6578 60.8787 36.6578C61.7145 36.6578 62.4137 35.9585 62.4137 35.1228C62.4137 34.287 61.7315 33.5878 60.8787 33.5878Z" fill="white"/>
<path d="M51.7037 24.5484C51.5502 24.5484 51.4138 24.4972 51.2773 24.4631V28.8975C51.4138 28.8634 51.5502 28.8122 51.7037 28.8122C51.8572 28.8122 51.9937 28.8634 52.1301 28.8975V24.4631C51.9937 24.4972 51.8572 24.5484 51.7037 24.5484Z" fill="white"/>
<path d="M60.8795 28.9146C60.726 28.9146 60.5896 28.8634 60.4531 28.8293V33.2637C60.5896 33.2296 60.726 33.1784 60.8795 33.1784C61.033 33.1784 61.1695 33.2296 61.3059 33.2637V28.8293C61.1695 28.8634 61.033 28.9146 60.8795 28.9146Z" fill="white"/>
<path d="M51.7037 32.735C51.5502 32.735 51.4138 32.6838 51.2773 32.6497V37.0842C51.4138 37.05 51.5502 36.9989 51.7037 36.9989C51.8572 36.9989 51.9937 37.05 52.1301 37.0842V32.6497C51.9937 32.6838 51.8572 32.735 51.7037 32.735Z" fill="white"/>
<path d="M62.4137 43.3265C62.4137 42.4737 61.7315 41.7915 60.8787 41.7915C60.026 41.7915 59.3438 42.4908 59.3438 43.3265C59.3438 44.1622 60.043 44.8615 60.8787 44.8615C61.7145 44.8615 62.4137 44.1793 62.4137 43.3265Z" fill="white"/>
<path d="M51.703 37.4253C50.8502 37.4253 50.168 38.1075 50.168 38.9603C50.168 39.8131 50.8672 40.4953 51.703 40.4953C52.5387 40.4953 53.238 39.796 53.238 38.9603C53.238 38.1246 52.5557 37.4253 51.703 37.4253Z" fill="white"/>
<path d="M51.703 29.2386C50.8502 29.2386 50.168 29.9209 50.168 30.7736C50.168 31.6264 50.8672 32.3086 51.703 32.3086C52.5387 32.3086 53.238 31.6264 53.238 30.7736C53.238 29.9209 52.5557 29.2386 51.703 29.2386Z" fill="white"/>
<path d="M51.7037 40.9216C51.5502 40.9216 51.4138 40.8705 51.2773 40.8364V45.2708C51.4138 45.2367 51.5502 45.1855 51.7037 45.1855C51.8572 45.1855 51.9937 45.2367 52.1301 45.2708V40.8364C51.9937 40.8705 51.8572 40.9216 51.7037 40.9216Z" fill="white"/>
<path d="M59.5664 13.07C60.1122 13.7693 60.4533 14.6391 60.4533 15.5771V16.8734C60.5897 16.8392 60.7262 16.7881 60.8797 16.7881C61.0332 16.7881 61.1696 16.8392 61.3061 16.8734V15.5771C61.3061 14.3662 60.8456 13.2747 60.1292 12.4219C59.9928 12.6777 59.7881 12.8994 59.5664 13.07Z" fill="white"/>
<path d="M15.0358 27.0896C14.8823 27.0896 14.7458 27.0384 14.6094 27.0043V32.2745C14.7458 32.2404 14.8823 32.1892 15.0358 32.1892C15.1893 32.1892 15.3257 32.2404 15.4622 32.2745V27.0043C15.3257 27.0384 15.1893 27.0896 15.0358 27.0896Z" fill="white"/>
<path d="M15.035 32.6156C14.1822 32.6156 13.5 33.2978 13.5 34.1506C13.5 35.0034 14.1993 35.6856 15.035 35.6856C15.8707 35.6856 16.57 35.0034 16.57 34.1506C16.57 33.2978 15.8878 32.6156 15.035 32.6156Z" fill="white"/>
<path d="M15.0358 44.1793C14.8823 44.1793 14.7458 44.1281 14.6094 44.094V49.637C14.7458 49.6029 14.8823 49.5518 15.0358 49.5518C15.1893 49.5518 15.3257 49.6029 15.4622 49.637V44.094C15.3257 44.1281 15.1893 44.1793 15.0358 44.1793Z" fill="white"/>
<path d="M15.0358 36.112C14.8823 36.112 14.7458 36.0608 14.6094 36.0267V40.3247C14.7458 40.2906 14.8823 40.2394 15.0358 40.2394C15.1893 40.2394 15.3257 40.2906 15.4622 40.3247V36.0267C15.3257 36.0608 15.1893 36.112 15.0358 36.112Z" fill="white"/>
<path d="M15.035 40.6658C14.1822 40.6658 13.5 41.3481 13.5 42.2008C13.5 43.0536 14.1993 43.7358 15.035 43.7358C15.8707 43.7358 16.57 43.0536 16.57 42.2008C16.57 41.3481 15.8878 40.6658 15.035 40.6658Z" fill="white"/>
<path d="M19.1952 21.5466C20.0479 21.5466 20.7301 20.8644 20.7301 20.0116C20.7301 19.1588 20.0309 18.4766 19.1952 18.4766C18.3594 18.4766 17.6602 19.1588 17.6602 20.0116C17.6602 20.8644 18.3424 21.5466 19.1952 21.5466Z" fill="white"/>
<path d="M13.5 25.1283C13.5 25.981 14.1993 26.6633 15.035 26.6633C15.8707 26.6633 16.57 25.981 16.57 25.1283C16.57 24.2755 15.8878 23.5933 15.035 23.5933C14.1822 23.5933 13.5 24.2755 13.5 25.1283Z" fill="white"/>
<path d="M15.035 53.0481C15.8878 53.0481 16.57 52.3488 16.57 51.5131C16.57 50.6774 15.8878 49.9781 15.035 49.9781C14.1822 49.9781 13.5 50.6603 13.5 51.5131C13.5 52.3659 14.1993 53.0481 15.035 53.0481Z" fill="white"/>
<path d="M15.0367 23.1498C15.2755 23.1498 15.4972 23.201 15.7019 23.2862C16.0259 22.3141 16.674 21.5125 17.5439 21.0008C17.3904 20.762 17.288 20.4891 17.271 20.1821C16.0941 20.8132 15.2073 21.8877 14.832 23.1839C14.9003 23.1839 14.9514 23.1498 15.0367 23.1498Z" fill="white"/>
<path d="M56.7032 10.614C56.5667 10.597 56.4303 10.5799 56.2939 10.5799C54.6906 10.5799 53.2921 11.3474 52.3711 12.5242C52.661 12.6095 52.9339 12.7289 53.1386 12.9336C53.9061 12.0296 55.0147 11.4497 56.2768 11.4497C56.328 11.4497 56.3962 11.4497 56.4474 11.4668C56.4474 11.1598 56.5497 10.8869 56.6861 10.6311L56.7032 10.614Z" fill="white"/>
<path d="M51.7044 49.1083C51.5168 49.1083 51.3462 49.0571 51.1586 49.0059C50.9028 50.3021 50.0841 51.3596 48.9414 51.9395C49.0608 52.1953 49.1461 52.4682 49.1631 52.7581C50.647 52.0759 51.7215 50.7115 52.0114 49.0571C51.9091 49.0741 51.8067 49.1253 51.7044 49.1253V49.1083Z" fill="white"/>
<path d="M60.8795 45.2879C60.726 45.2879 60.5896 45.2367 60.4531 45.2026V64.0489C60.4531 64.2877 60.6407 64.4753 60.8795 64.4753C61.1183 64.4753 61.3059 64.2877 61.3059 64.0489V45.2026C61.1695 45.2367 61.033 45.2879 60.8795 45.2879Z" fill="white"/>
<path d="M45.2582 52.8093C45.2582 52.5194 45.3264 52.2465 45.4458 51.9907C44.286 51.462 43.4162 50.4386 43.1092 49.1765C42.9215 49.2277 42.751 49.2959 42.5463 49.2959C42.444 49.2959 42.3587 49.2618 42.2734 49.2447C42.6145 50.8821 43.7402 52.2124 45.2582 52.8264V52.8093Z" fill="white"/>
<path d="M26.1022 46.857C25.2153 46.0895 24.6184 44.9808 24.6184 43.7187V43.4117C24.482 43.4459 24.3455 43.497 24.192 43.497C24.0385 43.497 23.9021 43.4459 23.7656 43.4117V43.7187C23.7656 45.3049 24.5331 46.7035 25.6929 47.6245C25.7782 47.3345 25.8976 47.0787 26.1022 46.857Z" fill="white"/>
<path d="M32.4329 45.6631C31.8359 46.7887 30.7444 47.5903 29.4482 47.795C29.4652 47.9144 29.5164 48.0338 29.5164 48.1532C29.5164 48.3237 29.4652 48.4943 29.4141 48.6478C31.1026 48.426 32.5352 47.3857 33.2516 45.9018C32.9446 45.9018 32.6717 45.7995 32.4158 45.646L32.4329 45.6631Z" fill="white"/>
<path d="M33.3709 26.0322C32.5182 26.0322 31.8359 26.7144 31.8359 27.5672C31.8359 28.4199 32.5352 29.1022 33.3709 29.1022C34.2067 29.1022 34.9059 28.4199 34.9059 27.5672C34.9059 26.7144 34.2237 26.0322 33.3709 26.0322Z" fill="white"/>
<path d="M31.8867 19.3635C31.8867 20.2163 32.586 20.8985 33.4217 20.8985C34.2574 20.8985 34.9567 20.2163 34.9567 19.3635C34.9567 18.5107 34.2745 17.8285 33.4217 17.8285C32.5689 17.8285 31.8867 18.5107 31.8867 19.3635Z" fill="white"/>
<path d="M21.1755 20.0116C21.1755 20.2504 21.1243 20.4892 21.0391 20.7109C22.2329 21.1543 23.171 22.1094 23.5633 23.3374C23.7679 23.2692 23.9897 23.201 24.2284 23.201C24.2967 23.201 24.3649 23.2351 24.4331 23.2351C23.9726 21.6148 22.7446 20.3527 21.1585 19.8411C21.1585 19.8922 21.1926 19.9434 21.1926 19.9946L21.1755 20.0116Z" fill="white"/>
<path d="M33.4385 21.3249C33.2679 21.3249 33.1144 21.2737 32.9609 21.2225V25.6911C33.0974 25.657 33.2338 25.6058 33.3873 25.6058C33.5408 25.6058 33.6773 25.657 33.8137 25.6911V21.2396C33.6943 21.2566 33.5749 21.3078 33.4385 21.3078V21.3249Z" fill="white"/>
<path d="M33.3678 37.7152C33.2143 37.7152 33.0779 37.664 32.9414 37.6299V42.0643C33.0779 42.0302 33.2143 41.9791 33.3678 41.9791C33.5213 41.9791 33.6577 42.0302 33.7942 42.0643V37.6129C33.6577 37.647 33.5213 37.6981 33.3678 37.6981V37.7152Z" fill="white"/>
<path d="M33.3709 34.2188C32.5182 34.2188 31.8359 34.9181 31.8359 35.7538C31.8359 36.5895 32.5352 37.2888 33.3709 37.2888C34.2067 37.2888 34.9059 36.6066 34.9059 35.7538C34.9059 34.901 34.2237 34.2188 33.3709 34.2188Z" fill="white"/>
<path d="M34.9059 43.9575C34.9059 43.1048 34.2067 42.4225 33.3709 42.4225C32.5352 42.4225 31.8359 43.1048 31.8359 43.9575C31.8359 44.8103 32.5182 45.4925 33.3709 45.4925C34.2237 45.4925 34.9059 44.7933 34.9059 43.9575Z" fill="white"/>
<path d="M33.3678 29.5286C33.2143 29.5286 33.0779 29.4774 32.9414 29.4433V33.8777C33.0779 33.8436 33.2143 33.7925 33.3678 33.7925C33.5213 33.7925 33.6577 33.8436 33.7942 33.8777V29.4433C33.6577 29.4774 33.5213 29.5286 33.3678 29.5286Z" fill="white"/>
<path d="M22.6602 25.1624C22.6602 26.0152 23.3594 26.6974 24.1952 26.6974C25.0309 26.6974 25.7301 26.0152 25.7301 25.1624C25.7301 24.3096 25.0479 23.6274 24.1952 23.6274C23.3424 23.6274 22.6602 24.3096 22.6602 25.1624Z" fill="white"/>
<path d="M25.7458 41.5356C25.7458 40.6828 25.0636 40.0006 24.2108 40.0006C23.358 40.0006 22.6758 40.6999 22.6758 41.5356C22.6758 42.3713 23.3751 43.0706 24.2108 43.0706C25.0465 43.0706 25.7458 42.3884 25.7458 41.5356Z" fill="white"/>
<path d="M24.6379 39.6595V35.2251C24.5015 35.2592 24.365 35.3104 24.2115 35.3104C24.058 35.3104 23.9216 35.2592 23.7852 35.2251V39.6595C23.9216 39.6254 24.058 39.5742 24.2115 39.5742C24.365 39.5742 24.5015 39.6254 24.6379 39.6595Z" fill="white"/>
<path d="M27.5702 49.6882C28.4229 49.6882 29.1051 49.0059 29.1051 48.1532C29.1051 47.3004 28.4059 46.6182 27.5702 46.6182C26.7344 46.6182 26.0352 47.3004 26.0352 48.1532C26.0352 49.0059 26.7174 49.6882 27.5702 49.6882Z" fill="white"/>
<path d="M25.7458 33.349C25.7458 32.4962 25.0636 31.814 24.2108 31.814C23.358 31.814 22.6758 32.4962 22.6758 33.349C22.6758 34.2018 23.3751 34.884 24.2108 34.884C25.0465 34.884 25.7458 34.2018 25.7458 33.349Z" fill="white"/>
<path d="M24.6379 31.4729V27.0385C24.5015 27.0726 24.365 27.1237 24.2115 27.1237C24.058 27.1237 23.9216 27.0726 23.7852 27.0385V31.4729C23.9216 31.4388 24.058 31.3876 24.2115 31.3876C24.365 31.3876 24.5015 31.4388 24.6379 31.4729Z" fill="white"/>
</svg>
