<svg width="75" height="74" viewBox="0 0 75 74" fill="none" xmlns="http://www.w3.org/2000/svg">
<path d="M44.7647 22.6193C44.7647 22.6193 44.7817 22.5852 44.7817 22.5681C44.7817 22.5511 44.7817 22.534 44.7647 22.517V16.6669C44.7476 15.6777 44.3553 14.7567 43.6561 14.0745C42.9568 13.3923 42.0358 13 41.0636 13H34.4461V13.0171H33.1669C32.1777 13.0171 31.2567 13.4093 30.5745 14.1086C29.8752 14.8079 29.5 15.7289 29.5 16.701L29.6194 50.2833C29.6194 50.7268 29.7899 51.1532 30.114 51.4772C30.4381 51.8013 30.8474 51.9718 31.2908 51.9718H32.7576L32.7747 59.5786C32.7747 59.698 32.8258 59.8003 32.894 59.8856C32.9793 59.9709 33.0817 60.005 33.201 60.005H41.2342C41.473 59.9879 41.6606 59.7832 41.6606 59.5445V51.9377H42.8715C43.9631 51.9377 44.8329 51.0508 44.8329 49.9593L44.7306 22.6022L44.7647 22.6193ZM33.6445 59.1522V51.9718L40.8078 51.9548V59.1351L33.6445 59.1522ZM43.8778 16.684V22.1417H43.025V14.6373C43.025 14.6373 43.025 14.6544 43.0421 14.6714C43.5708 15.2002 43.8778 15.9165 43.8778 16.6669V16.684ZM41.0466 13.8698C41.4218 13.8698 41.797 13.9381 42.1381 14.0916V22.1588H40.3302L40.2791 13.8698H41.0466ZM34.9237 22.1759L34.8725 13.8869H36.7315L36.7486 22.1588H34.9066L34.9237 22.1759ZM37.6184 22.1588V13.8698H39.4263L39.4775 22.1588H37.6184ZM33.1669 13.8869H34.0197L34.0709 22.1759H32.2118L32.1948 14.0745C32.5018 13.9551 32.8429 13.8869 33.184 13.8869H33.1669ZM31.1885 14.7226C31.1885 14.7226 31.2908 14.6373 31.342 14.6032V22.1929H30.3869V16.7352C30.3698 15.9847 30.6598 15.2684 31.1885 14.7397V14.7226ZM42.8886 51.0849L31.3079 51.119C31.0862 51.119 30.8815 51.0338 30.728 50.8803C30.5745 50.7268 30.4892 50.5221 30.4892 50.3004L30.3869 23.0457H34.4461C34.4461 23.0457 34.4802 23.0457 34.5143 23.0457C34.5484 23.0457 34.5484 23.0286 34.5825 23.0116L43.929 22.9775L44.0142 49.9422C44.0142 50.5562 43.5196 51.0508 42.9056 51.0508L42.8886 51.0849Z" fill="white"/>
<path d="M37.2281 25.3823C34.8232 25.3823 32.8789 27.3437 32.8789 29.7485C32.8789 30.9083 33.3394 31.9999 34.1581 32.8185C34.9767 33.6372 36.0683 34.0806 37.2281 34.0806C38.3878 34.0806 39.4794 33.6201 40.298 32.8015C41.1167 31.9828 41.5602 30.8742 41.5602 29.7144C41.5602 28.5546 41.0997 27.4631 40.281 26.6444C39.4623 25.8258 38.3708 25.3823 37.211 25.3823H37.2281ZM39.7182 32.2045C39.053 32.8697 38.1832 33.2279 37.2451 33.2279C36.3071 33.2279 35.4372 32.8697 34.7721 32.2045C34.1069 31.5394 33.7487 30.6695 33.7317 29.7315C33.7317 27.8042 35.3008 26.218 37.2281 26.218C38.1661 26.218 39.0359 26.5762 39.7011 27.2414C40.3663 27.9065 40.7244 28.7764 40.7415 29.7144C40.7415 30.6525 40.3833 31.5223 39.7182 32.1875V32.2045Z" fill="white"/>
<path d="M38.0132 35.5645C37.8427 35.3939 37.6039 35.2916 37.348 35.2916H37.024C36.7682 35.2916 36.5464 35.3939 36.3588 35.5645C36.1712 35.735 36.0859 35.9738 36.0859 36.2296V37.884C36.0859 38.3957 36.5123 38.8221 37.024 38.8221H37.348C37.6039 38.8221 37.8256 38.7197 38.0132 38.5492C38.2008 38.3786 38.2861 38.1398 38.2861 37.884V36.2296C38.2861 35.9738 38.1838 35.735 37.9962 35.5645H38.0132ZM37.4333 37.9522C37.4333 37.9522 37.3992 37.9693 37.3822 37.9693H37.0581C37.0581 37.9693 36.9728 37.9352 36.9728 37.884V36.2296L37.0581 36.1443H37.3822L37.4674 36.2296V37.9522H37.4333Z" fill="white"/>
<path d="M36.3416 54.3084H34.4655C34.3461 54.3084 34.2437 54.3596 34.1585 54.4449C34.0732 54.5301 34.0391 54.6325 34.0391 54.7519V56.1845C34.0391 56.4233 34.2437 56.6109 34.4655 56.6109H36.3416C36.4609 56.6109 36.5633 56.5597 36.6486 56.4745C36.7338 56.3892 36.7679 56.2868 36.7679 56.1675V54.7348C36.7679 54.496 36.5803 54.3084 36.3416 54.3084ZM34.8918 55.7411V55.1612H35.9152V55.7411H34.8918Z" fill="white"/>
<path d="M40.3829 54.4278C40.3829 54.4278 40.1612 54.3255 40.0759 54.3084H38.1998C37.961 54.3084 37.7734 54.5131 37.7734 54.7348V56.1675C37.7734 56.2868 37.8246 56.3892 37.9099 56.4745C37.9952 56.5597 38.0975 56.5938 38.2169 56.5938H40.093C40.2124 56.5938 40.3147 56.5427 40.4 56.4574C40.4853 56.3721 40.5194 56.2698 40.5194 56.1504V54.7177C40.5194 54.5984 40.4682 54.496 40.3829 54.4107V54.4278ZM38.6433 55.7411V55.1612H39.6666V55.7411H38.6433Z" fill="white"/>
</svg>
