<svg width="75" height="74" viewBox="0 0 75 74" fill="none" xmlns="http://www.w3.org/2000/svg">
<path d="M47.3516 35.9289V39.1353C47.488 39.1012 47.6245 39.0501 47.778 39.0501C47.9314 39.0501 48.0679 39.1012 48.2043 39.1353V35.9289C48.0679 35.963 47.9314 36.0142 47.778 36.0142C47.6245 36.0142 47.488 35.963 47.3516 35.9289Z" fill="white"/>
<path d="M47.3516 29.0043V32.2108C47.488 32.1767 47.6245 32.1255 47.778 32.1255C47.9314 32.1255 48.0679 32.1767 48.2043 32.2108V29.0043C48.0679 29.0384 47.9314 29.0896 47.778 29.0896C47.6245 29.0896 47.488 29.0384 47.3516 29.0043Z" fill="white"/>
<path d="M47.3516 42.8535V46.0599C47.488 46.0258 47.6245 45.9746 47.778 45.9746C47.9314 45.9746 48.0679 46.0258 48.2043 46.0599V42.8535C48.0679 42.8876 47.9314 42.9387 47.778 42.9387C47.6245 42.9387 47.488 42.8876 47.3516 42.8535Z" fill="white"/>
<path d="M46.2578 41.0114C46.2578 41.8471 46.94 42.5294 47.7758 42.5294C48.6115 42.5294 49.2937 41.8471 49.2937 41.0114C49.2937 40.1757 48.6115 39.4935 47.7758 39.4935C46.94 39.4935 46.2578 40.1757 46.2578 41.0114Z" fill="white"/>
<path d="M47.3516 22.0798V25.2863C47.488 25.2522 47.6245 25.201 47.778 25.201C47.9314 25.201 48.0679 25.2522 48.2043 25.2863V22.0798C48.0679 22.1139 47.9314 22.1651 47.778 22.1651C47.6245 22.1651 47.488 22.1139 47.3516 22.0798Z" fill="white"/>
<path d="M46.2578 34.0698C46.2578 34.9055 46.94 35.5878 47.7758 35.5878C48.6115 35.5878 49.2937 34.9055 49.2937 34.0698C49.2937 33.2341 48.6115 32.5519 47.7758 32.5519C46.94 32.5519 46.2578 33.2341 46.2578 34.0698Z" fill="white"/>
<path d="M46.2578 47.936C46.2578 48.7717 46.94 49.4539 47.7758 49.4539C48.6115 49.4539 49.2937 48.7717 49.2937 47.936C49.2937 47.1003 48.6115 46.418 47.7758 46.418C46.94 46.418 46.2578 47.1003 46.2578 47.936Z" fill="white"/>
<path d="M46.2578 20.2208C46.2578 21.0565 46.94 21.7387 47.7758 21.7387C48.6115 21.7387 49.2937 21.0565 49.2937 20.2208C49.2937 19.385 48.6115 18.7028 47.7758 18.7028C46.94 18.7028 46.2578 19.385 46.2578 20.2208Z" fill="white"/>
<path d="M37.442 39.4765C37.2885 39.4765 37.1521 39.4253 37.0156 39.3912V42.6317C37.1862 42.5806 37.3738 42.5294 37.5614 42.5294C37.6637 42.5294 37.7661 42.5806 37.8684 42.5976V39.4082C37.732 39.4423 37.5955 39.4935 37.442 39.4935V39.4765Z" fill="white"/>
<path d="M37.4398 39.05C38.2782 39.05 38.9578 38.3704 38.9578 37.5321C38.9578 36.6938 38.2782 36.0142 37.4398 36.0142C36.6015 36.0142 35.9219 36.6938 35.9219 37.5321C35.9219 38.3704 36.6015 39.05 37.4398 39.05Z" fill="white"/>
<path d="M46.2578 27.1453C46.2578 27.981 46.94 28.6633 47.7758 28.6633C48.6115 28.6633 49.2937 27.981 49.2937 27.1453C49.2937 26.3096 48.6115 25.6274 47.7758 25.6274C46.94 25.6274 46.2578 26.3096 46.2578 27.1453Z" fill="white"/>
<path d="M37.5609 42.9387C36.7252 42.9387 36.043 43.6209 36.043 44.4567C36.043 45.2924 36.7252 45.9746 37.5609 45.9746C38.3966 45.9746 39.0788 45.2924 39.0788 44.4567C39.0788 43.6209 38.3966 42.9387 37.5609 42.9387Z" fill="white"/>
<path d="M36.043 30.6076C36.043 31.4433 36.7252 32.1255 37.5609 32.1255C38.3966 32.1255 39.0788 31.4433 39.0788 30.6076C39.0788 29.7719 38.3966 29.0897 37.5609 29.0897C36.7252 29.0897 36.043 29.7719 36.043 30.6076Z" fill="white"/>
<path d="M49.2937 55.1675C49.2937 54.3318 48.6115 53.6495 47.7758 53.6495C46.94 53.6495 46.2578 54.3318 46.2578 55.1675C46.2578 56.0032 46.94 56.6854 47.7758 56.6854C48.6115 56.6854 49.2937 56.0032 49.2937 55.1675Z" fill="white"/>
<path d="M36.043 23.683C36.043 24.5188 36.7252 25.201 37.5609 25.201C38.3966 25.201 39.0788 24.5188 39.0788 23.683C39.0788 22.8473 38.3966 22.1651 37.5609 22.1651C36.7252 22.1651 36.043 22.8473 36.043 23.683Z" fill="white"/>
<path d="M56.6133 51.3982C56.6133 52.234 57.2955 52.9162 58.1312 52.9162C58.9669 52.9162 59.6492 52.234 59.6492 51.3982C59.6492 50.5625 58.9669 49.8803 58.1312 49.8803C57.2955 49.8803 56.6133 50.5625 56.6133 51.3982Z" fill="white"/>
<path d="M56.6133 37.5321C56.6133 38.3678 57.2955 39.05 58.1312 39.05C58.9669 39.05 59.6492 38.3678 59.6492 37.5321C59.6492 36.6964 58.9669 36.0142 58.1312 36.0142C57.2955 36.0142 56.6133 36.6964 56.6133 37.5321Z" fill="white"/>
<path d="M56.6133 44.4737C56.6133 45.3094 57.2955 45.9916 58.1312 45.9916C58.9669 45.9916 59.6492 45.3094 59.6492 44.4737C59.6492 43.638 58.9669 42.9557 58.1312 42.9557C57.2955 42.9557 56.6133 43.638 56.6133 44.4737Z" fill="white"/>
<path d="M56.6133 30.6076C56.6133 31.4433 57.2955 32.1255 58.1312 32.1255C58.9669 32.1255 59.6492 31.4433 59.6492 30.6076C59.6492 29.7719 58.9669 29.0897 58.1312 29.0897C57.2955 29.0897 56.6133 29.7719 56.6133 30.6076Z" fill="white"/>
<path d="M57.7031 53.2573V56.4637C57.8396 56.4296 57.976 56.3784 58.1295 56.3784C58.283 56.3784 58.4195 56.4296 58.5559 56.4637V53.2573C58.4195 53.2914 58.283 53.3425 58.1295 53.3425C57.976 53.3425 57.8396 53.2914 57.7031 53.2573Z" fill="white"/>
<path d="M47.3516 49.778V53.3084C47.488 53.2743 47.6245 53.2232 47.778 53.2232C47.9314 53.2232 48.0679 53.2743 48.2043 53.3084V49.778C48.0679 49.8121 47.9314 49.8632 47.778 49.8632C47.6245 49.8632 47.488 49.8121 47.3516 49.778Z" fill="white"/>
<path d="M12.028 12.8357H16.5647V14.9165C16.7012 14.8824 16.8376 14.8312 16.9911 14.8312C17.1446 14.8312 17.281 14.8824 17.4175 14.9165V12.8357H26.9003V18.3788C27.0368 18.3446 27.1732 18.2935 27.3267 18.2935C27.4802 18.2935 27.6167 18.3446 27.7531 18.3788V12.8357H36.9972V14.9335C37.1678 14.8824 37.3554 14.8312 37.543 14.8312C37.6453 14.8312 37.7477 14.8824 37.85 14.8994V12.8528H47.3328V18.3958C47.4693 18.3617 47.6057 18.3105 47.7592 18.3105C47.9127 18.3105 48.0492 18.3617 48.1856 18.3958V12.8528H57.6685V14.9335C57.8049 14.8994 57.9414 14.8483 58.0949 14.8483C58.2484 14.8483 58.3848 14.8994 58.5212 14.9335V12.8528H63.058C63.2968 12.8528 63.4844 12.6652 63.4844 12.4264C63.4844 12.1876 63.2968 12 63.058 12H12.028C11.7892 12 11.6016 12.1876 11.6016 12.4264C11.6016 12.6652 11.7892 12.8528 12.028 12.8528V12.8357Z" fill="white"/>
<path d="M37.4398 52.9162C38.2782 52.9162 38.9578 52.2366 38.9578 51.3982C38.9578 50.5599 38.2782 49.8803 37.4398 49.8803C36.6015 49.8803 35.9219 50.5599 35.9219 51.3982C35.9219 52.2366 36.6015 52.9162 37.4398 52.9162Z" fill="white"/>
<path d="M56.6133 23.683C56.6133 24.5188 57.2955 25.201 58.1312 25.201C58.9669 25.201 59.6492 24.5188 59.6492 23.683C59.6492 22.8473 58.9669 22.1651 58.1312 22.1651C57.2955 22.1651 56.6133 22.8473 56.6133 23.683Z" fill="white"/>
<path d="M57.7031 18.6176V21.824C57.8396 21.7899 57.976 21.7387 58.1295 21.7387C58.283 21.7387 58.4195 21.7899 58.5559 21.824V18.6176C58.4195 18.6517 58.283 18.7028 58.1295 18.7028C57.976 18.7028 57.8396 18.6517 57.7031 18.6176Z" fill="white"/>
<path d="M56.6133 16.7585C56.6133 17.5942 57.2955 18.2764 58.1312 18.2764C58.9669 18.2764 59.6492 17.5942 59.6492 16.7585C59.6492 15.9228 58.9669 15.2405 58.1312 15.2405C57.2955 15.2405 56.6133 15.9228 56.6133 16.7585Z" fill="white"/>
<path d="M59.6492 58.3228C59.6492 57.487 58.9669 56.8048 58.1312 56.8048C57.2955 56.8048 56.6133 57.487 56.6133 58.3228C56.6133 59.1585 57.2955 59.8407 58.1312 59.8407C58.9669 59.8407 59.6492 59.1585 59.6492 58.3228Z" fill="white"/>
<path d="M57.7031 25.5421V28.7485C57.8396 28.7144 57.976 28.6633 58.1295 28.6633C58.283 28.6633 58.4195 28.7144 58.5559 28.7485V25.5421C58.4195 25.5762 58.283 25.6274 58.1295 25.6274C57.976 25.6274 57.8396 25.5762 57.7031 25.5421Z" fill="white"/>
<path d="M57.7031 46.3157V49.5221C57.8396 49.488 57.976 49.4368 58.1295 49.4368C58.283 49.4368 58.4195 49.488 58.5559 49.5221V46.3157C58.4195 46.3498 58.283 46.401 58.1295 46.401C57.976 46.401 57.8396 46.3498 57.7031 46.3157Z" fill="white"/>
<path d="M57.7031 39.3912V42.5976C57.8396 42.5635 57.976 42.5123 58.1295 42.5123C58.283 42.5123 58.4195 42.5635 58.5559 42.5976V39.3912C58.4195 39.4253 58.283 39.4765 58.1295 39.4765C57.976 39.4765 57.8396 39.4253 57.7031 39.3912Z" fill="white"/>
<path d="M57.7031 32.4666V35.673C57.8396 35.6389 57.976 35.5878 58.1295 35.5878C58.283 35.5878 58.4195 35.6389 58.5559 35.673V32.4666C58.4195 32.5007 58.283 32.5519 58.1295 32.5519C57.976 32.5519 57.8396 32.5007 57.7031 32.4666Z" fill="white"/>
<path d="M26.918 42.8535V46.0599C27.0544 46.0258 27.1909 45.9746 27.3444 45.9746C27.4979 45.9746 27.6343 46.0258 27.7707 46.0599V42.8535C27.6343 42.8876 27.4979 42.9387 27.3444 42.9387C27.1909 42.9387 27.0544 42.8876 26.918 42.8535Z" fill="white"/>
<path d="M15.4727 44.4737C15.4727 45.3094 16.1549 45.9916 16.9906 45.9916C17.8263 45.9916 18.5085 45.3094 18.5085 44.4737C18.5085 43.638 17.8263 42.9557 16.9906 42.9557C16.1549 42.9557 15.4727 43.638 15.4727 44.4737Z" fill="white"/>
<path d="M15.4727 37.5321C15.4727 38.3678 16.1549 39.05 16.9906 39.05C17.8263 39.05 18.5085 38.3678 18.5085 37.5321C18.5085 36.6964 17.8263 36.0142 16.9906 36.0142C16.1549 36.0142 15.4727 36.6964 15.4727 37.5321Z" fill="white"/>
<path d="M15.4727 51.3982C15.4727 52.234 16.1549 52.9162 16.9906 52.9162C17.8263 52.9162 18.5085 52.234 18.5085 51.3982C18.5085 50.5625 17.8263 49.8803 16.9906 49.8803C16.1549 49.8803 15.4727 50.5625 15.4727 51.3982Z" fill="white"/>
<path d="M15.4727 30.6076C15.4727 31.4433 16.1549 32.1255 16.9906 32.1255C17.8263 32.1255 18.5085 31.4433 18.5085 30.6076C18.5085 29.7719 17.8263 29.0897 16.9906 29.0897C16.1549 29.0897 15.4727 29.7719 15.4727 30.6076Z" fill="white"/>
<path d="M16.5664 46.3157V49.5221C16.7029 49.488 16.8393 49.4368 16.9928 49.4368C17.1463 49.4368 17.2827 49.488 17.4192 49.5221V46.3157C17.2827 46.3498 17.1463 46.401 16.9928 46.401C16.8393 46.401 16.7029 46.3498 16.5664 46.3157Z" fill="white"/>
<path d="M16.5664 53.2573V56.4637C16.7029 56.4296 16.8393 56.3784 16.9928 56.3784C17.1463 56.3784 17.2827 56.4296 17.4192 56.4637V53.2573C17.2827 53.2914 17.1463 53.3425 16.9928 53.3425C16.8393 53.3425 16.7029 53.2914 16.5664 53.2573Z" fill="white"/>
<path d="M15.4727 23.683C15.4727 24.5188 16.1549 25.201 16.9906 25.201C17.8263 25.201 18.5085 24.5188 18.5085 23.683C18.5085 22.8473 17.8263 22.1651 16.9906 22.1651C16.1549 22.1651 15.4727 22.8473 15.4727 23.683Z" fill="white"/>
<path d="M16.5664 18.6176V21.824C16.7029 21.7899 16.8393 21.7387 16.9928 21.7387C17.1463 21.7387 17.2827 21.7899 17.4192 21.824V18.6176C17.2827 18.6517 17.1463 18.7028 16.9928 18.7028C16.8393 18.7028 16.7029 18.6517 16.5664 18.6176Z" fill="white"/>
<path d="M15.4727 16.7585C15.4727 17.5942 16.1549 18.2764 16.9906 18.2764C17.8263 18.2764 18.5085 17.5942 18.5085 16.7585C18.5085 15.9228 17.8263 15.2405 16.9906 15.2405C16.1549 15.2405 15.4727 15.9228 15.4727 16.7585Z" fill="white"/>
<path d="M18.5085 58.3228C18.5085 57.487 17.8263 56.8048 16.9906 56.8048C16.1549 56.8048 15.4727 57.487 15.4727 58.3228C15.4727 59.1585 16.1549 59.8407 16.9906 59.8407C17.8263 59.8407 18.5085 59.1585 18.5085 58.3228Z" fill="white"/>
<path d="M62.9735 62.0067H58.5391V60.1648C58.4026 60.1989 58.2662 60.25 58.1127 60.25C57.9592 60.25 57.8228 60.1989 57.6863 60.1648V62.0067H48.2034V57.0265C48.067 57.0607 47.9306 57.1118 47.7771 57.1118C47.6236 57.1118 47.4871 57.0607 47.3507 57.0265V62.0067H37.8678V60.1989C37.7655 60.2159 37.6631 60.2671 37.5608 60.2671C37.3732 60.2671 37.1856 60.2159 37.015 60.1648V62.0238H27.771V56.7195C27.6345 56.7537 27.4981 56.8048 27.3446 56.8048C27.1911 56.8048 27.0546 56.7537 26.9182 56.7195V62.0238H17.4353V60.1818C17.2989 60.2159 17.1624 60.2671 17.0089 60.2671C16.8554 60.2671 16.719 60.2159 16.5825 60.1818V62.0238H11.9264C11.6876 62.0238 11.5 62.2114 11.5 62.4502C11.5 62.689 11.6876 62.8766 11.9264 62.8766H62.9906C63.2293 62.8766 63.417 62.689 63.417 62.4502C63.417 62.2114 63.2293 62.0238 62.9906 62.0238L62.9735 62.0067Z" fill="white"/>
<path d="M28.8445 54.8605C28.8445 54.0247 28.1623 53.3425 27.3265 53.3425C26.4908 53.3425 25.8086 54.0247 25.8086 54.8605C25.8086 55.6962 26.4908 56.3784 27.3265 56.3784C28.1623 56.3784 28.8445 55.6962 28.8445 54.8605Z" fill="white"/>
<path d="M16.5664 32.4666V35.673C16.7029 35.6389 16.8393 35.5878 16.9928 35.5878C17.1463 35.5878 17.2827 35.6389 17.4192 35.673V32.4666C17.2827 32.5007 17.1463 32.5519 16.9928 32.5519C16.8393 32.5519 16.7029 32.5007 16.5664 32.4666Z" fill="white"/>
<path d="M16.5664 39.3912V42.5976C16.7029 42.5635 16.8393 42.5123 16.9928 42.5123C17.1463 42.5123 17.2827 42.5635 17.4192 42.5976V39.3912C17.2827 39.4253 17.1463 39.4765 16.9928 39.4765C16.8393 39.4765 16.7029 39.4253 16.5664 39.3912Z" fill="white"/>
<path d="M16.5664 25.5421V28.7485C16.7029 28.7144 16.8393 28.6633 16.9928 28.6633C17.1463 28.6633 17.2827 28.7144 17.4192 28.7485V25.5421C17.2827 25.5762 17.1463 25.6274 16.9928 25.6274C16.8393 25.6274 16.7029 25.5762 16.5664 25.5421Z" fill="white"/>
<path d="M26.918 49.778V52.9844C27.0544 52.9503 27.1909 52.8991 27.3444 52.8991C27.4979 52.8991 27.6343 52.9503 27.7707 52.9844V49.778C27.6343 49.8121 27.4979 49.8632 27.3444 49.8632C27.1909 49.8632 27.0544 49.8121 26.918 49.778Z" fill="white"/>
<path d="M25.8086 20.2208C25.8086 21.0565 26.4908 21.7387 27.3265 21.7387C28.1623 21.7387 28.8445 21.0565 28.8445 20.2208C28.8445 19.385 28.1623 18.7028 27.3265 18.7028C26.4908 18.7028 25.8086 19.385 25.8086 20.2208Z" fill="white"/>
<path d="M37.8684 56.4296V53.2402C37.732 53.2743 37.5955 53.3255 37.442 53.3255C37.2885 53.3255 37.1521 53.2743 37.0156 53.2402V56.4808C37.1862 56.4296 37.3738 56.3784 37.5614 56.3784C37.6637 56.3784 37.7661 56.4296 37.8684 56.4467V56.4296Z" fill="white"/>
<path d="M39.0788 58.3228C39.0788 57.487 38.3966 56.8048 37.5609 56.8048C36.7252 56.8048 36.043 57.487 36.043 58.3228C36.043 59.1585 36.7252 59.8407 37.5609 59.8407C38.3966 59.8407 39.0788 59.1585 39.0788 58.3228Z" fill="white"/>
<path d="M36.043 16.7585C36.043 17.5942 36.7252 18.2764 37.5609 18.2764C38.3966 18.2764 39.0788 17.5942 39.0788 16.7585C39.0788 15.9228 38.3966 15.2405 37.5609 15.2405C36.7252 15.2405 36.043 15.9228 36.043 16.7585Z" fill="white"/>
<path d="M37.0156 46.2986V49.5392C37.1521 49.5051 37.2885 49.4539 37.442 49.4539C37.5955 49.4539 37.732 49.5051 37.8684 49.5392V46.3498C37.7661 46.3669 37.6637 46.418 37.5614 46.418C37.3738 46.418 37.1862 46.3669 37.0156 46.3157V46.2986Z" fill="white"/>
<path d="M37.0156 32.4496V35.6901C37.1521 35.656 37.2885 35.6049 37.442 35.6049C37.5955 35.6049 37.732 35.656 37.8684 35.6901V32.5007C37.7661 32.5178 37.6637 32.569 37.5614 32.569C37.3738 32.569 37.1862 32.5178 37.0156 32.4666V32.4496Z" fill="white"/>
<path d="M37.0156 25.525V28.7826C37.1862 28.7315 37.3738 28.6803 37.5614 28.6803C37.6637 28.6803 37.7661 28.7315 37.8684 28.7485V25.5932C37.7661 25.6103 37.6637 25.6615 37.5614 25.6615C37.3738 25.6615 37.1862 25.6103 37.0156 25.5591V25.525Z" fill="white"/>
<path d="M37.0156 18.6005V21.8581C37.1862 21.807 37.3738 21.7558 37.5614 21.7558C37.6637 21.7558 37.7661 21.807 37.8684 21.824V18.6687C37.7661 18.6858 37.6637 18.737 37.5614 18.737C37.3738 18.737 37.1862 18.6858 37.0156 18.6346V18.6005Z" fill="white"/>
<path d="M26.918 29.0043V32.2108C27.0544 32.1767 27.1909 32.1255 27.3444 32.1255C27.4979 32.1255 27.6343 32.1767 27.7707 32.2108V29.0043C27.6343 29.0384 27.4979 29.0896 27.3444 29.0896C27.1909 29.0896 27.0544 29.0384 26.918 29.0043Z" fill="white"/>
<path d="M26.918 22.0798V25.2863C27.0544 25.2522 27.1909 25.201 27.3444 25.201C27.4979 25.201 27.6343 25.2522 27.7707 25.2863V22.0798C27.6343 22.1139 27.4979 22.1651 27.3444 22.1651C27.1909 22.1651 27.0544 22.1139 26.918 22.0798Z" fill="white"/>
<path d="M26.918 35.9289V39.1353C27.0544 39.1012 27.1909 39.0501 27.3444 39.0501C27.4979 39.0501 27.6343 39.1012 27.7707 39.1353V35.9289C27.6343 35.963 27.4979 36.0142 27.3444 36.0142C27.1909 36.0142 27.0544 35.963 26.918 35.9289Z" fill="white"/>
<path d="M25.8086 34.0698C25.8086 34.9055 26.4908 35.5878 27.3265 35.5878C28.1623 35.5878 28.8445 34.9055 28.8445 34.0698C28.8445 33.2341 28.1623 32.5519 27.3265 32.5519C26.4908 32.5519 25.8086 33.2341 25.8086 34.0698Z" fill="white"/>
<path d="M25.8086 27.1453C25.8086 27.981 26.4908 28.6633 27.3265 28.6633C28.1623 28.6633 28.8445 27.981 28.8445 27.1453C28.8445 26.3096 28.1623 25.6274 27.3265 25.6274C26.4908 25.6274 25.8086 26.3096 25.8086 27.1453Z" fill="white"/>
<path d="M25.8086 47.936C25.8086 48.7717 26.4908 49.4539 27.3265 49.4539C28.1623 49.4539 28.8445 48.7717 28.8445 47.936C28.8445 47.1003 28.1623 46.418 27.3265 46.418C26.4908 46.418 25.8086 47.1003 25.8086 47.936Z" fill="white"/>
<path d="M25.8086 41.0114C25.8086 41.8471 26.4908 42.5294 27.3265 42.5294C28.1623 42.5294 28.8445 41.8471 28.8445 41.0114C28.8445 40.1757 28.1623 39.4935 27.3265 39.4935C26.4908 39.4935 25.8086 40.1757 25.8086 41.0114Z" fill="white"/>
</svg>
