<svg width="75" height="74" viewBox="0 0 75 74" fill="none" xmlns="http://www.w3.org/2000/svg">
<path d="M28.1497 38.5787V31.9441C27.8938 32.0805 27.6039 32.1658 27.2969 32.1658V38.7833C27.5527 38.664 27.8256 38.5787 28.1326 38.5787H28.1497Z" fill="white"/>
<path d="M28.9842 21.6255C29.832 21.6255 30.5192 20.9383 30.5192 20.0905C30.5192 19.2428 29.832 18.5555 28.9842 18.5555C28.1365 18.5555 27.4492 19.2428 27.4492 20.0905C27.4492 20.9383 28.1365 21.6255 28.9842 21.6255Z" fill="white"/>
<path d="M25.7461 30.1875C25.7461 31.0402 26.4283 31.7225 27.2811 31.7225C28.1339 31.7225 28.8161 31.0402 28.8161 30.1875C28.8161 29.3347 28.1339 28.6525 27.2811 28.6525C26.4283 28.6525 25.7461 29.3347 25.7461 30.1875Z" fill="white"/>
<path d="M28.8161 53.0418C28.8161 52.1891 28.1339 51.5068 27.2811 51.5068C26.4283 51.5068 25.7461 52.1891 25.7461 53.0418C25.7461 53.8946 26.4283 54.5768 27.2811 54.5768C28.1339 54.5768 28.8161 53.8776 28.8161 53.0418Z" fill="white"/>
<path d="M28.1497 60.2563V54.7985C27.8938 54.935 27.6039 55.0202 27.2969 55.0202V60.5462C27.5527 60.3927 27.8427 60.2904 28.1497 60.2563Z" fill="white"/>
<path d="M27.2969 21.0286V28.226C27.6039 28.226 27.8938 28.3113 28.1497 28.4477V21.8472C27.7915 21.6767 27.5015 21.3867 27.2969 21.0286Z" fill="white"/>
<path d="M38.2473 48.0446V43.5931C37.9062 43.4907 37.6163 43.3031 37.3945 43.0473V48.0446C37.531 48.0105 37.6674 47.9593 37.8209 47.9593C37.9744 47.9593 38.1109 48.0105 38.2473 48.0446Z" fill="white"/>
<path d="M36.9842 33.8885C37.832 33.8885 38.5192 33.2012 38.5192 32.3535C38.5192 31.5057 37.832 30.8185 36.9842 30.8185C36.1365 30.8185 35.4492 31.5057 35.4492 32.3535C35.4492 33.2012 36.1365 33.8885 36.9842 33.8885Z" fill="white"/>
<path d="M27.2969 42.2968V51.0804C27.6039 51.0804 27.8938 51.1657 28.1497 51.3021V42.5015C27.8427 42.5015 27.5698 42.4162 27.3139 42.2968H27.2969Z" fill="white"/>
<path d="M37.0194 59.1989C36.1666 59.1989 35.4844 59.8981 35.4844 60.7338C35.4844 61.5696 36.1666 62.2688 37.0194 62.2688C37.8721 62.2688 38.5544 61.5866 38.5544 60.7338C38.5544 59.8811 37.8721 59.1989 37.0194 59.1989Z" fill="white"/>
<path d="M37.8202 48.3856C36.9674 48.3856 36.2852 49.0678 36.2852 49.9206C36.2852 50.7734 36.9674 51.4556 37.8202 51.4556C38.6729 51.4556 39.3551 50.7563 39.3551 49.9206C39.3551 49.0849 38.6729 48.3856 37.8202 48.3856Z" fill="white"/>
<path d="M17.7981 53.3147C17.4911 53.3147 17.2011 53.1953 16.9453 53.0588V59.557C17.2694 59.6081 17.5423 59.7275 17.7981 59.8981V53.3147Z" fill="white"/>
<path d="M17.6442 41.734C17.6442 40.8812 16.962 40.199 16.1092 40.199C15.2564 40.199 14.5742 40.8812 14.5742 41.734C14.5742 42.5867 15.2564 43.269 16.1092 43.269C16.962 43.269 17.6442 42.5697 17.6442 41.734Z" fill="white"/>
<path d="M16.6717 59.9323C15.8189 59.9323 15.1367 60.6315 15.1367 61.4672C15.1367 62.303 15.8189 63.0022 16.6717 63.0022C17.5245 63.0022 18.2067 62.32 18.2067 61.4672C18.2067 60.6145 17.5245 59.9323 16.6717 59.9323Z" fill="white"/>
<path d="M17.8983 29.3859C17.0455 29.3859 16.3633 30.0681 16.3633 30.9209C16.3633 31.7736 17.0455 32.4559 17.8983 32.4559C18.7511 32.4559 19.4333 31.7736 19.4333 30.9209C19.4333 30.0681 18.7511 29.3859 17.8983 29.3859Z" fill="white"/>
<path d="M29.6676 40.5401C29.6676 39.6873 28.9854 39.0051 28.1327 39.0051C27.2799 39.0051 26.5977 39.6873 26.5977 40.5401C26.5977 41.3929 27.2799 42.0751 28.1327 42.0751C28.9854 42.0751 29.6676 41.3758 29.6676 40.5401Z" fill="white"/>
<path d="M38.8436 40.199C37.9908 40.199 37.3086 40.8812 37.3086 41.734C37.3086 42.5867 37.9908 43.269 38.8436 43.269C39.6964 43.269 40.3786 42.5697 40.3786 41.734C40.3786 40.8982 39.6964 40.199 38.8436 40.199Z" fill="white"/>
<path d="M17.7981 40.813V32.8481C17.4911 32.8481 17.2011 32.7287 16.9453 32.5923V39.9773C17.3205 40.1649 17.6105 40.4549 17.7981 40.813Z" fill="white"/>
<path d="M16.0897 23.7917C16.9374 23.7917 17.6247 23.1044 17.6247 22.2567C17.6247 21.4089 16.9374 20.7217 16.0897 20.7217C15.2419 20.7217 14.5547 21.4089 14.5547 22.2567C14.5547 23.1044 15.2419 23.7917 16.0897 23.7917Z" fill="white"/>
<path d="M17.8983 49.8183C17.0455 49.8183 16.3633 50.5176 16.3633 51.3533C16.3633 52.189 17.0455 52.8883 17.8983 52.8883C18.7511 52.8883 19.4333 52.2061 19.4333 51.3533C19.4333 50.5005 18.7511 49.8183 17.8983 49.8183Z" fill="white"/>
<path d="M28.285 60.6486C27.4322 60.6486 26.75 61.3478 26.75 62.1836C26.75 63.0193 27.4322 63.7185 28.285 63.7185C29.1378 63.7185 29.82 63.0363 29.82 62.1836C29.82 61.3308 29.1378 60.6486 28.285 60.6486Z" fill="white"/>
<path d="M16.9453 29.2323C17.2011 29.0788 17.4911 28.9935 17.7981 28.9765V23.1776C17.6105 23.5358 17.3205 23.8257 16.9453 24.0133V29.2323Z" fill="white"/>
<path d="M16.9453 43.4907V49.6648C17.2011 49.5113 17.4911 49.4261 17.7981 49.409V42.655C17.6105 43.0132 17.3205 43.3031 16.9453 43.4907Z" fill="white"/>
<path d="M58.9348 59.6423V53.2977C58.6108 53.2636 58.3379 53.1612 58.082 52.9907V59.54C58.082 59.54 58.1844 59.5059 58.2355 59.5059C58.4743 59.5059 58.7131 59.557 58.9348 59.6423Z" fill="white"/>
<path d="M58.2342 59.9323C57.3814 59.9323 56.6992 60.6315 56.6992 61.4672C56.6992 62.303 57.3814 63.0022 58.2342 63.0022C59.087 63.0022 59.7692 62.32 59.7692 61.4672C59.7692 60.6145 59.087 59.9323 58.2342 59.9323Z" fill="white"/>
<path d="M48.9061 23.7917C49.7538 23.7917 50.4411 23.1044 50.4411 22.2567C50.4411 21.4089 49.7538 20.7217 48.9061 20.7217C48.0583 20.7217 47.3711 21.4089 47.3711 22.2567C47.3711 23.1044 48.0583 23.7917 48.9061 23.7917Z" fill="white"/>
<path d="M59.1209 49.8183C58.2682 49.8183 57.5859 50.5176 57.5859 51.3533C57.5859 52.189 58.2682 52.8883 59.1209 52.8883C59.9737 52.8883 60.6559 52.2061 60.6559 51.3533C60.6559 50.5005 59.9737 49.8183 59.1209 49.8183Z" fill="white"/>
<path d="M58.082 43.1326V49.733C58.3379 49.5625 58.6108 49.4602 58.9348 49.426V43.5931C58.6108 43.5078 58.3208 43.3543 58.082 43.1326Z" fill="white"/>
<path d="M59.2067 34.2807C59.2067 33.4279 58.5245 32.7457 57.6717 32.7457C56.8189 32.7457 56.1367 33.4279 56.1367 34.2807C56.1367 35.1335 56.8189 35.8157 57.6717 35.8157C58.5245 35.8157 59.2067 35.1335 59.2067 34.2807Z" fill="white"/>
<path d="M66.9492 11H8.92639C8.68761 11 8.5 11.1876 8.5 11.4264C8.5 11.6652 8.68761 11.8528 8.92639 11.8528H16.9425V20.4999C17.3177 20.6875 17.6076 20.9775 17.7952 21.3356V11.8698H27.2781V19.1525C27.4828 18.7944 27.7727 18.5044 28.1309 18.3339V11.8698H37.375V19.8859C37.699 19.9371 37.9719 20.0565 38.2277 20.2441V11.8698H47.7106V20.7216C47.9664 20.534 48.2393 20.4146 48.5634 20.3635V11.8698H58.0462V20.3635C58.3703 20.4146 58.6432 20.534 58.899 20.7216V11.8698H66.9151C67.1539 11.8698 67.3415 11.6822 67.3415 11.4434C67.3415 11.2047 67.1539 11.0171 66.9151 11.0171L66.9492 11Z" fill="white"/>
<path d="M37.3945 40.4378C37.6163 40.182 37.9062 40.0114 38.2473 39.892V33.8203C38.0085 34.0249 37.7186 34.1614 37.3945 34.2296V40.4207V40.4378Z" fill="white"/>
<path d="M59.4647 40.199C58.6119 40.199 57.9297 40.8812 57.9297 41.734C57.9297 42.5867 58.6119 43.269 59.4647 43.269C60.3175 43.269 60.9997 42.5697 60.9997 41.734C60.9997 40.8982 60.3175 40.199 59.4647 40.199Z" fill="white"/>
<path d="M58.082 40.3525C58.3208 40.1308 58.6108 39.9773 58.9348 39.892V35.7646C58.696 35.9693 58.4061 36.1057 58.082 36.1739V40.3525Z" fill="white"/>
<path d="M58.082 32.4047C58.4061 32.4729 58.696 32.6093 58.9348 32.814V23.7916C58.679 23.9792 58.4061 24.0986 58.082 24.1498V32.3876V32.4047Z" fill="white"/>
<path d="M57.7577 20.7217C56.9049 20.7217 56.2227 21.4039 56.2227 22.2567C56.2227 23.1095 56.9049 23.7917 57.7577 23.7917C58.6104 23.7917 59.2926 23.1095 59.2926 22.2567C59.2926 21.4039 58.6104 20.7217 57.7577 20.7217Z" fill="white"/>
<path d="M48.992 59.9323C48.1393 59.9323 47.457 60.6315 47.457 61.4672C47.457 62.303 48.1393 63.0022 48.992 63.0022C49.8448 63.0022 50.527 62.32 50.527 61.4672C50.527 60.6145 49.8448 59.9323 48.992 59.9323Z" fill="white"/>
<path d="M37.0702 20.244C36.2174 20.244 35.5352 20.9262 35.5352 21.779C35.5352 22.6318 36.2174 23.314 37.0702 23.314C37.9229 23.314 38.6051 22.6318 38.6051 21.779C38.6051 20.9262 37.9229 20.244 37.0702 20.244Z" fill="white"/>
<path d="M38.2473 51.7968C38.1109 51.8309 37.9744 51.882 37.8209 51.882C37.6674 51.882 37.531 51.8309 37.3945 51.7968V58.8577C37.7186 58.926 38.0085 59.0453 38.2473 59.25V51.7968Z" fill="white"/>
<path d="M47.7305 54.1504V59.9834C47.9692 59.7787 48.2592 59.6423 48.5832 59.5741V54.2357C48.5832 54.2357 48.4639 54.2698 48.3956 54.2698C48.1569 54.2698 47.9351 54.2186 47.7305 54.1334V54.1504Z" fill="white"/>
<path d="M48.3944 53.8605C49.2421 53.8605 49.9294 53.1732 49.9294 52.3255C49.9294 51.4777 49.2421 50.7905 48.3944 50.7905C47.5466 50.7905 46.8594 51.4777 46.8594 52.3255C46.8594 53.1732 47.5466 53.8605 48.3944 53.8605Z" fill="white"/>
<path d="M37.3945 30.4774C37.7186 30.5456 38.0085 30.6821 38.2473 30.8867V23.3141C37.9915 23.5017 37.7186 23.6211 37.3945 23.6723V30.4774Z" fill="white"/>
<path d="M47.7305 28.0044C47.9692 27.7997 48.2592 27.6633 48.5832 27.595V24.1669C48.2592 24.1157 47.9863 23.9963 47.7305 23.8087V28.0044Z" fill="white"/>
<path d="M48.5832 31.3472C48.2592 31.279 47.9692 31.1425 47.7305 30.9379V38.4252C48.0545 38.5105 48.3445 38.647 48.5832 38.8857V31.3472Z" fill="white"/>
<path d="M48.992 31.0061C49.8398 31.0061 50.527 30.3189 50.527 29.4712C50.527 28.6234 49.8398 27.9362 48.992 27.9362C48.1443 27.9362 47.457 28.6234 47.457 29.4712C47.457 30.3189 48.1443 31.0061 48.992 31.0061Z" fill="white"/>
<path d="M48.7692 40.3014C48.7692 39.4486 48.087 38.7664 47.2342 38.7664C46.3814 38.7664 45.6992 39.4486 45.6992 40.3014C45.6992 41.1541 46.3814 41.8363 47.2342 41.8363C48.087 41.8363 48.7692 41.1541 48.7692 40.3014Z" fill="white"/>
<path d="M47.7305 50.5005C47.9351 50.4323 48.1569 50.3641 48.3956 50.3641C48.4639 50.3641 48.515 50.3982 48.5832 50.3982V41.6999C48.3445 41.9216 48.0545 42.0751 47.7305 42.1604V50.5005Z" fill="white"/>
</svg>
