<svg width="75" height="74" viewBox="0 0 75 74" fill="none" xmlns="http://www.w3.org/2000/svg">
<path d="M35.2792 43.444C35.2792 42.0796 34.1706 40.988 32.8232 40.988C31.4758 40.988 30.3672 42.0966 30.3672 43.444C30.3672 44.7914 31.4758 45.9 32.8232 45.9C34.1706 45.9 35.2792 44.7914 35.2792 43.444Z" fill="white"/>
<path d="M54.1118 20.8114H53.7536C53.6342 20.8114 53.4978 20.9137 53.4636 21.0331C53.4295 21.1525 53.4807 21.2889 53.583 21.3572L55.425 22.5511L54.6234 24.6148C54.5723 24.7342 54.6234 24.9047 54.7258 24.9729C54.7769 25.007 54.8451 25.0241 54.8963 25.0241C54.9475 25.0241 55.0157 25.007 55.0669 24.9729C55.408 24.7342 55.732 24.4783 56.1072 24.1884C56.1584 24.1543 56.2096 24.1202 56.2437 24.086C56.4484 23.9325 56.653 23.762 56.8747 23.6085C57.0453 23.7449 57.1988 23.8643 57.3694 23.9837C57.6422 24.2054 57.9151 24.4101 58.188 24.6148L58.6485 24.9559C58.6485 24.9559 58.7679 25.0241 58.8361 25.0241C58.9044 25.0241 59.0067 24.9729 59.0408 24.9388C59.109 24.8706 59.1431 24.7171 59.109 24.6318C58.9044 24.1031 58.6997 23.5573 58.495 23.0286L58.3074 22.5511L60.1323 21.3572C60.1835 21.3231 60.2176 21.2719 60.2347 21.2207C60.2517 21.1696 60.2688 21.1013 60.2347 21.0331C60.2347 20.9819 60.1835 20.9137 60.1323 20.8796C60.0812 20.8455 60.013 20.8114 59.9618 20.8114H57.7446L57.1306 18.7988C57.0965 18.6965 56.96 18.5942 56.8577 18.5942C56.8065 18.5942 56.7383 18.6112 56.6871 18.6624C56.636 18.6965 56.6019 18.7477 56.5848 18.8159L55.9708 20.8455C55.6979 20.8455 55.408 20.8455 55.0839 20.8455C54.7599 20.8455 54.4188 20.8455 54.0947 20.8455L54.1118 20.8114Z" fill="white"/>
<path d="M35.7088 43.444C35.7088 43.5975 35.6918 43.734 35.6577 43.8704H55.2033L54.3335 43.2905C54.2311 43.2223 54.18 43.12 54.1117 43.0176H35.6406C35.6577 43.1541 35.6918 43.2905 35.6918 43.444H35.7088Z" fill="white"/>
<path d="M28.8668 53.2339H26.4961V58.7087H26.5131C26.5473 59.0328 26.6837 59.3568 26.8884 59.6126C27.093 59.8685 27.3659 60.0561 27.69 60.0561C28.304 60.0561 28.7986 59.3398 28.8498 58.7087H28.8668V53.2339Z" fill="white"/>
<path d="M59.3109 44.1945L59.959 43.7852L61.1529 43.0347C61.2553 42.9665 61.3064 42.83 61.2723 42.7107C61.2382 42.5913 61.1188 42.4889 60.9994 42.4889H58.7822L58.2023 40.4423C58.1682 40.3399 58.0318 40.2376 57.9294 40.2376C57.8953 40.2376 57.8442 40.2547 57.81 40.2717C57.793 40.2717 57.7759 40.2717 57.7589 40.2888C57.7077 40.3229 57.6736 40.3741 57.6566 40.4252L57.0255 42.4378C56.7526 42.4378 56.4627 42.4378 56.1386 42.4207C55.8146 42.4207 55.4734 42.4037 55.1494 42.4037H54.7912C54.7912 42.4037 54.7059 42.4207 54.6718 42.4378C54.6548 42.4378 54.6377 42.4378 54.6207 42.4548C54.5695 42.4889 54.5354 42.5401 54.5183 42.6083C54.4842 42.7277 54.5354 42.8642 54.6377 42.9324L54.7571 43.0006L56.0533 43.8534L56.4797 44.1433L55.644 46.19C55.6099 46.2411 55.6099 46.3264 55.644 46.3776C55.644 46.4458 55.6952 46.497 55.7463 46.5481C55.7804 46.5652 55.8146 46.5652 55.8487 46.5823C55.8657 46.5823 55.8998 46.5993 55.9169 46.5993C55.9681 46.5993 56.0363 46.5823 56.0874 46.5481C56.4286 46.3094 56.7526 46.0535 57.1278 45.7806C57.2302 45.6954 57.3325 45.6271 57.4348 45.5419C57.5883 45.4225 57.7418 45.3031 57.8953 45.2008C58.3217 45.5589 58.7822 45.9 59.2086 46.2411L59.652 46.5993C59.652 46.5993 59.7714 46.6675 59.8397 46.6675C59.9079 46.6675 60.0102 46.6164 60.0614 46.5823C60.1467 46.514 60.1808 46.3605 60.1467 46.2753C59.959 45.7295 59.7544 45.2008 59.5497 44.672L59.4644 44.4503L59.3621 44.1945H59.3109Z" fill="white"/>
<path d="M14.1328 36.9629H17.3222V34.5922H11.8474C11.2163 34.6775 10.5 35.1551 10.5 35.7861C10.5 36.4172 11.2163 36.8947 11.8474 36.9459L13.28 36.9629H14.1328Z" fill="white"/>
<path d="M39.9541 29.0322C39.8859 29.2027 39.8347 29.3733 39.7324 29.5438C39.6642 29.6462 39.5618 29.7656 39.4766 29.8849H49.9145C53.3768 29.8849 56.2592 27.4972 57.0778 24.2737C57.0096 24.2225 56.9585 24.1713 56.8902 24.1202C56.7197 24.2566 56.5491 24.376 56.3786 24.5125C56.2421 24.6148 56.1398 24.7001 56.0204 24.7853C55.0823 27.2584 52.7116 29.0151 49.9145 29.0151H39.9541V29.0322Z" fill="white"/>
<path d="M20.6474 43.8705H29.9768C29.9597 43.734 29.9256 43.5976 29.9256 43.4441C29.9256 43.2906 29.9427 43.1541 29.9768 43.0177H20.6474C17.3386 43.0177 14.6609 40.5617 14.2004 37.3723H13.3477C13.8082 41.0222 16.8781 43.8705 20.6474 43.8705Z" fill="white"/>
<path d="M26.0526 57.0202H13.7897C13.5509 57.0202 13.3633 57.2078 13.3633 57.4466C13.3633 57.6854 13.5509 57.873 13.7897 57.873H26.0526V57.0202Z" fill="white"/>
<path d="M14.5407 34.1488C15.4787 31.6587 17.8324 29.8679 20.6465 29.8679H33.5405C33.3188 29.5779 33.1312 29.288 33.0288 29.0151H20.6465C17.3548 29.0151 14.6089 31.1811 13.6367 34.1488H14.5407Z" fill="white"/>
<path d="M60.3877 44.024L59.8419 44.3651L59.9101 44.5356C59.9101 44.5356 59.9613 44.6721 59.9954 44.7403C61.9909 45.8659 63.3553 47.9979 63.3553 50.4368C63.3553 54.0526 60.4047 57.0032 56.789 57.0032H56.192C56.1238 57.2079 56.0556 57.4296 55.9362 57.6342C55.885 57.7025 55.8168 57.7877 55.7656 57.856H56.789C60.8823 57.856 64.2081 54.5301 64.2081 50.4368C64.2081 47.6738 62.656 45.2861 60.4047 44.0069L60.3877 44.024Z" fill="white"/>
<path d="M38.1644 15.456C38.1644 15.6095 38.1474 15.7459 38.1133 15.8824H49.8986C52.5763 15.8824 54.8277 17.5026 55.851 19.7881L56.1921 18.6795C56.1921 18.6795 56.2092 18.6624 56.2262 18.6454C54.93 16.4964 52.5934 15.0296 49.8986 15.0296H38.1133C38.1303 15.166 38.1644 15.3025 38.1644 15.456Z" fill="white"/>
<path d="M49.1967 57.1225C49.1967 57.1225 49.1967 57.0543 49.1797 57.0202H29.293V57.873H49.6231C49.4355 57.6171 49.282 57.3613 49.1967 57.1225Z" fill="white"/>
<path d="M55.2868 55.0248C55.2868 55.0248 55.2186 54.9736 55.1845 54.9565C55.1504 54.9395 55.1163 54.9054 55.0822 54.8883C54.2464 54.4619 53.3937 54.6836 52.865 55.4682C52.8308 55.5194 52.7626 55.5535 52.6944 55.5535C52.6262 55.5535 52.558 55.5194 52.5238 55.4511C52.1486 54.8883 51.6199 54.6495 51.1423 54.6495C50.8865 54.6495 50.6477 54.7178 50.4431 54.8201C49.795 55.1441 49.2833 55.9287 49.6415 56.9691C49.9314 57.8219 51.2447 58.8964 52.1998 59.698C52.3874 59.8515 52.575 60.005 52.7285 60.1414C52.9332 59.9538 53.189 59.7321 53.4619 59.5104C54.2294 58.8622 55.2016 58.0436 55.5938 57.4125C56.1226 56.5768 56.0202 55.6046 55.338 55.0248H55.2868Z" fill="white"/>
<path d="M35.981 31.6075C36.1686 31.761 36.3563 31.9145 36.5098 32.051C36.7315 31.8633 36.9873 31.6416 37.2431 31.4199C38.0106 30.7718 38.9828 29.9531 39.358 29.3221C39.8867 28.4864 39.7844 27.5142 39.1022 26.9343C39.0681 26.9172 39.034 26.8831 38.9999 26.8661C38.9657 26.849 38.9316 26.8149 38.8975 26.7979C38.0618 26.3715 37.209 26.5932 36.6633 27.3777C36.6291 27.4289 36.5609 27.463 36.4927 27.463C36.4245 27.463 36.3563 27.4289 36.3221 27.3607C35.9469 26.7979 35.4182 26.5591 34.9407 26.5591C34.6848 26.5591 34.446 26.6273 34.2243 26.7296C33.5762 27.0537 33.0645 27.8382 33.4227 28.8786C33.7127 29.7314 35.0259 30.8059 35.981 31.6075Z" fill="white"/>
<path d="M35.2802 17.912C36.6276 17.912 37.7362 16.8034 37.7362 15.456C37.7362 14.1086 36.6276 13 35.2802 13C33.9328 13 32.8242 14.1086 32.8242 15.456C32.8242 16.8034 33.9328 17.912 35.2802 17.912Z" fill="white"/>
</svg>
