<svg width="75" height="74" viewBox="0 0 75 74" fill="none" xmlns="http://www.w3.org/2000/svg">
<path d="M30.3489 35.6731V32.8248C30.0248 32.7736 29.7519 32.6713 29.4961 32.4837V35.0761C29.8372 35.1955 30.1271 35.4002 30.3489 35.6731Z" fill="white"/>
<path d="M30.6053 29.3796C29.7525 29.3796 29.0703 30.0618 29.0703 30.9146C29.0703 31.7673 29.7525 32.4496 30.6053 32.4496C31.4581 32.4496 32.1403 31.7673 32.1403 30.9146C32.1403 30.0618 31.4581 29.3796 30.6053 29.3796Z" fill="white"/>
<path d="M28.867 35.3831C28.0143 35.3831 27.332 36.0653 27.332 36.9181C27.332 37.7709 28.0143 38.4531 28.867 38.4531C29.7198 38.4531 30.402 37.7709 30.402 36.9181C30.402 36.0653 29.7198 35.3831 28.867 35.3831Z" fill="white"/>
<path d="M29.5302 42.5294C29.8201 42.5294 30.093 42.5976 30.3489 42.717V38.1461C30.1271 38.419 29.8372 38.6237 29.4961 38.7431V42.5294C29.4961 42.5294 29.5132 42.5294 29.5302 42.5294Z" fill="white"/>
<path d="M37.7539 28.9532V33.8311C37.9586 33.7628 38.1803 33.6946 38.4191 33.6946C38.4873 33.6946 38.5385 33.7287 38.6067 33.7287V28.595C38.3508 28.7826 38.078 28.902 37.7539 28.9532Z" fill="white"/>
<path d="M37.7539 25.1328C38.078 25.184 38.3508 25.3033 38.6067 25.491V22.8474C38.3508 22.9838 38.0609 23.0691 37.7539 23.0861V25.1328Z" fill="white"/>
<path d="M36.8828 35.656C36.8828 36.5088 37.565 37.191 38.4178 37.191C39.2706 37.191 39.9528 36.5088 39.9528 35.656C39.9528 34.8033 39.2706 34.121 38.4178 34.121C37.565 34.121 36.8828 34.8033 36.8828 35.656Z" fill="white"/>
<path d="M38.9958 27.043C38.9958 26.1902 38.3136 25.508 37.4608 25.508C36.608 25.508 35.9258 26.1902 35.9258 27.043C35.9258 27.8958 36.608 28.578 37.4608 28.578C38.3136 28.578 38.9958 27.8958 38.9958 27.043Z" fill="white"/>
<path d="M30.3489 50.6819V46.2816C30.093 46.4009 29.8201 46.4692 29.5302 46.4692C29.5302 46.4692 29.5131 46.4692 29.4961 46.4692V50.9036C29.7519 50.7842 30.0419 50.6989 30.3489 50.6989V50.6819Z" fill="white"/>
<path d="M31.0661 44.4907C31.0661 43.638 30.3839 42.9557 29.5311 42.9557C28.6783 42.9557 27.9961 43.638 27.9961 44.4907C27.9961 45.3435 28.6783 46.0257 29.5311 46.0257C30.3839 46.0257 31.0661 45.3265 31.0661 44.4907Z" fill="white"/>
<path d="M28.8672 21.1247C28.8672 21.9775 29.5494 22.6597 30.4022 22.6597C31.255 22.6597 31.9372 21.9775 31.9372 21.1247C31.9372 20.2719 31.255 19.5897 30.4022 19.5897C29.5494 19.5897 28.8672 20.2719 28.8672 21.1247Z" fill="white"/>
<path d="M13.0742 25.6956C13.3983 25.7638 13.6882 25.8832 13.927 26.0879V20.903C13.6882 21.1077 13.3983 21.2271 13.0742 21.2953V25.6956Z" fill="white"/>
<path d="M13.2264 47.4413C14.0792 47.4413 14.7614 46.7591 14.7614 45.9063C14.7614 45.0536 14.0792 44.3713 13.2264 44.3713C12.3736 44.3713 11.6914 45.0706 11.6914 45.9063C11.6914 46.7421 12.3736 47.4413 13.2264 47.4413Z" fill="white"/>
<path d="M14.2341 27.5888C14.2341 26.736 13.5518 26.0538 12.6991 26.0538C11.8463 26.0538 11.1641 26.736 11.1641 27.5888C11.1641 28.4415 11.8463 29.1238 12.6991 29.1238C13.5518 29.1238 14.2341 28.4415 14.2341 27.5888Z" fill="white"/>
<path d="M13.125 35.9459C13.125 36.7987 13.8072 37.4809 14.66 37.4809C15.5128 37.4809 16.195 36.7987 16.195 35.9459C16.195 35.0932 15.5128 34.4109 14.66 34.4109C13.8072 34.4109 13.125 35.0932 13.125 35.9459Z" fill="white"/>
<path d="M13.0742 43.962C13.0742 43.962 13.1766 43.9279 13.2448 43.9279C13.4836 43.9279 13.7223 43.9791 13.927 44.0644V37.7538C13.5688 37.6003 13.2959 37.3445 13.0742 37.0204V43.962Z" fill="white"/>
<path d="M21.0195 21.1247C21.0195 21.9775 21.7018 22.6597 22.5545 22.6597C23.4073 22.6597 24.0895 21.9775 24.0895 21.1247C24.0895 20.2719 23.4073 19.5897 22.5545 19.5897C21.7018 19.5897 21.0195 20.2719 21.0195 21.1247Z" fill="white"/>
<path d="M30.3514 54.1783C31.2042 54.1783 31.8864 53.496 31.8864 52.6433C31.8864 51.7905 31.2042 51.1083 30.3514 51.1083C29.4986 51.1083 28.8164 51.8076 28.8164 52.6433C28.8164 53.479 29.4986 54.1783 30.3514 54.1783Z" fill="white"/>
<path d="M22.1653 26.3096V23.0179C21.8412 22.9496 21.5513 22.8132 21.3125 22.6085V26.1902C21.3125 26.1902 21.4148 26.1561 21.466 26.1561C21.7218 26.1561 21.9436 26.2072 22.1653 26.2925V26.3096Z" fill="white"/>
<path d="M19.9297 28.1345C19.9297 28.9873 20.6119 29.6695 21.4647 29.6695C22.3175 29.6695 22.9997 28.9873 22.9997 28.1345C22.9997 27.2818 22.3175 26.5995 21.4647 26.5995C20.6119 26.5995 19.9297 27.2818 19.9297 28.1345Z" fill="white"/>
<path d="M12.6991 17.8671C11.8463 17.8671 11.1641 18.5493 11.1641 19.4021C11.1641 20.2549 11.8463 20.9371 12.6991 20.9371C13.5518 20.9371 14.2341 20.2549 14.2341 19.4021C14.2341 18.5493 13.5518 17.8671 12.6991 17.8671Z" fill="white"/>
<path d="M13.0742 29.4648V34.8544C13.2959 34.5303 13.5688 34.2745 13.927 34.121V29.0726C13.6882 29.2772 13.3983 29.3966 13.0742 29.4648Z" fill="white"/>
<path d="M29.4961 29.3284C29.7519 29.1579 30.0248 29.0385 30.3489 28.9873V23.069C30.0419 23.069 29.7519 22.9667 29.4961 22.8303V29.3114V29.3284Z" fill="white"/>
<path d="M54.2461 29.4649V34.6156C54.4678 34.3769 54.7748 34.2063 55.0989 34.104V29.0897C54.8601 29.2943 54.5701 29.4137 54.2461 29.4819V29.4649Z" fill="white"/>
<path d="M53.8709 26.0538C53.0182 26.0538 52.3359 26.736 52.3359 27.5888C52.3359 28.4415 53.0182 29.1238 53.8709 29.1238C54.7237 29.1238 55.4059 28.4415 55.4059 27.5888C55.4059 26.736 54.7237 26.0538 53.8709 26.0538Z" fill="white"/>
<path d="M54.6717 47.1003C55.5245 47.1003 56.2067 46.418 56.2067 45.5653C56.2067 44.7125 55.5245 44.0303 54.6717 44.0303C53.8189 44.0303 53.1367 44.7296 53.1367 45.5653C53.1367 46.401 53.8189 47.1003 54.6717 47.1003Z" fill="white"/>
<path d="M54.2461 21.227V25.6956C54.5701 25.7638 54.8601 25.8832 55.0989 26.0878V20.4595C54.8942 20.7836 54.6043 21.0735 54.2461 21.227Z" fill="white"/>
<path d="M55.6756 34.4109C54.8228 34.4109 54.1406 35.0932 54.1406 35.9459C54.1406 36.7987 54.8228 37.4809 55.6756 37.4809C56.5284 37.4809 57.2106 36.7987 57.2106 35.9459C57.2106 35.0932 56.5284 34.4109 55.6756 34.4109Z" fill="white"/>
<path d="M54.2461 37.2762V43.6891C54.3825 43.655 54.519 43.6038 54.6725 43.6038C54.826 43.6038 54.9624 43.655 55.0989 43.6891V37.7879C54.7748 37.6856 54.4678 37.515 54.2461 37.2762Z" fill="white"/>
<path d="M66.9492 12.0171H8.92639C8.68761 12.0171 8.5 12.2047 8.5 12.4434C8.5 12.6822 8.68761 12.8698 8.92639 12.8698H13.0709V17.5089C13.3949 17.5771 13.6849 17.6965 13.9236 17.9012V12.8698H21.3257V19.6409C21.5645 19.4362 21.8545 19.2998 22.1785 19.2315V12.8698H29.5124V19.4021C29.7682 19.2656 30.0582 19.1633 30.3652 19.1633V12.8698H37.7672V19.1633C38.0742 19.1633 38.3642 19.2656 38.62 19.4021V12.8698H46.0221V19.1804C46.2779 19.0098 46.5508 18.9075 46.8749 18.8734V12.8698H54.277V17.5942C54.6351 17.7477 54.9251 18.0376 55.1297 18.3617V12.8698H62.5318V18.2764C62.7706 18.0718 63.0606 17.9353 63.3846 17.8671V12.8528H66.9833C67.2221 12.8528 67.4097 12.6652 67.4097 12.4264C67.4097 12.1876 67.2221 12 66.9833 12L66.9492 12.0171Z" fill="white"/>
<path d="M53.4764 17.8671C52.6236 17.8671 51.9414 18.5493 51.9414 19.4021C51.9414 20.2549 52.6236 20.9371 53.4764 20.9371C54.3292 20.9371 55.0114 20.2549 55.0114 19.4021C55.0114 18.5493 54.3292 17.8671 53.4764 17.8671Z" fill="white"/>
<path d="M63.3528 25.9855V21.6705C63.0287 21.6023 62.7388 21.4658 62.5 21.2612V25.8832C62.5 25.8832 62.6023 25.8491 62.6535 25.8491C62.9093 25.8491 63.1311 25.9003 63.3528 25.9855Z" fill="white"/>
<path d="M61.1172 27.7934C61.1172 28.6462 61.7994 29.3284 62.6522 29.3284C63.505 29.3284 64.1872 28.6462 64.1872 27.7934C64.1872 26.9406 63.505 26.2584 62.6522 26.2584C61.7994 26.2584 61.1172 26.9406 61.1172 27.7934Z" fill="white"/>
<path d="M62.2109 19.7603C62.2109 20.6131 62.8932 21.2953 63.7459 21.2953C64.5987 21.2953 65.2809 20.6131 65.2809 19.7603C65.2809 18.9075 64.5987 18.2253 63.7459 18.2253C62.8932 18.2253 62.2109 18.9075 62.2109 19.7603Z" fill="white"/>
<path d="M46.0078 53.5984V58.0669C46.3319 58.1352 46.6218 58.2545 46.8606 58.4592V54.0418C46.5365 53.9566 46.2466 53.8201 46.0078 53.5984Z" fill="white"/>
<path d="M46.8606 43.331V38.2825C46.6218 38.5213 46.3319 38.6748 46.0078 38.7771V42.9557C46.3319 43.024 46.6218 43.1433 46.8606 43.348V43.331Z" fill="white"/>
<path d="M46.0078 46.7421V50.7501C46.2466 50.5284 46.5365 50.3919 46.8606 50.3067V46.3498C46.6218 46.5545 46.3319 46.6738 46.0078 46.7421Z" fill="white"/>
<path d="M48.6012 29.3114C48.6012 28.4586 47.919 27.7764 47.0662 27.7764C46.2135 27.7764 45.5312 28.4586 45.5312 29.3114C45.5312 30.1641 46.2135 30.8464 47.0662 30.8464C47.919 30.8464 48.6012 30.1641 48.6012 29.3114Z" fill="white"/>
<path d="M45.6327 46.3839C46.4854 46.3839 47.1676 45.7017 47.1676 44.8489C47.1676 43.9961 46.4854 43.3139 45.6327 43.3139C44.7799 43.3139 44.0977 43.9961 44.0977 44.8489C44.0977 45.7017 44.7799 46.3839 45.6327 46.3839Z" fill="white"/>
<path d="M45.6327 58.4251C44.7799 58.4251 44.0977 59.1073 44.0977 59.9601C44.0977 60.8129 44.7799 61.4951 45.6327 61.4951C46.4854 61.4951 47.1676 60.8129 47.1676 59.9601C47.1676 59.1073 46.4854 58.4251 45.6327 58.4251Z" fill="white"/>
<path d="M45.5117 20.8007C45.5117 21.6535 46.1939 22.3357 47.0467 22.3357C47.8995 22.3357 48.5817 21.6535 48.5817 20.8007C48.5817 19.9479 47.8995 19.2657 47.0467 19.2657C46.1939 19.2657 45.5117 19.9479 45.5117 20.8007Z" fill="white"/>
<path d="M46.8606 35.5537V31.2386C46.5365 31.2045 46.2636 31.1022 46.0078 30.9316V35.0591C46.3319 35.1614 46.6218 35.3149 46.8606 35.5537Z" fill="white"/>
<path d="M46.0078 27.7081C46.2636 27.5376 46.5365 27.4353 46.8606 27.4011V22.745C46.5365 22.7109 46.2636 22.6085 46.0078 22.438V27.7252V27.7081Z" fill="white"/>
<path d="M36.1641 21.1247C36.1641 21.9775 36.8463 22.6597 37.6991 22.6597C38.5518 22.6597 39.2341 21.9775 39.2341 21.1247C39.2341 20.2719 38.5518 19.5897 37.6991 19.5897C36.8463 19.5897 36.1641 20.2719 36.1641 21.1247Z" fill="white"/>
<path d="M45.4452 35.3831C44.5924 35.3831 43.9102 36.0653 43.9102 36.9181C43.9102 37.7709 44.5924 38.4531 45.4452 38.4531C46.2979 38.4531 46.9801 37.7709 46.9801 36.9181C46.9801 36.0653 46.2979 35.3831 45.4452 35.3831Z" fill="white"/>
<path d="M47.3202 50.6307C46.4674 50.6307 45.7852 51.33 45.7852 52.1657C45.7852 53.0015 46.4674 53.7007 47.3202 53.7007C48.1729 53.7007 48.8551 53.0185 48.8551 52.1657C48.8551 51.313 48.1729 50.6307 47.3202 50.6307Z" fill="white"/>
</svg>
