<svg width="75" height="74" viewBox="0 0 75 74" fill="none" xmlns="http://www.w3.org/2000/svg">
<path d="M44.9299 27.3249C45.4245 27.3249 45.8167 26.9326 45.8167 26.438C45.8167 25.9434 45.4245 25.5511 44.9299 25.5511C44.4352 25.5511 44.043 25.9434 44.043 26.438C44.043 26.9326 44.4352 27.3249 44.9299 27.3249Z" fill="white"/>
<path d="M36.965 29.201C37.4596 29.201 37.8519 28.8087 37.8519 28.3141C37.8519 27.8195 37.4596 27.4272 36.965 27.4272C36.4704 27.4272 36.0781 27.8195 36.0781 28.3141C36.0781 28.8087 36.4704 29.201 36.965 29.201Z" fill="white"/>
<path d="M28.8634 31.2476C29.3581 31.2476 29.7503 30.8554 29.7503 30.3608C29.7503 29.8662 29.3581 29.4739 28.8634 29.4739C28.3688 29.4739 27.9766 29.8662 27.9766 30.3608C27.9766 30.8554 28.3688 31.2476 28.8634 31.2476Z" fill="white"/>
<path d="M39.3679 34.3517C39.0779 34.3517 38.8051 34.3517 38.5151 34.3517C37.236 34.3517 36.1103 34.3517 35.104 34.3517C31.096 34.3517 28.8788 34.3858 28.4524 33.9594C28.4353 33.9424 28.3841 33.8912 28.3841 33.7548C28.6229 33.6354 28.8788 33.4989 29.1858 33.3625C31.3177 32.4586 34.8141 31.7593 38.1911 31.0771C40.9711 30.5142 43.5977 29.9855 45.4567 29.3715C49.6865 27.9559 51.8355 25.8751 51.8355 23.1974C51.8355 19.2235 45.9343 16 38.6857 16C38.3957 16 38.1228 16 37.8329 16H36.1615C35.9227 16 35.7351 16.1876 35.7351 16.4264V21.8159C35.7351 22.0547 35.9227 22.2423 36.1615 22.2423C37.5088 22.2423 38.6857 22.2423 39.709 22.2423C43.5465 22.2253 45.4567 22.2082 45.9002 22.6346C45.9343 22.6687 45.9513 22.7028 45.9854 22.771C45.7296 22.9075 45.4738 23.0439 45.1668 23.1463C43.8364 23.6409 40.016 24.5107 36.315 25.3464C33.2961 26.0286 30.4479 26.6767 28.8958 27.1372C24.649 28.3823 22.5 30.446 22.5 33.3113C22.5 37.3535 28.2818 40.5088 35.6498 40.5088C35.8886 40.5088 36.1444 40.5088 36.3832 40.5088C36.3832 40.5088 36.3832 40.5088 36.4173 40.5088H38.2422C39.2656 40.5088 40.1866 40.5088 41.0052 40.5088C44.314 40.4917 46.1389 40.4746 46.5653 40.901C46.5994 40.9351 46.6335 40.9863 46.6506 41.0716C46.3948 41.208 46.1389 41.3445 45.8319 41.4468C44.5016 41.9414 40.6812 42.8113 36.9801 43.664C33.9613 44.3462 31.113 44.9944 29.561 45.4549C26.4057 46.3759 23.1652 47.8256 23.1652 51.6289C23.1652 55.4323 29.0664 58.8264 36.315 58.8264C36.5537 58.8264 36.8096 58.8264 37.0483 58.8264C37.0483 58.8264 37.0483 58.8264 37.0825 58.8264H38.9074C39.1462 58.8264 39.3338 58.6388 39.3338 58.4V53.0104C39.3338 52.7717 39.1462 52.5841 38.9074 52.5841C32.3751 52.5841 29.1005 52.584 29.0664 51.9359C29.2881 51.8336 29.5098 51.7313 29.7998 51.6631C31.42 51.2367 33.7055 50.6738 36.1273 50.094C39.7431 49.2241 43.8364 48.252 46.3436 47.4845C50.4881 46.2223 52.5006 44.261 52.5006 41.4639C52.5006 37.4899 46.5994 34.2664 39.3508 34.2664L39.3679 34.3517ZM46.5142 22.0718C45.8319 21.3895 44.2969 21.4066 39.7261 21.4237C38.8051 21.4237 37.7817 21.4237 36.6049 21.4237V16.8869H37.85C43.1713 17.0574 47.5034 18.8142 47.5034 20.7926C47.5034 21.3895 47.2134 21.9012 46.6847 22.3446C46.6335 22.2423 46.5824 22.14 46.5142 22.0718ZM23.3698 33.3796C23.3698 30.9065 25.263 29.1498 29.1516 28.0241C30.6866 27.5807 33.5179 26.9326 36.5196 26.2504C40.2548 25.3976 44.1093 24.5278 45.4908 24.0161C46.0025 23.8285 46.4118 23.6068 46.77 23.385C48.0491 22.5664 48.3732 21.5771 48.3732 20.8097C48.3732 20.0422 47.9298 19.2747 47.1452 18.6265C49.5159 19.7863 50.9997 21.4236 50.9997 23.2315C50.9997 25.4999 49.0554 27.3078 45.2009 28.604C43.393 29.218 40.7835 29.7297 38.0376 30.2925C34.6265 30.9747 31.0789 31.6911 28.8617 32.6291C26.8833 33.4648 25.9964 34.4541 25.9964 35.8355C25.9964 36.6201 26.4398 37.3705 27.2244 38.0187C24.8537 36.8589 23.3698 35.2215 23.3698 33.4137V33.3796ZM47.1623 40.3553C46.48 39.6901 44.9792 39.6901 41.0052 39.7071C40.1866 39.7071 39.2826 39.7071 38.2593 39.7071H36.5537C36.5537 39.7071 36.5367 39.7071 36.5196 39.7071C31.1983 39.5366 26.8662 37.7799 26.8662 35.8014C26.8662 35.3409 27.0027 34.8122 27.6678 34.2664C27.719 34.3858 27.7872 34.4882 27.8725 34.5905C28.4353 35.1533 29.6974 35.2386 32.9891 35.2386C33.6202 35.2386 34.3365 35.2386 35.1211 35.2386C36.1103 35.2386 37.253 35.2386 38.5151 35.2386C43.8364 35.4092 48.1685 37.1659 48.1685 39.1443C48.1685 39.7413 47.8786 40.2529 47.3499 40.6964C47.2987 40.594 47.2475 40.4746 47.1623 40.3894V40.3553ZM38.481 53.5051V58.0418H37.2018C37.2018 58.0418 37.1848 58.0418 37.1677 58.0418C31.8464 57.8713 27.4973 56.1145 27.4973 54.1361C27.4973 53.4368 27.7702 52.9081 28.2818 52.4817C28.6911 53.488 30.8401 53.5051 38.464 53.5051H38.481ZM46.1048 46.7511C43.6147 47.5186 39.5214 48.4907 35.9227 49.3435C33.5008 49.9234 31.1983 50.4692 29.578 50.9126C27.1562 51.5607 26.6445 53.0275 26.6445 54.1361C26.6445 54.9207 27.0879 55.6711 27.8725 56.3192C25.5018 55.1594 24.0179 53.5221 24.0179 51.7142C24.0179 49.1047 25.6894 47.5527 29.7998 46.3588C31.3348 45.9153 34.166 45.2672 37.1677 44.585C40.9029 43.7322 44.7574 42.8624 46.1389 42.3507C48.5267 41.4468 49.0213 40.1165 49.0213 39.1443C49.0213 38.3768 48.612 37.6434 47.8786 37.0124C50.1981 38.1722 51.6479 39.7924 51.6479 41.5833C51.6479 43.971 49.8911 45.6254 46.1048 46.7852V46.7511Z" fill="white"/>
<path d="M46.2267 43.6641C45.7321 43.6641 45.3398 44.0563 45.3398 44.5509C45.3398 45.0456 45.7321 45.4378 46.2267 45.4378C46.7213 45.4378 47.1136 45.0456 47.1136 44.5509C47.1136 44.0563 46.7213 43.6641 46.2267 43.6641Z" fill="white"/>
<path d="M37.6134 45.7277C37.1188 45.7277 36.7266 46.12 36.7266 46.6146C36.7266 47.1092 37.1188 47.5015 37.6134 47.5015C38.1081 47.5015 38.5003 47.1092 38.5003 46.6146C38.5003 46.12 38.1081 45.7277 37.6134 45.7277Z" fill="white"/>
<path d="M28.8634 48.0303C28.3688 48.0303 27.9766 48.4226 27.9766 48.9172C27.9766 49.4118 28.3688 49.804 28.8634 49.804C29.3581 49.804 29.7503 49.4118 29.7503 48.9172C29.7503 48.4226 29.3581 48.0303 28.8634 48.0303Z" fill="white"/>
</svg>
