<svg width="75" height="74" viewBox="0 0 75 74" fill="none" xmlns="http://www.w3.org/2000/svg">
<path d="M59.6585 54.0885C59.6585 51.3255 57.4071 49.0742 54.6441 49.0742H22.017C19.7315 49.0742 17.8554 47.2151 17.8554 44.9126C17.8554 42.6101 19.7145 40.7511 22.017 40.7511H50.1585C52.9215 40.7511 55.1729 38.4998 55.1729 35.7368C55.1729 32.9738 52.9215 30.7224 50.1585 30.7224H26.5026C24.2171 30.7224 22.341 28.8634 22.341 26.5609C22.341 24.2584 24.2001 22.3994 26.5026 22.3994H45.6559C48.4189 22.3994 50.6702 20.148 50.6702 17.385C50.6702 14.6221 48.4189 12.3707 45.6559 12.3707H36.0707C35.8319 12.3707 35.6443 12.5583 35.6443 12.7971C35.6443 13.0359 35.8319 13.2235 36.0707 13.2235H45.6559C47.9413 13.2235 49.8174 15.0826 49.8174 17.385C49.8174 19.6875 47.9584 21.5466 45.6559 21.5466H26.5026C23.7396 21.5466 21.4882 23.7979 21.4882 26.5609C21.4882 29.3239 23.7396 31.5752 26.5026 31.5752H50.1585C52.444 31.5752 54.3201 33.4343 54.3201 35.7368C54.3201 38.0393 52.461 39.8983 50.1585 39.8983H22.017C19.254 39.8983 17.0027 42.1496 17.0027 44.9126C17.0027 47.6756 19.254 49.9269 22.017 49.9269H54.6441C56.9296 49.9269 58.8057 51.786 58.8057 54.0885C58.8057 56.391 56.9466 58.25 54.6441 58.25H17.5143C14.7513 58.25 12.5 60.5014 12.5 63.2644C12.5 63.5031 12.6876 63.6907 12.9264 63.6907C13.1652 63.6907 13.3528 63.5031 13.3528 63.2644C13.3528 60.9789 15.2118 59.1028 17.5143 59.1028H54.6441C57.4071 59.1028 59.6585 56.8515 59.6585 54.0885Z" fill="white"/>
<path d="M25.5478 59.4439C25.002 59.4439 24.5586 59.8874 24.5586 60.4331C24.5586 60.9789 25.002 61.4223 25.5478 61.4223C26.0936 61.4223 26.537 60.9789 26.537 60.4331C26.537 59.8874 26.0936 59.4439 25.5478 59.4439Z" fill="white"/>
<path d="M41.9189 59.4439C41.3731 59.4439 40.9297 59.8874 40.9297 60.4331C40.9297 60.9789 41.3731 61.4223 41.9189 61.4223C42.4647 61.4223 42.9081 60.9789 42.9081 60.4331C42.9081 59.8874 42.4647 59.4439 41.9189 59.4439Z" fill="white"/>
<path d="M58.7548 58.4717C58.2091 58.4717 57.7656 58.9152 57.7656 59.461C57.7656 60.0067 58.2091 60.4502 58.7548 60.4502C59.3006 60.4502 59.7441 60.0067 59.7441 59.461C59.7441 58.9152 59.3006 58.4717 58.7548 58.4717Z" fill="white"/>
<path d="M47.2753 51.2743C47.2753 50.7285 46.8319 50.2851 46.2861 50.2851C45.7403 50.2851 45.2969 50.7285 45.2969 51.2743C45.2969 51.8201 45.7403 52.2635 46.2861 52.2635C46.8319 52.2635 47.2753 51.8201 47.2753 51.2743Z" fill="white"/>
<path d="M30.8847 51.2743C30.8847 50.7285 30.4412 50.2851 29.8955 50.2851C29.3497 50.2851 28.9062 50.7285 28.9062 51.2743C28.9062 51.8201 29.3497 52.2635 29.8955 52.2635C30.4412 52.2635 30.8847 51.8201 30.8847 51.2743Z" fill="white"/>
<path d="M16.0634 47.7609C16.6092 47.7609 17.0527 47.3175 17.0527 46.7717C17.0527 46.2259 16.6092 45.7825 16.0634 45.7825C15.5177 45.7825 15.0742 46.2259 15.0742 46.7717C15.0742 47.3175 15.5177 47.7609 16.0634 47.7609Z" fill="white"/>
<path d="M28.7539 42.0985C28.7539 42.6442 29.1973 43.0877 29.7431 43.0877C30.2889 43.0877 30.7323 42.6442 30.7323 42.0985C30.7323 41.5527 30.2889 41.1093 29.7431 41.1093C29.1973 41.1093 28.7539 41.5527 28.7539 42.0985Z" fill="white"/>
<path d="M45.125 42.0985C45.125 42.6442 45.5684 43.0877 46.1142 43.0877C46.66 43.0877 47.1034 42.6442 47.1034 42.0985C47.1034 41.5527 46.66 41.1093 46.1142 41.1093C45.5684 41.1093 45.125 41.5527 45.125 42.0985Z" fill="white"/>
<path d="M49.5088 33.98C50.0545 33.98 50.498 33.5366 50.498 32.9908C50.498 32.445 50.0545 32.0016 49.5088 32.0016C48.963 32.0016 48.5195 32.445 48.5195 32.9908C48.5195 33.5366 48.963 33.98 49.5088 33.98Z" fill="white"/>
<path d="M33.1025 33.9118C33.6483 33.9118 34.0917 33.4684 34.0917 32.9226C34.0917 32.3769 33.6483 31.9334 33.1025 31.9334C32.5567 31.9334 32.1133 32.3769 32.1133 32.9226C32.1133 33.4684 32.5567 33.9118 33.1025 33.9118Z" fill="white"/>
<path d="M20.2783 29.7503C20.8241 29.7503 21.2675 29.3068 21.2675 28.7611C21.2675 28.2153 20.8241 27.7719 20.2783 27.7719C19.7325 27.7719 19.2891 28.2153 19.2891 28.7611C19.2891 29.3068 19.7325 29.7503 20.2783 29.7503Z" fill="white"/>
<path d="M22.9375 26.612C22.9375 27.1578 23.3809 27.6012 23.9267 27.6012C24.4725 27.6012 24.9159 27.1578 24.9159 26.612C24.9159 26.0662 24.4725 25.6228 23.9267 25.6228C23.3809 25.6228 22.9375 26.0662 22.9375 26.612Z" fill="white"/>
<path d="M36.498 23.7638C36.498 23.218 36.0545 22.7745 35.5088 22.7745C34.963 22.7745 34.5195 23.218 34.5195 23.7638C34.5195 24.3095 34.963 24.753 35.5088 24.753C36.0545 24.753 36.498 24.3095 36.498 23.7638Z" fill="white"/>
<path d="M48.5214 18.1866C48.5214 17.6408 48.078 17.1974 47.5322 17.1974C46.9864 17.1974 46.543 17.6408 46.543 18.1866C46.543 18.7324 46.9864 19.1758 47.5322 19.1758C48.078 19.1758 48.5214 18.7324 48.5214 18.1866Z" fill="white"/>
<path d="M36.1064 15.5772C36.6522 15.5772 37.0956 15.1338 37.0956 14.588C37.0956 14.0422 36.6522 13.5988 36.1064 13.5988C35.5606 13.5988 35.1172 14.0422 35.1172 14.588C35.1172 15.1338 35.5606 15.5772 36.1064 15.5772Z" fill="white"/>
<path d="M17.3603 59.4439C16.8145 59.4439 16.3711 59.8874 16.3711 60.4331C16.3711 60.9789 16.8145 61.4223 17.3603 61.4223C17.9061 61.4223 18.3495 60.9789 18.3495 60.4331C18.3495 59.8874 17.9061 59.4439 17.3603 59.4439Z" fill="white"/>
<path d="M33.7353 59.4439C33.1895 59.4439 32.7461 59.8874 32.7461 60.4331C32.7461 60.9789 33.1895 61.4223 33.7353 61.4223C34.2811 61.4223 34.7245 60.9789 34.7245 60.4331C34.7245 59.8874 34.2811 59.4439 33.7353 59.4439Z" fill="white"/>
<path d="M50.1064 59.4439C49.5606 59.4439 49.1172 59.8874 49.1172 60.4331C49.1172 60.9789 49.5606 61.4223 50.1064 61.4223C50.6522 61.4223 51.0956 60.9789 51.0956 60.4331C51.0956 59.8874 50.6522 59.4439 50.1064 59.4439Z" fill="white"/>
<path d="M55.4784 51.4278C55.4784 50.882 55.035 50.4386 54.4892 50.4386C53.9434 50.4386 53.5 50.882 53.5 51.4278C53.5 51.9736 53.9434 52.417 54.4892 52.417C55.035 52.417 55.4784 51.9736 55.4784 51.4278Z" fill="white"/>
<path d="M39.0722 51.2743C39.0722 50.7285 38.6287 50.2851 38.083 50.2851C37.5372 50.2851 37.0938 50.7285 37.0938 51.2743C37.0938 51.8201 37.5372 52.2635 38.083 52.2635C38.6287 52.2635 39.0722 51.8201 39.0722 51.2743Z" fill="white"/>
<path d="M22.6972 51.2743C22.6972 50.7285 22.2537 50.2851 21.708 50.2851C21.1622 50.2851 20.7188 50.7285 20.7188 51.2743C20.7188 51.8201 21.1622 52.2635 21.708 52.2635C22.2537 52.2635 22.6972 51.8201 22.6972 51.2743Z" fill="white"/>
<path d="M21.54 43.0877C22.0858 43.0877 22.5292 42.6442 22.5292 42.0985C22.5292 41.5527 22.0858 41.1093 21.54 41.1093C20.9942 41.1093 20.5508 41.5527 20.5508 42.0985C20.5508 42.6442 20.9942 43.0877 21.54 43.0877Z" fill="white"/>
<path d="M36.9414 42.0985C36.9414 42.6442 37.3848 43.0877 37.9306 43.0877C38.4764 43.0877 38.9198 42.6442 38.9198 42.0985C38.9198 41.5527 38.4764 41.1093 37.9306 41.1093C37.3848 41.1093 36.9414 41.5527 36.9414 42.0985Z" fill="white"/>
<path d="M55.0205 38.9773C54.4747 38.9773 54.0312 39.4207 54.0312 39.9665C54.0312 40.5123 54.4747 40.9557 55.0205 40.9557C55.5662 40.9557 56.0097 40.5123 56.0097 39.9665C56.0097 39.4207 55.5662 38.9773 55.0205 38.9773Z" fill="white"/>
<path d="M41.29 33.9289C41.8363 33.9289 42.2792 33.486 42.2792 32.9397C42.2792 32.3933 41.8363 31.9504 41.29 31.9504C40.7437 31.9504 40.3008 32.3933 40.3008 32.9397C40.3008 33.486 40.7437 33.9289 41.29 33.9289Z" fill="white"/>
<path d="M24.915 33.9118C25.4608 33.9118 25.9042 33.4684 25.9042 32.9226C25.9042 32.3769 25.4608 31.9334 24.915 31.9334C24.3692 31.9334 23.9258 32.3769 23.9258 32.9226C23.9258 33.4684 24.3692 33.9118 24.915 33.9118Z" fill="white"/>
<path d="M28.3105 23.7638C28.3105 23.218 27.867 22.7745 27.3213 22.7745C26.7755 22.7745 26.332 23.218 26.332 23.7638C26.332 24.3095 26.7755 24.753 27.3213 24.753C27.867 24.753 28.3105 24.3095 28.3105 23.7638Z" fill="white"/>
<path d="M44.6816 23.7638C44.6816 23.218 44.2381 22.7745 43.6923 22.7745C43.1466 22.7745 42.7031 23.218 42.7031 23.7638C42.7031 24.3095 43.1466 24.753 43.6923 24.753C44.2381 24.753 44.6816 24.3095 44.6816 23.7638Z" fill="white"/>
<path d="M45.1113 14.588C45.1113 14.0422 44.6678 13.5988 44.122 13.5988C43.5763 13.5988 43.1328 14.0422 43.1328 14.588C43.1328 15.1338 43.5763 15.5772 44.122 15.5772C44.6678 15.5772 45.1113 15.1338 45.1113 14.588Z" fill="white"/>
<path d="M27.832 56.8344C27.832 57.3802 28.2755 57.8237 28.8213 57.8237C29.367 57.8237 29.8105 57.3802 29.8105 56.8344C29.8105 56.2887 29.367 55.8452 28.8213 55.8452C28.2755 55.8452 27.832 56.2887 27.832 56.8344Z" fill="white"/>
<path d="M44.207 56.8344C44.207 57.3802 44.6505 57.8237 45.1963 57.8237C45.742 57.8237 46.1855 57.3802 46.1855 56.8344C46.1855 56.2887 45.742 55.8452 45.1963 55.8452C44.6505 55.8452 44.207 56.2887 44.207 56.8344Z" fill="white"/>
<path d="M60.8681 52.8434C60.3224 52.8434 59.8789 53.2869 59.8789 53.8327C59.8789 54.3784 60.3224 54.8219 60.8681 54.8219C61.4139 54.8219 61.8573 54.3784 61.8573 53.8327C61.8573 53.2869 61.4139 52.8434 60.8681 52.8434Z" fill="white"/>
<path d="M48.5703 47.6756C48.5703 48.2214 49.0138 48.6648 49.5595 48.6648C50.1053 48.6648 50.5488 48.2214 50.5488 47.6756C50.5488 47.1298 50.1053 46.6864 49.5595 46.6864C49.0138 46.6864 48.5703 47.1298 48.5703 47.6756Z" fill="white"/>
<path d="M33.1884 48.6648C33.7348 48.6648 34.1777 48.222 34.1777 47.6756C34.1777 47.1293 33.7348 46.6864 33.1884 46.6864C32.6421 46.6864 32.1992 47.1293 32.1992 47.6756C32.1992 48.222 32.6421 48.6648 33.1884 48.6648Z" fill="white"/>
<path d="M19.6455 44.8103C19.0997 44.8103 18.6562 45.2537 18.6562 45.7995C18.6562 46.3453 19.0997 46.7887 19.6455 46.7887C20.1912 46.7887 20.6347 46.3453 20.6347 45.7995C20.6347 45.2537 20.1912 44.8103 19.6455 44.8103Z" fill="white"/>
<path d="M33.0166 39.489C33.5623 39.489 34.0058 39.0456 34.0058 38.4998C34.0058 37.954 33.5623 37.5106 33.0166 37.5106C32.4708 37.5106 32.0273 37.954 32.0273 38.4998C32.0273 39.0456 32.4708 39.489 33.0166 39.489Z" fill="white"/>
<path d="M49.3916 39.489C49.9373 39.489 50.3808 39.0456 50.3808 38.4998C50.3808 37.954 49.9373 37.5106 49.3916 37.5106C48.8458 37.5106 48.4023 37.954 48.4023 38.4998C48.4023 39.0456 48.8458 39.489 49.3916 39.489Z" fill="white"/>
<path d="M51.7969 29.3921C51.7969 29.9379 52.2403 30.3813 52.7861 30.3813C53.3319 30.3813 53.7753 29.9379 53.7753 29.3921C53.7753 28.8463 53.3319 28.4029 52.7861 28.4029C52.2403 28.4029 51.7969 28.8463 51.7969 29.3921Z" fill="white"/>
<path d="M36.3759 30.3131C36.9217 30.3131 37.3652 29.8697 37.3652 29.3239C37.3652 28.7781 36.9217 28.3347 36.3759 28.3347C35.8302 28.3347 35.3867 28.7781 35.3867 29.3239C35.3867 29.8697 35.8302 30.3131 36.3759 30.3131Z" fill="white"/>
<path d="M22.0166 23.1156C22.5623 23.1156 23.0058 22.6722 23.0058 22.1264C23.0058 21.5806 22.5623 21.1372 22.0166 21.1372C21.4708 21.1372 21.0273 21.5806 21.0273 22.1264C21.0273 22.6722 21.4708 23.1156 22.0166 23.1156Z" fill="white"/>
<path d="M39.7714 20.1651C39.7714 19.6193 39.328 19.1759 38.7822 19.1759C38.2364 19.1759 37.793 19.6193 37.793 20.1651C37.793 20.7109 38.2364 21.1543 38.7822 21.1543C39.328 21.1543 39.7714 20.7109 39.7714 20.1651Z" fill="white"/>
<path d="M52.1377 17.5556C52.6834 17.5556 53.1269 17.1121 53.1269 16.5664C53.1269 16.0206 52.6834 15.5771 52.1377 15.5771C51.5919 15.5771 51.1484 16.0206 51.1484 16.5664C51.1484 17.1121 51.5919 17.5556 52.1377 17.5556Z" fill="white"/>
<path d="M39.3798 11.9955C39.9262 11.9955 40.3691 11.5526 40.3691 11.0063C40.3691 10.46 39.9262 10.0171 39.3798 10.0171C38.8335 10.0171 38.3906 10.46 38.3906 11.0063C38.3906 11.5526 38.8335 11.9955 39.3798 11.9955Z" fill="white"/>
<path d="M20.6338 57.8237C21.1801 57.8237 21.623 57.3808 21.623 56.8344C21.623 56.2881 21.1801 55.8452 20.6338 55.8452C20.0874 55.8452 19.6445 56.2881 19.6445 56.8344C19.6445 57.3808 20.0874 57.8237 20.6338 57.8237Z" fill="white"/>
<path d="M36.0195 56.8344C36.0195 57.3802 36.463 57.8237 37.0088 57.8237C37.5545 57.8237 37.998 57.3802 37.998 56.8344C37.998 56.2887 37.5545 55.8452 37.0088 55.8452C36.463 55.8452 36.0195 56.2887 36.0195 56.8344Z" fill="white"/>
<path d="M52.4102 56.8344C52.4102 57.3802 52.8536 57.8237 53.3994 57.8237C53.9452 57.8237 54.3886 57.3802 54.3886 56.8344C54.3886 56.2887 53.9452 55.8452 53.3994 55.8452C52.8536 55.8452 52.4102 56.2887 52.4102 56.8344Z" fill="white"/>
<path d="M58.2939 49.5517C58.8397 49.5517 59.2831 49.1083 59.2831 48.5625C59.2831 48.0167 58.8397 47.5733 58.2939 47.5733C57.7481 47.5733 57.3047 48.0167 57.3047 48.5625C57.3047 49.1083 57.7481 49.5517 58.2939 49.5517Z" fill="white"/>
<path d="M41.3759 48.6648C41.9223 48.6648 42.3652 48.222 42.3652 47.6756C42.3652 47.1293 41.9223 46.6864 41.3759 46.6864C40.8296 46.6864 40.3867 47.1293 40.3867 47.6756C40.3867 48.222 40.8296 48.6648 41.3759 48.6648Z" fill="white"/>
<path d="M24.0117 47.6756C24.0117 48.2214 24.4552 48.6648 25.0009 48.6648C25.5467 48.6648 25.9902 48.2214 25.9902 47.6756C25.9902 47.1298 25.5467 46.6864 25.0009 46.6864C24.4552 46.6864 24.0117 47.1298 24.0117 47.6756Z" fill="white"/>
<path d="M24.8134 39.489C25.3592 39.489 25.8027 39.0456 25.8027 38.4998C25.8027 37.954 25.3592 37.5106 24.8134 37.5106C24.2677 37.5106 23.8242 37.954 23.8242 38.4998C23.8242 39.0456 24.2677 39.489 24.8134 39.489Z" fill="white"/>
<path d="M41.2041 39.489C41.7498 39.489 42.1933 39.0456 42.1933 38.4998C42.1933 37.954 41.7498 37.5106 41.2041 37.5106C40.6583 37.5106 40.2148 37.954 40.2148 38.4998C40.2148 39.0456 40.6583 39.489 41.2041 39.489Z" fill="white"/>
<path d="M56.5869 34.901C57.1326 34.901 57.5761 34.4576 57.5761 33.9118C57.5761 33.3661 57.1326 32.9226 56.5869 32.9226C56.0411 32.9226 55.5977 33.3661 55.5977 33.9118C55.5977 34.4576 56.0411 34.901 56.5869 34.901Z" fill="white"/>
<path d="M53.6034 35.6003C53.6034 35.0545 53.16 34.6111 52.6142 34.6111C52.0684 34.6111 51.625 35.0545 51.625 35.6003C51.625 36.1461 52.0684 36.5895 52.6142 36.5895C53.16 36.5895 53.6034 36.1461 53.6034 35.6003Z" fill="white"/>
<path d="M44.5634 30.3131C45.1092 30.3131 45.5527 29.8697 45.5527 29.3239C45.5527 28.7781 45.1092 28.3347 44.5634 28.3347C44.0177 28.3347 43.5742 28.7781 43.5742 29.3239C43.5742 29.8697 44.0177 30.3131 44.5634 30.3131Z" fill="white"/>
<path d="M28.1923 30.3131C28.7381 30.3131 29.1816 29.8697 29.1816 29.3239C29.1816 28.7781 28.7381 28.3347 28.1923 28.3347C27.6466 28.3347 27.2031 28.7781 27.2031 29.3239C27.2031 29.8697 27.6466 30.3131 28.1923 30.3131Z" fill="white"/>
<path d="M30.6142 21.1543C31.16 21.1543 31.6034 20.7109 31.6034 20.1651C31.6034 19.6193 31.16 19.1759 30.6142 19.1759C30.0684 19.1759 29.625 19.6193 29.625 20.1651C29.625 20.7109 30.0684 21.1543 30.6142 21.1543Z" fill="white"/>
<path d="M49.1172 22.5358C49.1172 23.0816 49.5606 23.5251 50.1064 23.5251C50.6522 23.5251 51.0956 23.0816 51.0956 22.5358C51.0956 21.9901 50.6522 21.5466 50.1064 21.5466C49.5606 21.5466 49.1172 21.9901 49.1172 22.5358Z" fill="white"/>
<path d="M47.3955 11.9784C47.9412 11.9784 48.3847 11.535 48.3847 10.9892C48.3847 10.4434 47.9412 10 47.3955 10C46.8497 10 46.4062 10.4434 46.4062 10.9892C46.4062 11.535 46.8497 11.9784 47.3955 11.9784Z" fill="white"/>
</svg>
