<svg width="83" height="74" viewBox="0 0 83 74" fill="none" xmlns="http://www.w3.org/2000/svg">
<path d="M18.2497 21.5306H17.2932V22.3834H18.2497V21.5306Z" fill="white"/>
<path d="M21.2722 21.5306H20.3157V22.3834H21.2722V21.5306Z" fill="white"/>
<path d="M24.2947 21.5306H23.3383V22.3834H24.2947V21.5306Z" fill="white"/>
<path d="M27.2982 21.5306H26.3417V22.3834H27.2982V21.5306Z" fill="white"/>
<path d="M30.3206 21.5306H29.3641V22.3834H30.3206V21.5306Z" fill="white"/>
<path d="M33.3431 21.5306H32.3866V22.3834H33.3431V21.5306Z" fill="white"/>
<path d="M36.3465 21.5306H35.39V22.3834H36.3465V21.5306Z" fill="white"/>
<path d="M39.369 21.5306H38.4125V22.3834H39.369V21.5306Z" fill="white"/>
<path d="M18.2497 24.2254H17.2932V25.0782H18.2497V24.2254Z" fill="white"/>
<path d="M21.2722 24.2254H20.3157V25.0782H21.2722V24.2254Z" fill="white"/>
<path d="M24.2947 24.2254H23.3383V25.0782H24.2947V24.2254Z" fill="white"/>
<path d="M27.2982 24.2254H26.3417V25.0782H27.2982V24.2254Z" fill="white"/>
<path d="M30.3206 24.2254H29.3641V25.0782H30.3206V24.2254Z" fill="white"/>
<path d="M33.3431 24.2254H32.3866V25.0782H33.3431V24.2254Z" fill="white"/>
<path d="M36.3465 24.2254H35.39V25.0782H36.3465V24.2254Z" fill="white"/>
<path d="M39.369 24.2254H38.4125V25.0782H39.369V24.2254Z" fill="white"/>
<path d="M18.2497 26.9202H17.2932V27.7729H18.2497V26.9202Z" fill="white"/>
<path d="M21.2722 26.9202H20.3157V27.7729H21.2722V26.9202Z" fill="white"/>
<path d="M24.2947 26.9202H23.3383V27.7729H24.2947V26.9202Z" fill="white"/>
<path d="M27.2982 26.9202H26.3417V27.7729H27.2982V26.9202Z" fill="white"/>
<path d="M30.3206 26.9202H29.3641V27.7729H30.3206V26.9202Z" fill="white"/>
<path d="M33.3431 26.9202H32.3866V27.7729H33.3431V26.9202Z" fill="white"/>
<path d="M36.3465 26.9202H35.39V27.7729H36.3465V26.9202Z" fill="white"/>
<path d="M39.369 26.9202H38.4125V27.7729H39.369V26.9202Z" fill="white"/>
<path d="M18.2497 29.6149H17.2932V30.4677H18.2497V29.6149Z" fill="white"/>
<path d="M21.2722 29.6149H20.3157V30.4677H21.2722V29.6149Z" fill="white"/>
<path d="M24.2947 29.6149H23.3383V30.4677H24.2947V29.6149Z" fill="white"/>
<path d="M27.2982 29.6149H26.3417V30.4677H27.2982V29.6149Z" fill="white"/>
<path d="M30.3206 29.6149H29.3641V30.4677H30.3206V29.6149Z" fill="white"/>
<path d="M33.3431 29.6149H32.3866V30.4677H33.3431V29.6149Z" fill="white"/>
<path d="M36.3465 29.6149H35.39V30.4677H36.3465V29.6149Z" fill="white"/>
<path d="M39.369 29.6149H38.4125V30.4677H39.369V29.6149Z" fill="white"/>
<path d="M18.2497 32.2926H17.2932V33.1454H18.2497V32.2926Z" fill="white"/>
<path d="M21.2722 32.2926H20.3157V33.1454H21.2722V32.2926Z" fill="white"/>
<path d="M24.2947 32.2926H23.3383V33.1454H24.2947V32.2926Z" fill="white"/>
<path d="M27.2982 32.2926H26.3417V33.1454H27.2982V32.2926Z" fill="white"/>
<path d="M30.3206 32.2926H29.3641V33.1454H30.3206V32.2926Z" fill="white"/>
<path d="M33.3431 32.2926H32.3866V33.1454H33.3431V32.2926Z" fill="white"/>
<path d="M36.3465 32.2926H35.39V33.1454H36.3465V32.2926Z" fill="white"/>
<path d="M39.369 32.2926H38.4125V33.1454H39.369V32.2926Z" fill="white"/>
<path d="M18.2497 34.9874H17.2932V35.8402H18.2497V34.9874Z" fill="white"/>
<path d="M21.2722 34.9874H20.3157V35.8402H21.2722V34.9874Z" fill="white"/>
<path d="M24.2947 34.9874H23.3383V35.8402H24.2947V34.9874Z" fill="white"/>
<path d="M27.2982 34.9874H26.3417V35.8402H27.2982V34.9874Z" fill="white"/>
<path d="M30.3206 34.9874H29.3641V35.8402H30.3206V34.9874Z" fill="white"/>
<path d="M33.3431 34.9874H32.3866V35.8402H33.3431V34.9874Z" fill="white"/>
<path d="M36.3465 34.9874H35.39V35.8402H36.3465V34.9874Z" fill="white"/>
<path d="M39.369 34.9874H38.4125V35.8402H39.369V34.9874Z" fill="white"/>
<path d="M18.2497 37.6822H17.2932V38.535H18.2497V37.6822Z" fill="white"/>
<path d="M21.2722 37.6822H20.3157V38.535H21.2722V37.6822Z" fill="white"/>
<path d="M24.2947 37.6822H23.3383V38.535H24.2947V37.6822Z" fill="white"/>
<path d="M27.2982 37.6822H26.3417V38.535H27.2982V37.6822Z" fill="white"/>
<path d="M30.3206 37.6822H29.3641V38.535H30.3206V37.6822Z" fill="white"/>
<path d="M33.3431 37.6822H32.3866V38.535H33.3431V37.6822Z" fill="white"/>
<path d="M36.3465 37.6822H35.39V38.535H36.3465V37.6822Z" fill="white"/>
<path d="M39.369 37.6822H38.4125V38.535H39.369V37.6822Z" fill="white"/>
<path d="M18.2497 40.377H17.2932V41.2297H18.2497V40.377Z" fill="white"/>
<path d="M21.2722 40.377H20.3157V41.2297H21.2722V40.377Z" fill="white"/>
<path d="M24.2947 40.377H23.3383V41.2297H24.2947V40.377Z" fill="white"/>
<path d="M27.2982 40.377H26.3417V41.2297H27.2982V40.377Z" fill="white"/>
<path d="M30.3206 40.377H29.3641V41.2297H30.3206V40.377Z" fill="white"/>
<path d="M33.3431 40.377H32.3866V41.2297H33.3431V40.377Z" fill="white"/>
<path d="M36.3465 40.377H35.39V41.2297H36.3465V40.377Z" fill="white"/>
<path d="M39.369 40.377H38.4125V41.2297H39.369V40.377Z" fill="white"/>
<path d="M18.2497 44.0098H17.2932V44.8626H18.2497V44.0098Z" fill="white"/>
<path d="M21.2722 44.0098H20.3157V44.8626H21.2722V44.0098Z" fill="white"/>
<path d="M24.2947 44.0098H23.3383V44.8626H24.2947V44.0098Z" fill="white"/>
<path d="M27.2982 44.0098H26.3417V44.8626H27.2982V44.0098Z" fill="white"/>
<path d="M30.3206 44.0098H29.3641V44.8626H30.3206V44.0098Z" fill="white"/>
<path d="M33.3431 44.0098H32.3866V44.8626H33.3431V44.0098Z" fill="white"/>
<path d="M36.3465 44.0098H35.39V44.8626H36.3465V44.0098Z" fill="white"/>
<path d="M39.369 44.0098H38.4125V44.8626H39.369V44.0098Z" fill="white"/>
<path d="M18.2497 46.7046H17.2932V47.5573H18.2497V46.7046Z" fill="white"/>
<path d="M21.2722 46.7046H20.3157V47.5573H21.2722V46.7046Z" fill="white"/>
<path d="M24.2947 46.7046H23.3383V47.5573H24.2947V46.7046Z" fill="white"/>
<path d="M27.2982 46.7046H26.3417V47.5573H27.2982V46.7046Z" fill="white"/>
<path d="M30.3206 46.7046H29.3641V47.5573H30.3206V46.7046Z" fill="white"/>
<path d="M33.3431 46.7046H32.3866V47.5573H33.3431V46.7046Z" fill="white"/>
<path d="M36.3465 46.7046H35.39V47.5573H36.3465V46.7046Z" fill="white"/>
<path d="M39.369 46.7046H38.4125V47.5573H39.369V46.7046Z" fill="white"/>
<path d="M18.2497 49.3993H17.2932V50.2521H18.2497V49.3993Z" fill="white"/>
<path d="M21.2722 49.3993H20.3157V50.2521H21.2722V49.3993Z" fill="white"/>
<path d="M24.2947 49.3993H23.3383V50.2521H24.2947V49.3993Z" fill="white"/>
<path d="M27.2982 49.3993H26.3417V50.2521H27.2982V49.3993Z" fill="white"/>
<path d="M30.3206 49.3993H29.3641V50.2521H30.3206V49.3993Z" fill="white"/>
<path d="M33.3431 49.3993H32.3866V50.2521H33.3431V49.3993Z" fill="white"/>
<path d="M36.3465 49.3993H35.39V50.2521H36.3465V49.3993Z" fill="white"/>
<path d="M39.369 49.3993H38.4125V50.2521H39.369V49.3993Z" fill="white"/>
<path d="M18.2497 52.077H17.2932V52.9298H18.2497V52.077Z" fill="white"/>
<path d="M21.2722 52.077H20.3157V52.9298H21.2722V52.077Z" fill="white"/>
<path d="M24.2947 52.077H23.3383V52.9298H24.2947V52.077Z" fill="white"/>
<path d="M27.2982 52.077H26.3417V52.9298H27.2982V52.077Z" fill="white"/>
<path d="M30.3206 52.077H29.3641V52.9298H30.3206V52.077Z" fill="white"/>
<path d="M33.3431 52.077H32.3866V52.9298H33.3431V52.077Z" fill="white"/>
<path d="M36.3465 52.077H35.39V52.9298H36.3465V52.077Z" fill="white"/>
<path d="M39.369 52.077H38.4125V52.9298H39.369V52.077Z" fill="white"/>
<path d="M18.2497 54.7718H17.2932V55.6246H18.2497V54.7718Z" fill="white"/>
<path d="M21.2722 54.7718H20.3157V55.6246H21.2722V54.7718Z" fill="white"/>
<path d="M24.2947 54.7718H23.3383V55.6246H24.2947V54.7718Z" fill="white"/>
<path d="M27.2982 54.7718H26.3417V55.6246H27.2982V54.7718Z" fill="white"/>
<path d="M30.3206 54.7718H29.3641V55.6246H30.3206V54.7718Z" fill="white"/>
<path d="M33.3431 54.7718H32.3866V55.6246H33.3431V54.7718Z" fill="white"/>
<path d="M36.3465 54.7718H35.39V55.6246H36.3465V54.7718Z" fill="white"/>
<path d="M39.369 54.7718H38.4125V55.6246H39.369V54.7718Z" fill="white"/>
<path d="M18.2497 57.4666H17.2932V58.3193H18.2497V57.4666Z" fill="white"/>
<path d="M21.2722 57.4666H20.3157V58.3193H21.2722V57.4666Z" fill="white"/>
<path d="M24.2947 57.4666H23.3383V58.3193H24.2947V57.4666Z" fill="white"/>
<path d="M27.2982 57.4666H26.3417V58.3193H27.2982V57.4666Z" fill="white"/>
<path d="M30.3206 57.4666H29.3641V58.3193H30.3206V57.4666Z" fill="white"/>
<path d="M33.3431 57.4666H32.3866V58.3193H33.3431V57.4666Z" fill="white"/>
<path d="M36.3465 57.4666H35.39V58.3193H36.3465V57.4666Z" fill="white"/>
<path d="M39.369 57.4666H38.4125V58.3193H39.369V57.4666Z" fill="white"/>
<path d="M18.2497 60.1613H17.2932V61.0141H18.2497V60.1613Z" fill="white"/>
<path d="M21.2722 60.1613H20.3157V61.0141H21.2722V60.1613Z" fill="white"/>
<path d="M24.2947 60.1613H23.3383V61.0141H24.2947V60.1613Z" fill="white"/>
<path d="M27.2982 60.1613H26.3417V61.0141H27.2982V60.1613Z" fill="white"/>
<path d="M30.3206 60.1613H29.3641V61.0141H30.3206V60.1613Z" fill="white"/>
<path d="M33.3431 60.1613H32.3866V61.0141H33.3431V60.1613Z" fill="white"/>
<path d="M36.3465 60.1613H35.39V61.0141H36.3465V60.1613Z" fill="white"/>
<path d="M39.369 60.1613H38.4125V61.0141H39.369V60.1613Z" fill="white"/>
<path d="M18.2497 62.8391H17.2932V63.6918H18.2497V62.8391Z" fill="white"/>
<path d="M21.2722 62.8391H20.3157V63.6918H21.2722V62.8391Z" fill="white"/>
<path d="M24.2947 62.8391H23.3383V63.6918H24.2947V62.8391Z" fill="white"/>
<path d="M27.2982 62.8391H26.3417V63.6918H27.2982V62.8391Z" fill="white"/>
<path d="M30.3206 62.8391H29.3641V63.6918H30.3206V62.8391Z" fill="white"/>
<path d="M33.3431 62.8391H32.3866V63.6918H33.3431V62.8391Z" fill="white"/>
<path d="M36.3465 62.8391H35.39V63.6918H36.3465V62.8391Z" fill="white"/>
<path d="M39.369 62.8391H38.4125V63.6918H39.369V62.8391Z" fill="white"/>
<path d="M43.4628 10.3081H42.5063V11.1609H43.4628V10.3081Z" fill="white"/>
<path d="M46.4853 10.3081H45.5288V11.1609H46.4853V10.3081Z" fill="white"/>
<path d="M49.4887 10.3081H48.5322V11.1609H49.4887V10.3081Z" fill="white"/>
<path d="M52.5113 10.3081H51.5548V11.1609H52.5113V10.3081Z" fill="white"/>
<path d="M55.5338 10.3081H54.5773V11.1609H55.5338V10.3081Z" fill="white"/>
<path d="M58.5372 10.3081H57.5807V11.1609H58.5372V10.3081Z" fill="white"/>
<path d="M61.5596 10.3081H60.6031V11.1609H61.5596V10.3081Z" fill="white"/>
<path d="M64.5821 10.3081H63.6256V11.1609H64.5821V10.3081Z" fill="white"/>
<path d="M43.4628 12.9858H42.5063V13.8386H43.4628V12.9858Z" fill="white"/>
<path d="M46.4853 12.9858H45.5288V13.8386H46.4853V12.9858Z" fill="white"/>
<path d="M49.4887 12.9858H48.5322V13.8386H49.4887V12.9858Z" fill="white"/>
<path d="M52.5113 12.9858H51.5548V13.8386H52.5113V12.9858Z" fill="white"/>
<path d="M55.5338 12.9858H54.5773V13.8386H55.5338V12.9858Z" fill="white"/>
<path d="M58.5372 12.9858H57.5807V13.8386H58.5372V12.9858Z" fill="white"/>
<path d="M61.5596 12.9858H60.6031V13.8386H61.5596V12.9858Z" fill="white"/>
<path d="M64.5821 12.9858H63.6256V13.8386H64.5821V12.9858Z" fill="white"/>
<path d="M43.4628 15.6806H42.5063V16.5334H43.4628V15.6806Z" fill="white"/>
<path d="M46.4853 15.6806H45.5288V16.5334H46.4853V15.6806Z" fill="white"/>
<path d="M49.4887 15.6806H48.5322V16.5334H49.4887V15.6806Z" fill="white"/>
<path d="M52.5113 15.6806H51.5548V16.5334H52.5113V15.6806Z" fill="white"/>
<path d="M55.5338 15.6806H54.5773V16.5334H55.5338V15.6806Z" fill="white"/>
<path d="M58.5372 15.6806H57.5807V16.5334H58.5372V15.6806Z" fill="white"/>
<path d="M61.5596 15.6806H60.6031V16.5334H61.5596V15.6806Z" fill="white"/>
<path d="M64.5821 15.6806H63.6256V16.5334H64.5821V15.6806Z" fill="white"/>
<path d="M43.4628 18.3754H42.5063V19.2281H43.4628V18.3754Z" fill="white"/>
<path d="M46.4853 18.3754H45.5288V19.2281H46.4853V18.3754Z" fill="white"/>
<path d="M49.4887 18.3754H48.5322V19.2281H49.4887V18.3754Z" fill="white"/>
<path d="M52.5113 18.3754H51.5548V19.2281H52.5113V18.3754Z" fill="white"/>
<path d="M55.5338 18.3754H54.5773V19.2281H55.5338V18.3754Z" fill="white"/>
<path d="M58.5372 18.3754H57.5807V19.2281H58.5372V18.3754Z" fill="white"/>
<path d="M61.5596 18.3754H60.6031V19.2281H61.5596V18.3754Z" fill="white"/>
<path d="M64.5821 18.3754H63.6256V19.2281H64.5821V18.3754Z" fill="white"/>
<path d="M43.4628 21.0701H42.5063V21.9229H43.4628V21.0701Z" fill="white"/>
<path d="M46.4853 21.0701H45.5288V21.9229H46.4853V21.0701Z" fill="white"/>
<path d="M49.4887 21.0701H48.5322V21.9229H49.4887V21.0701Z" fill="white"/>
<path d="M52.5113 21.0701H51.5548V21.9229H52.5113V21.0701Z" fill="white"/>
<path d="M55.5338 21.0701H54.5773V21.9229H55.5338V21.0701Z" fill="white"/>
<path d="M58.5372 21.0701H57.5807V21.9229H58.5372V21.0701Z" fill="white"/>
<path d="M61.5596 21.0701H60.6031V21.9229H61.5596V21.0701Z" fill="white"/>
<path d="M64.5821 21.0701H63.6256V21.9229H64.5821V21.0701Z" fill="white"/>
<path d="M43.4628 23.7478H42.5063V24.6006H43.4628V23.7478Z" fill="white"/>
<path d="M46.4853 23.7478H45.5288V24.6006H46.4853V23.7478Z" fill="white"/>
<path d="M49.4887 23.7478H48.5322V24.6006H49.4887V23.7478Z" fill="white"/>
<path d="M52.5113 23.7478H51.5548V24.6006H52.5113V23.7478Z" fill="white"/>
<path d="M55.5338 23.7478H54.5773V24.6006H55.5338V23.7478Z" fill="white"/>
<path d="M58.5372 23.7478H57.5807V24.6006H58.5372V23.7478Z" fill="white"/>
<path d="M61.5596 23.7478H60.6031V24.6006H61.5596V23.7478Z" fill="white"/>
<path d="M64.5821 23.7478H63.6256V24.6006H64.5821V23.7478Z" fill="white"/>
<path d="M43.4628 26.4426H42.5063V27.2954H43.4628V26.4426Z" fill="white"/>
<path d="M46.4853 26.4426H45.5288V27.2954H46.4853V26.4426Z" fill="white"/>
<path d="M49.4887 26.4426H48.5322V27.2954H49.4887V26.4426Z" fill="white"/>
<path d="M52.5113 26.4426H51.5548V27.2954H52.5113V26.4426Z" fill="white"/>
<path d="M55.5338 26.4426H54.5773V27.2954H55.5338V26.4426Z" fill="white"/>
<path d="M58.5372 26.4426H57.5807V27.2954H58.5372V26.4426Z" fill="white"/>
<path d="M61.5596 26.4426H60.6031V27.2954H61.5596V26.4426Z" fill="white"/>
<path d="M64.5821 26.4426H63.6256V27.2954H64.5821V26.4426Z" fill="white"/>
<path d="M43.4628 29.1374H42.5063V29.9902H43.4628V29.1374Z" fill="white"/>
<path d="M46.4853 29.1374H45.5288V29.9902H46.4853V29.1374Z" fill="white"/>
<path d="M49.4887 29.1374H48.5322V29.9902H49.4887V29.1374Z" fill="white"/>
<path d="M52.5113 29.1374H51.5548V29.9902H52.5113V29.1374Z" fill="white"/>
<path d="M55.5338 29.1374H54.5773V29.9902H55.5338V29.1374Z" fill="white"/>
<path d="M58.5372 29.1374H57.5807V29.9902H58.5372V29.1374Z" fill="white"/>
<path d="M61.5596 29.1374H60.6031V29.9902H61.5596V29.1374Z" fill="white"/>
<path d="M64.5821 29.1374H63.6256V29.9902H64.5821V29.1374Z" fill="white"/>
<path d="M43.4628 32.7702H42.5063V33.623H43.4628V32.7702Z" fill="white"/>
<path d="M46.4853 32.7702H45.5288V33.623H46.4853V32.7702Z" fill="white"/>
<path d="M49.4887 32.7702H48.5322V33.623H49.4887V32.7702Z" fill="white"/>
<path d="M52.5113 32.7702H51.5548V33.623H52.5113V32.7702Z" fill="white"/>
<path d="M55.5338 32.7702H54.5773V33.623H55.5338V32.7702Z" fill="white"/>
<path d="M58.5372 32.7702H57.5807V33.623H58.5372V32.7702Z" fill="white"/>
<path d="M61.5596 32.7702H60.6031V33.623H61.5596V32.7702Z" fill="white"/>
<path d="M64.5821 32.7702H63.6256V33.623H64.5821V32.7702Z" fill="white"/>
<path d="M43.4628 35.465H42.5063V36.3177H43.4628V35.465Z" fill="white"/>
<path d="M46.4853 35.465H45.5288V36.3177H46.4853V35.465Z" fill="white"/>
<path d="M49.4887 35.465H48.5322V36.3177H49.4887V35.465Z" fill="white"/>
<path d="M52.5113 35.465H51.5548V36.3177H52.5113V35.465Z" fill="white"/>
<path d="M55.5338 35.465H54.5773V36.3177H55.5338V35.465Z" fill="white"/>
<path d="M58.5372 35.465H57.5807V36.3177H58.5372V35.465Z" fill="white"/>
<path d="M61.5596 35.465H60.6031V36.3177H61.5596V35.465Z" fill="white"/>
<path d="M64.5821 35.465H63.6256V36.3177H64.5821V35.465Z" fill="white"/>
<path d="M43.4628 38.1597H42.5063V39.0125H43.4628V38.1597Z" fill="white"/>
<path d="M46.4853 38.1597H45.5288V39.0125H46.4853V38.1597Z" fill="white"/>
<path d="M49.4887 38.1597H48.5322V39.0125H49.4887V38.1597Z" fill="white"/>
<path d="M52.5113 38.1597H51.5548V39.0125H52.5113V38.1597Z" fill="white"/>
<path d="M55.5338 38.1597H54.5773V39.0125H55.5338V38.1597Z" fill="white"/>
<path d="M58.5372 38.1597H57.5807V39.0125H58.5372V38.1597Z" fill="white"/>
<path d="M61.5596 38.1597H60.6031V39.0125H61.5596V38.1597Z" fill="white"/>
<path d="M64.5821 38.1597H63.6256V39.0125H64.5821V38.1597Z" fill="white"/>
<path d="M43.4628 40.8545H42.5063V41.7073H43.4628V40.8545Z" fill="white"/>
<path d="M46.4853 40.8545H45.5288V41.7073H46.4853V40.8545Z" fill="white"/>
<path d="M49.4887 40.8545H48.5322V41.7073H49.4887V40.8545Z" fill="white"/>
<path d="M52.5113 40.8545H51.5548V41.7073H52.5113V40.8545Z" fill="white"/>
<path d="M55.5338 40.8545H54.5773V41.7073H55.5338V40.8545Z" fill="white"/>
<path d="M58.5372 40.8545H57.5807V41.7073H58.5372V40.8545Z" fill="white"/>
<path d="M61.5596 40.8545H60.6031V41.7073H61.5596V40.8545Z" fill="white"/>
<path d="M64.5821 40.8545H63.6256V41.7073H64.5821V40.8545Z" fill="white"/>
<path d="M43.4628 43.5322H42.5063V44.385H43.4628V43.5322Z" fill="white"/>
<path d="M46.4853 43.5322H45.5288V44.385H46.4853V43.5322Z" fill="white"/>
<path d="M49.4887 43.5322H48.5322V44.385H49.4887V43.5322Z" fill="white"/>
<path d="M52.5113 43.5322H51.5548V44.385H52.5113V43.5322Z" fill="white"/>
<path d="M55.5338 43.5322H54.5773V44.385H55.5338V43.5322Z" fill="white"/>
<path d="M58.5372 43.5322H57.5807V44.385H58.5372V43.5322Z" fill="white"/>
<path d="M61.5596 43.5322H60.6031V44.385H61.5596V43.5322Z" fill="white"/>
<path d="M64.5821 43.5322H63.6256V44.385H64.5821V43.5322Z" fill="white"/>
<path d="M43.4628 46.227H42.5063V47.0798H43.4628V46.227Z" fill="white"/>
<path d="M46.4853 46.227H45.5288V47.0798H46.4853V46.227Z" fill="white"/>
<path d="M49.4887 46.227H48.5322V47.0798H49.4887V46.227Z" fill="white"/>
<path d="M52.5113 46.227H51.5548V47.0798H52.5113V46.227Z" fill="white"/>
<path d="M55.5338 46.227H54.5773V47.0798H55.5338V46.227Z" fill="white"/>
<path d="M58.5372 46.227H57.5807V47.0798H58.5372V46.227Z" fill="white"/>
<path d="M61.5596 46.227H60.6031V47.0798H61.5596V46.227Z" fill="white"/>
<path d="M64.5821 46.227H63.6256V47.0798H64.5821V46.227Z" fill="white"/>
<path d="M43.4628 48.9218H42.5063V49.7745H43.4628V48.9218Z" fill="white"/>
<path d="M46.4853 48.9218H45.5288V49.7745H46.4853V48.9218Z" fill="white"/>
<path d="M49.4887 48.9218H48.5322V49.7745H49.4887V48.9218Z" fill="white"/>
<path d="M52.5113 48.9218H51.5548V49.7745H52.5113V48.9218Z" fill="white"/>
<path d="M55.5338 48.9218H54.5773V49.7745H55.5338V48.9218Z" fill="white"/>
<path d="M58.5372 48.9218H57.5807V49.7745H58.5372V48.9218Z" fill="white"/>
<path d="M61.5596 48.9218H60.6031V49.7745H61.5596V48.9218Z" fill="white"/>
<path d="M64.5821 48.9218H63.6256V49.7745H64.5821V48.9218Z" fill="white"/>
<path d="M43.4628 51.6165H42.5063V52.4693H43.4628V51.6165Z" fill="white"/>
<path d="M46.4853 51.6165H45.5288V52.4693H46.4853V51.6165Z" fill="white"/>
<path d="M49.4887 51.6165H48.5322V52.4693H49.4887V51.6165Z" fill="white"/>
<path d="M52.5113 51.6165H51.5548V52.4693H52.5113V51.6165Z" fill="white"/>
<path d="M55.5338 51.6165H54.5773V52.4693H55.5338V51.6165Z" fill="white"/>
<path d="M58.5372 51.6165H57.5807V52.4693H58.5372V51.6165Z" fill="white"/>
<path d="M61.5596 51.6165H60.6031V52.4693H61.5596V51.6165Z" fill="white"/>
<path d="M64.5821 51.6165H63.6256V52.4693H64.5821V51.6165Z" fill="white"/>
<path d="M40.4602 8.48322V19.7228H15.2471V65.5168H41.4167V54.2772H66.6298V8.48322H40.4602ZM16.2036 20.5756H40.4602V42.2019H16.2036V20.5756ZM40.4602 64.664H16.2036V43.0377H40.4602V64.664ZM65.6733 53.4245H41.4167V31.7981H65.6733V53.4245ZM41.4167 30.9624V9.33599H65.6733V30.9624H41.4167Z" fill="white"/>
</svg>
