<svg width="75" height="74" viewBox="0 0 75 74" fill="none" xmlns="http://www.w3.org/2000/svg">
<path d="M67.3415 62.0193V10H8.5V62.0193H11.9111V62.8721H10.6319C10.3932 62.8721 10.2056 63.0597 10.2056 63.2984C10.2056 63.5372 10.3932 63.7248 10.6319 63.7248H14.043C14.2818 63.7248 14.4694 63.5372 14.4694 63.2984C14.4694 63.0597 14.2818 62.8721 14.043 62.8721H12.7639V62.0193H63.0776V62.8721H61.7985C61.5597 62.8721 61.3721 63.0597 61.3721 63.2984C61.3721 63.5372 61.5597 63.7248 61.7985 63.7248H65.2096C65.4483 63.7248 65.6359 63.5372 65.6359 63.2984C65.6359 63.0597 65.4483 62.8721 65.2096 62.8721H63.9304V62.0193H67.3415ZM9.35278 61.1665V10.8528H66.4887V61.1665H9.35278Z" fill="white"/>
<path d="M12.3348 14.0422C12.9188 14.0422 13.3922 13.5688 13.3922 12.9847C13.3922 12.4007 12.9188 11.9273 12.3348 11.9273C11.7508 11.9273 11.2773 12.4007 11.2773 12.9847C11.2773 13.5688 11.7508 14.0422 12.3348 14.0422Z" fill="white"/>
<path d="M12.3348 19.1588C12.9188 19.1588 13.3922 18.6854 13.3922 18.1014C13.3922 17.5174 12.9188 17.0439 12.3348 17.0439C11.7508 17.0439 11.2773 17.5174 11.2773 18.1014C11.2773 18.6854 11.7508 19.1588 12.3348 19.1588Z" fill="white"/>
<path d="M12.3348 24.2755C12.9188 24.2755 13.3922 23.802 13.3922 23.218C13.3922 22.634 12.9188 22.1606 12.3348 22.1606C11.7508 22.1606 11.2773 22.634 11.2773 23.218C11.2773 23.802 11.7508 24.2755 12.3348 24.2755Z" fill="white"/>
<path d="M12.3348 29.3921C12.9188 29.3921 13.3922 28.9187 13.3922 28.3347C13.3922 27.7507 12.9188 27.2772 12.3348 27.2772C11.7508 27.2772 11.2773 27.7507 11.2773 28.3347C11.2773 28.9187 11.7508 29.3921 12.3348 29.3921Z" fill="white"/>
<path d="M12.3348 34.5088C12.9188 34.5088 13.3922 34.0354 13.3922 33.4514C13.3922 32.8674 12.9188 32.3939 12.3348 32.3939C11.7508 32.3939 11.2773 32.8674 11.2773 33.4514C11.2773 34.0354 11.7508 34.5088 12.3348 34.5088Z" fill="white"/>
<path d="M12.3348 39.6254C12.9188 39.6254 13.3922 39.152 13.3922 38.568C13.3922 37.984 12.9188 37.5106 12.3348 37.5106C11.7508 37.5106 11.2773 37.984 11.2773 38.568C11.2773 39.152 11.7508 39.6254 12.3348 39.6254Z" fill="white"/>
<path d="M12.3348 44.7421C12.9188 44.7421 13.3922 44.2686 13.3922 43.6846C13.3922 43.1006 12.9188 42.6272 12.3348 42.6272C11.7508 42.6272 11.2773 43.1006 11.2773 43.6846C11.2773 44.2686 11.7508 44.7421 12.3348 44.7421Z" fill="white"/>
<path d="M12.3348 49.8587C12.9188 49.8587 13.3922 49.3853 13.3922 48.8013C13.3922 48.2173 12.9188 47.7438 12.3348 47.7438C11.7508 47.7438 11.2773 48.2173 11.2773 48.8013C11.2773 49.3853 11.7508 49.8587 12.3348 49.8587Z" fill="white"/>
<path d="M12.3348 54.9754C12.9188 54.9754 13.3922 54.5019 13.3922 53.9179C13.3922 53.3339 12.9188 52.8605 12.3348 52.8605C11.7508 52.8605 11.2773 53.3339 11.2773 53.9179C11.2773 54.5019 11.7508 54.9754 12.3348 54.9754Z" fill="white"/>
<path d="M12.3348 60.0921C12.9188 60.0921 13.3922 59.6186 13.3922 59.0346C13.3922 58.4506 12.9188 57.9772 12.3348 57.9772C11.7508 57.9772 11.2773 58.4506 11.2773 59.0346C11.2773 59.6186 11.7508 60.0921 12.3348 60.0921Z" fill="white"/>
<path d="M17.452 16.6005C18.036 16.6005 18.5094 16.1271 18.5094 15.5431C18.5094 14.9591 18.036 14.4857 17.452 14.4857C16.868 14.4857 16.3945 14.9591 16.3945 15.5431C16.3945 16.1271 16.868 16.6005 17.452 16.6005Z" fill="white"/>
<path d="M17.452 21.7172C18.036 21.7172 18.5094 21.2437 18.5094 20.6597C18.5094 20.0757 18.036 19.6023 17.452 19.6023C16.868 19.6023 16.3945 20.0757 16.3945 20.6597C16.3945 21.2437 16.868 21.7172 17.452 21.7172Z" fill="white"/>
<path d="M17.452 26.8338C18.036 26.8338 18.5094 26.3604 18.5094 25.7764C18.5094 25.1924 18.036 24.7189 17.452 24.7189C16.868 24.7189 16.3945 25.1924 16.3945 25.7764C16.3945 26.3604 16.868 26.8338 17.452 26.8338Z" fill="white"/>
<path d="M17.452 31.9505C18.036 31.9505 18.5094 31.477 18.5094 30.893C18.5094 30.309 18.036 29.8356 17.452 29.8356C16.868 29.8356 16.3945 30.309 16.3945 30.893C16.3945 31.477 16.868 31.9505 17.452 31.9505Z" fill="white"/>
<path d="M17.452 37.0671C18.036 37.0671 18.5094 36.5937 18.5094 36.0097C18.5094 35.4256 18.036 34.9522 17.452 34.9522C16.868 34.9522 16.3945 35.4256 16.3945 36.0097C16.3945 36.5937 16.868 37.0671 17.452 37.0671Z" fill="white"/>
<path d="M17.452 42.1838C18.036 42.1838 18.5094 41.7104 18.5094 41.1264C18.5094 40.5423 18.036 40.0689 17.452 40.0689C16.868 40.0689 16.3945 40.5423 16.3945 41.1264C16.3945 41.7104 16.868 42.1838 17.452 42.1838Z" fill="white"/>
<path d="M17.452 47.3004C18.036 47.3004 18.5094 46.827 18.5094 46.243C18.5094 45.659 18.036 45.1855 17.452 45.1855C16.868 45.1855 16.3945 45.659 16.3945 46.243C16.3945 46.827 16.868 47.3004 17.452 47.3004Z" fill="white"/>
<path d="M17.452 52.4171C18.036 52.4171 18.5094 51.9436 18.5094 51.3596C18.5094 50.7756 18.036 50.3022 17.452 50.3022C16.868 50.3022 16.3945 50.7756 16.3945 51.3596C16.3945 51.9436 16.868 52.4171 17.452 52.4171Z" fill="white"/>
<path d="M17.452 57.5337C18.036 57.5337 18.5094 57.0603 18.5094 56.4763C18.5094 55.8923 18.036 55.4188 17.452 55.4188C16.868 55.4188 16.3945 55.8923 16.3945 56.4763C16.3945 57.0603 16.868 57.5337 17.452 57.5337Z" fill="white"/>
<path d="M22.5692 14.0422C23.1532 14.0422 23.6266 13.5688 23.6266 12.9847C23.6266 12.4007 23.1532 11.9273 22.5692 11.9273C21.9852 11.9273 21.5117 12.4007 21.5117 12.9847C21.5117 13.5688 21.9852 14.0422 22.5692 14.0422Z" fill="white"/>
<path d="M22.5692 19.1588C23.1532 19.1588 23.6266 18.6854 23.6266 18.1014C23.6266 17.5174 23.1532 17.0439 22.5692 17.0439C21.9852 17.0439 21.5117 17.5174 21.5117 18.1014C21.5117 18.6854 21.9852 19.1588 22.5692 19.1588Z" fill="white"/>
<path d="M22.5692 24.2755C23.1532 24.2755 23.6266 23.802 23.6266 23.218C23.6266 22.634 23.1532 22.1606 22.5692 22.1606C21.9852 22.1606 21.5117 22.634 21.5117 23.218C21.5117 23.802 21.9852 24.2755 22.5692 24.2755Z" fill="white"/>
<path d="M22.5692 29.3921C23.1532 29.3921 23.6266 28.9187 23.6266 28.3347C23.6266 27.7507 23.1532 27.2772 22.5692 27.2772C21.9852 27.2772 21.5117 27.7507 21.5117 28.3347C21.5117 28.9187 21.9852 29.3921 22.5692 29.3921Z" fill="white"/>
<path d="M22.5692 34.5088C23.1532 34.5088 23.6266 34.0354 23.6266 33.4514C23.6266 32.8674 23.1532 32.3939 22.5692 32.3939C21.9852 32.3939 21.5117 32.8674 21.5117 33.4514C21.5117 34.0354 21.9852 34.5088 22.5692 34.5088Z" fill="white"/>
<path d="M22.5692 39.6254C23.1532 39.6254 23.6266 39.152 23.6266 38.568C23.6266 37.984 23.1532 37.5106 22.5692 37.5106C21.9852 37.5106 21.5117 37.984 21.5117 38.568C21.5117 39.152 21.9852 39.6254 22.5692 39.6254Z" fill="white"/>
<path d="M22.5692 44.7421C23.1532 44.7421 23.6266 44.2686 23.6266 43.6846C23.6266 43.1006 23.1532 42.6272 22.5692 42.6272C21.9852 42.6272 21.5117 43.1006 21.5117 43.6846C21.5117 44.2686 21.9852 44.7421 22.5692 44.7421Z" fill="white"/>
<path d="M22.5692 49.8587C23.1532 49.8587 23.6266 49.3853 23.6266 48.8013C23.6266 48.2173 23.1532 47.7438 22.5692 47.7438C21.9852 47.7438 21.5117 48.2173 21.5117 48.8013C21.5117 49.3853 21.9852 49.8587 22.5692 49.8587Z" fill="white"/>
<path d="M22.5692 54.9754C23.1532 54.9754 23.6266 54.5019 23.6266 53.9179C23.6266 53.3339 23.1532 52.8605 22.5692 52.8605C21.9852 52.8605 21.5117 53.3339 21.5117 53.9179C21.5117 54.5019 21.9852 54.9754 22.5692 54.9754Z" fill="white"/>
<path d="M22.5692 60.0921C23.1532 60.0921 23.6266 59.6186 23.6266 59.0346C23.6266 58.4506 23.1532 57.9772 22.5692 57.9772C21.9852 57.9772 21.5117 58.4506 21.5117 59.0346C21.5117 59.6186 21.9852 60.0921 22.5692 60.0921Z" fill="white"/>
<path d="M27.6863 16.6005C28.2704 16.6005 28.7438 16.1271 28.7438 15.5431C28.7438 14.9591 28.2704 14.4857 27.6863 14.4857C27.1023 14.4857 26.6289 14.9591 26.6289 15.5431C26.6289 16.1271 27.1023 16.6005 27.6863 16.6005Z" fill="white"/>
<path d="M27.6863 21.7172C28.2704 21.7172 28.7438 21.2437 28.7438 20.6597C28.7438 20.0757 28.2704 19.6023 27.6863 19.6023C27.1023 19.6023 26.6289 20.0757 26.6289 20.6597C26.6289 21.2437 27.1023 21.7172 27.6863 21.7172Z" fill="white"/>
<path d="M27.6863 26.8338C28.2704 26.8338 28.7438 26.3604 28.7438 25.7764C28.7438 25.1924 28.2704 24.7189 27.6863 24.7189C27.1023 24.7189 26.6289 25.1924 26.6289 25.7764C26.6289 26.3604 27.1023 26.8338 27.6863 26.8338Z" fill="white"/>
<path d="M27.6863 31.9505C28.2704 31.9505 28.7438 31.477 28.7438 30.893C28.7438 30.309 28.2704 29.8356 27.6863 29.8356C27.1023 29.8356 26.6289 30.309 26.6289 30.893C26.6289 31.477 27.1023 31.9505 27.6863 31.9505Z" fill="white"/>
<path d="M27.6863 37.0671C28.2704 37.0671 28.7438 36.5937 28.7438 36.0097C28.7438 35.4256 28.2704 34.9522 27.6863 34.9522C27.1023 34.9522 26.6289 35.4256 26.6289 36.0097C26.6289 36.5937 27.1023 37.0671 27.6863 37.0671Z" fill="white"/>
<path d="M27.6863 42.1838C28.2704 42.1838 28.7438 41.7104 28.7438 41.1264C28.7438 40.5423 28.2704 40.0689 27.6863 40.0689C27.1023 40.0689 26.6289 40.5423 26.6289 41.1264C26.6289 41.7104 27.1023 42.1838 27.6863 42.1838Z" fill="white"/>
<path d="M27.6863 47.3004C28.2704 47.3004 28.7438 46.827 28.7438 46.243C28.7438 45.659 28.2704 45.1855 27.6863 45.1855C27.1023 45.1855 26.6289 45.659 26.6289 46.243C26.6289 46.827 27.1023 47.3004 27.6863 47.3004Z" fill="white"/>
<path d="M27.6863 52.4171C28.2704 52.4171 28.7438 51.9436 28.7438 51.3596C28.7438 50.7756 28.2704 50.3022 27.6863 50.3022C27.1023 50.3022 26.6289 50.7756 26.6289 51.3596C26.6289 51.9436 27.1023 52.4171 27.6863 52.4171Z" fill="white"/>
<path d="M27.6863 57.5337C28.2704 57.5337 28.7438 57.0603 28.7438 56.4763C28.7438 55.8923 28.2704 55.4188 27.6863 55.4188C27.1023 55.4188 26.6289 55.8923 26.6289 56.4763C26.6289 57.0603 27.1023 57.5337 27.6863 57.5337Z" fill="white"/>
<path d="M32.8035 14.0422C33.3875 14.0422 33.861 13.5688 33.861 12.9847C33.861 12.4007 33.3875 11.9273 32.8035 11.9273C32.2195 11.9273 31.7461 12.4007 31.7461 12.9847C31.7461 13.5688 32.2195 14.0422 32.8035 14.0422Z" fill="white"/>
<path d="M32.8035 19.1588C33.3875 19.1588 33.861 18.6854 33.861 18.1014C33.861 17.5174 33.3875 17.0439 32.8035 17.0439C32.2195 17.0439 31.7461 17.5174 31.7461 18.1014C31.7461 18.6854 32.2195 19.1588 32.8035 19.1588Z" fill="white"/>
<path d="M32.8035 24.2755C33.3875 24.2755 33.861 23.802 33.861 23.218C33.861 22.634 33.3875 22.1606 32.8035 22.1606C32.2195 22.1606 31.7461 22.634 31.7461 23.218C31.7461 23.802 32.2195 24.2755 32.8035 24.2755Z" fill="white"/>
<path d="M32.8035 29.3921C33.3875 29.3921 33.861 28.9187 33.861 28.3347C33.861 27.7507 33.3875 27.2772 32.8035 27.2772C32.2195 27.2772 31.7461 27.7507 31.7461 28.3347C31.7461 28.9187 32.2195 29.3921 32.8035 29.3921Z" fill="white"/>
<path d="M32.8035 34.5088C33.3875 34.5088 33.861 34.0354 33.861 33.4514C33.861 32.8674 33.3875 32.3939 32.8035 32.3939C32.2195 32.3939 31.7461 32.8674 31.7461 33.4514C31.7461 34.0354 32.2195 34.5088 32.8035 34.5088Z" fill="white"/>
<path d="M32.8035 39.6254C33.3875 39.6254 33.861 39.152 33.861 38.568C33.861 37.984 33.3875 37.5106 32.8035 37.5106C32.2195 37.5106 31.7461 37.984 31.7461 38.568C31.7461 39.152 32.2195 39.6254 32.8035 39.6254Z" fill="white"/>
<path d="M32.8035 44.7421C33.3875 44.7421 33.861 44.2686 33.861 43.6846C33.861 43.1006 33.3875 42.6272 32.8035 42.6272C32.2195 42.6272 31.7461 43.1006 31.7461 43.6846C31.7461 44.2686 32.2195 44.7421 32.8035 44.7421Z" fill="white"/>
<path d="M32.8035 49.8587C33.3875 49.8587 33.861 49.3853 33.861 48.8013C33.861 48.2173 33.3875 47.7438 32.8035 47.7438C32.2195 47.7438 31.7461 48.2173 31.7461 48.8013C31.7461 49.3853 32.2195 49.8587 32.8035 49.8587Z" fill="white"/>
<path d="M32.8035 54.9754C33.3875 54.9754 33.861 54.5019 33.861 53.9179C33.861 53.3339 33.3875 52.8605 32.8035 52.8605C32.2195 52.8605 31.7461 53.3339 31.7461 53.9179C31.7461 54.5019 32.2195 54.9754 32.8035 54.9754Z" fill="white"/>
<path d="M32.8035 60.0921C33.3875 60.0921 33.861 59.6186 33.861 59.0346C33.861 58.4506 33.3875 57.9772 32.8035 57.9772C32.2195 57.9772 31.7461 58.4506 31.7461 59.0346C31.7461 59.6186 32.2195 60.0921 32.8035 60.0921Z" fill="white"/>
<path d="M37.9207 16.6005C38.5047 16.6005 38.9782 16.1271 38.9782 15.5431C38.9782 14.9591 38.5047 14.4857 37.9207 14.4857C37.3367 14.4857 36.8633 14.9591 36.8633 15.5431C36.8633 16.1271 37.3367 16.6005 37.9207 16.6005Z" fill="white"/>
<path d="M37.9207 21.7172C38.5047 21.7172 38.9782 21.2437 38.9782 20.6597C38.9782 20.0757 38.5047 19.6023 37.9207 19.6023C37.3367 19.6023 36.8633 20.0757 36.8633 20.6597C36.8633 21.2437 37.3367 21.7172 37.9207 21.7172Z" fill="white"/>
<path d="M37.9207 26.8338C38.5047 26.8338 38.9782 26.3604 38.9782 25.7764C38.9782 25.1924 38.5047 24.7189 37.9207 24.7189C37.3367 24.7189 36.8633 25.1924 36.8633 25.7764C36.8633 26.3604 37.3367 26.8338 37.9207 26.8338Z" fill="white"/>
<path d="M37.9207 31.9505C38.5047 31.9505 38.9782 31.477 38.9782 30.893C38.9782 30.309 38.5047 29.8356 37.9207 29.8356C37.3367 29.8356 36.8633 30.309 36.8633 30.893C36.8633 31.477 37.3367 31.9505 37.9207 31.9505Z" fill="white"/>
<path d="M37.9207 37.0671C38.5047 37.0671 38.9782 36.5937 38.9782 36.0097C38.9782 35.4256 38.5047 34.9522 37.9207 34.9522C37.3367 34.9522 36.8633 35.4256 36.8633 36.0097C36.8633 36.5937 37.3367 37.0671 37.9207 37.0671Z" fill="white"/>
<path d="M37.9207 42.1838C38.5047 42.1838 38.9782 41.7104 38.9782 41.1264C38.9782 40.5423 38.5047 40.0689 37.9207 40.0689C37.3367 40.0689 36.8633 40.5423 36.8633 41.1264C36.8633 41.7104 37.3367 42.1838 37.9207 42.1838Z" fill="white"/>
<path d="M37.9207 47.3004C38.5047 47.3004 38.9782 46.827 38.9782 46.243C38.9782 45.659 38.5047 45.1855 37.9207 45.1855C37.3367 45.1855 36.8633 45.659 36.8633 46.243C36.8633 46.827 37.3367 47.3004 37.9207 47.3004Z" fill="white"/>
<path d="M37.9207 52.4171C38.5047 52.4171 38.9782 51.9436 38.9782 51.3596C38.9782 50.7756 38.5047 50.3022 37.9207 50.3022C37.3367 50.3022 36.8633 50.7756 36.8633 51.3596C36.8633 51.9436 37.3367 52.4171 37.9207 52.4171Z" fill="white"/>
<path d="M37.9207 57.5337C38.5047 57.5337 38.9782 57.0603 38.9782 56.4763C38.9782 55.8923 38.5047 55.4188 37.9207 55.4188C37.3367 55.4188 36.8633 55.8923 36.8633 56.4763C36.8633 57.0603 37.3367 57.5337 37.9207 57.5337Z" fill="white"/>
<path d="M43.034 14.0422C43.618 14.0422 44.0914 13.5688 44.0914 12.9847C44.0914 12.4007 43.618 11.9273 43.034 11.9273C42.45 11.9273 41.9766 12.4007 41.9766 12.9847C41.9766 13.5688 42.45 14.0422 43.034 14.0422Z" fill="white"/>
<path d="M43.034 19.1588C43.618 19.1588 44.0914 18.6854 44.0914 18.1014C44.0914 17.5174 43.618 17.0439 43.034 17.0439C42.45 17.0439 41.9766 17.5174 41.9766 18.1014C41.9766 18.6854 42.45 19.1588 43.034 19.1588Z" fill="white"/>
<path d="M43.034 24.2755C43.618 24.2755 44.0914 23.802 44.0914 23.218C44.0914 22.634 43.618 22.1606 43.034 22.1606C42.45 22.1606 41.9766 22.634 41.9766 23.218C41.9766 23.802 42.45 24.2755 43.034 24.2755Z" fill="white"/>
<path d="M43.034 29.3921C43.618 29.3921 44.0914 28.9187 44.0914 28.3347C44.0914 27.7507 43.618 27.2772 43.034 27.2772C42.45 27.2772 41.9766 27.7507 41.9766 28.3347C41.9766 28.9187 42.45 29.3921 43.034 29.3921Z" fill="white"/>
<path d="M43.034 34.5088C43.618 34.5088 44.0914 34.0354 44.0914 33.4514C44.0914 32.8674 43.618 32.3939 43.034 32.3939C42.45 32.3939 41.9766 32.8674 41.9766 33.4514C41.9766 34.0354 42.45 34.5088 43.034 34.5088Z" fill="white"/>
<path d="M43.034 39.6254C43.618 39.6254 44.0914 39.152 44.0914 38.568C44.0914 37.984 43.618 37.5106 43.034 37.5106C42.45 37.5106 41.9766 37.984 41.9766 38.568C41.9766 39.152 42.45 39.6254 43.034 39.6254Z" fill="white"/>
<path d="M43.034 44.7421C43.618 44.7421 44.0914 44.2686 44.0914 43.6846C44.0914 43.1006 43.618 42.6272 43.034 42.6272C42.45 42.6272 41.9766 43.1006 41.9766 43.6846C41.9766 44.2686 42.45 44.7421 43.034 44.7421Z" fill="white"/>
<path d="M43.034 49.8587C43.618 49.8587 44.0914 49.3853 44.0914 48.8013C44.0914 48.2173 43.618 47.7438 43.034 47.7438C42.45 47.7438 41.9766 48.2173 41.9766 48.8013C41.9766 49.3853 42.45 49.8587 43.034 49.8587Z" fill="white"/>
<path d="M43.034 54.9754C43.618 54.9754 44.0914 54.5019 44.0914 53.9179C44.0914 53.3339 43.618 52.8605 43.034 52.8605C42.45 52.8605 41.9766 53.3339 41.9766 53.9179C41.9766 54.5019 42.45 54.9754 43.034 54.9754Z" fill="white"/>
<path d="M43.034 60.0921C43.618 60.0921 44.0914 59.6186 44.0914 59.0346C44.0914 58.4506 43.618 57.9772 43.034 57.9772C42.45 57.9772 41.9766 58.4506 41.9766 59.0346C41.9766 59.6186 42.45 60.0921 43.034 60.0921Z" fill="white"/>
<path d="M48.1512 16.6005C48.7352 16.6005 49.2086 16.1271 49.2086 15.5431C49.2086 14.9591 48.7352 14.4857 48.1512 14.4857C47.5672 14.4857 47.0938 14.9591 47.0938 15.5431C47.0938 16.1271 47.5672 16.6005 48.1512 16.6005Z" fill="white"/>
<path d="M48.1512 21.7172C48.7352 21.7172 49.2086 21.2437 49.2086 20.6597C49.2086 20.0757 48.7352 19.6023 48.1512 19.6023C47.5672 19.6023 47.0938 20.0757 47.0938 20.6597C47.0938 21.2437 47.5672 21.7172 48.1512 21.7172Z" fill="white"/>
<path d="M48.1512 26.8338C48.7352 26.8338 49.2086 26.3604 49.2086 25.7764C49.2086 25.1924 48.7352 24.7189 48.1512 24.7189C47.5672 24.7189 47.0938 25.1924 47.0938 25.7764C47.0938 26.3604 47.5672 26.8338 48.1512 26.8338Z" fill="white"/>
<path d="M48.1512 31.9505C48.7352 31.9505 49.2086 31.477 49.2086 30.893C49.2086 30.309 48.7352 29.8356 48.1512 29.8356C47.5672 29.8356 47.0938 30.309 47.0938 30.893C47.0938 31.477 47.5672 31.9505 48.1512 31.9505Z" fill="white"/>
<path d="M48.1512 37.0671C48.7352 37.0671 49.2086 36.5937 49.2086 36.0097C49.2086 35.4256 48.7352 34.9522 48.1512 34.9522C47.5672 34.9522 47.0938 35.4256 47.0938 36.0097C47.0938 36.5937 47.5672 37.0671 48.1512 37.0671Z" fill="white"/>
<path d="M48.1512 42.1838C48.7352 42.1838 49.2086 41.7104 49.2086 41.1264C49.2086 40.5423 48.7352 40.0689 48.1512 40.0689C47.5672 40.0689 47.0938 40.5423 47.0938 41.1264C47.0938 41.7104 47.5672 42.1838 48.1512 42.1838Z" fill="white"/>
<path d="M48.1512 47.3004C48.7352 47.3004 49.2086 46.827 49.2086 46.243C49.2086 45.659 48.7352 45.1855 48.1512 45.1855C47.5672 45.1855 47.0938 45.659 47.0938 46.243C47.0938 46.827 47.5672 47.3004 48.1512 47.3004Z" fill="white"/>
<path d="M48.1512 52.4171C48.7352 52.4171 49.2086 51.9436 49.2086 51.3596C49.2086 50.7756 48.7352 50.3022 48.1512 50.3022C47.5672 50.3022 47.0938 50.7756 47.0938 51.3596C47.0938 51.9436 47.5672 52.4171 48.1512 52.4171Z" fill="white"/>
<path d="M48.1512 57.5337C48.7352 57.5337 49.2086 57.0603 49.2086 56.4763C49.2086 55.8923 48.7352 55.4188 48.1512 55.4188C47.5672 55.4188 47.0938 55.8923 47.0938 56.4763C47.0938 57.0603 47.5672 57.5337 48.1512 57.5337Z" fill="white"/>
<path d="M53.2684 14.0422C53.8524 14.0422 54.3258 13.5688 54.3258 12.9847C54.3258 12.4007 53.8524 11.9273 53.2684 11.9273C52.6844 11.9273 52.2109 12.4007 52.2109 12.9847C52.2109 13.5688 52.6844 14.0422 53.2684 14.0422Z" fill="white"/>
<path d="M53.2684 19.1588C53.8524 19.1588 54.3258 18.6854 54.3258 18.1014C54.3258 17.5174 53.8524 17.0439 53.2684 17.0439C52.6844 17.0439 52.2109 17.5174 52.2109 18.1014C52.2109 18.6854 52.6844 19.1588 53.2684 19.1588Z" fill="white"/>
<path d="M53.2684 24.2755C53.8524 24.2755 54.3258 23.802 54.3258 23.218C54.3258 22.634 53.8524 22.1606 53.2684 22.1606C52.6844 22.1606 52.2109 22.634 52.2109 23.218C52.2109 23.802 52.6844 24.2755 53.2684 24.2755Z" fill="white"/>
<path d="M53.2684 29.3921C53.8524 29.3921 54.3258 28.9187 54.3258 28.3347C54.3258 27.7507 53.8524 27.2772 53.2684 27.2772C52.6844 27.2772 52.2109 27.7507 52.2109 28.3347C52.2109 28.9187 52.6844 29.3921 53.2684 29.3921Z" fill="white"/>
<path d="M53.2684 34.5088C53.8524 34.5088 54.3258 34.0354 54.3258 33.4514C54.3258 32.8674 53.8524 32.3939 53.2684 32.3939C52.6844 32.3939 52.2109 32.8674 52.2109 33.4514C52.2109 34.0354 52.6844 34.5088 53.2684 34.5088Z" fill="white"/>
<path d="M53.2684 39.6254C53.8524 39.6254 54.3258 39.152 54.3258 38.568C54.3258 37.984 53.8524 37.5106 53.2684 37.5106C52.6844 37.5106 52.2109 37.984 52.2109 38.568C52.2109 39.152 52.6844 39.6254 53.2684 39.6254Z" fill="white"/>
<path d="M53.2684 44.7421C53.8524 44.7421 54.3258 44.2686 54.3258 43.6846C54.3258 43.1006 53.8524 42.6272 53.2684 42.6272C52.6844 42.6272 52.2109 43.1006 52.2109 43.6846C52.2109 44.2686 52.6844 44.7421 53.2684 44.7421Z" fill="white"/>
<path d="M53.2684 49.8587C53.8524 49.8587 54.3258 49.3853 54.3258 48.8013C54.3258 48.2173 53.8524 47.7438 53.2684 47.7438C52.6844 47.7438 52.2109 48.2173 52.2109 48.8013C52.2109 49.3853 52.6844 49.8587 53.2684 49.8587Z" fill="white"/>
<path d="M53.2684 54.9754C53.8524 54.9754 54.3258 54.5019 54.3258 53.9179C54.3258 53.3339 53.8524 52.8605 53.2684 52.8605C52.6844 52.8605 52.2109 53.3339 52.2109 53.9179C52.2109 54.5019 52.6844 54.9754 53.2684 54.9754Z" fill="white"/>
<path d="M53.2684 60.0921C53.8524 60.0921 54.3258 59.6186 54.3258 59.0346C54.3258 58.4506 53.8524 57.9772 53.2684 57.9772C52.6844 57.9772 52.2109 58.4506 52.2109 59.0346C52.2109 59.6186 52.6844 60.0921 53.2684 60.0921Z" fill="white"/>
<path d="M58.3856 16.6005C58.9696 16.6005 59.443 16.1271 59.443 15.5431C59.443 14.9591 58.9696 14.4857 58.3856 14.4857C57.8016 14.4857 57.3281 14.9591 57.3281 15.5431C57.3281 16.1271 57.8016 16.6005 58.3856 16.6005Z" fill="white"/>
<path d="M58.3856 21.7172C58.9696 21.7172 59.443 21.2437 59.443 20.6597C59.443 20.0757 58.9696 19.6023 58.3856 19.6023C57.8016 19.6023 57.3281 20.0757 57.3281 20.6597C57.3281 21.2437 57.8016 21.7172 58.3856 21.7172Z" fill="white"/>
<path d="M58.3856 26.8338C58.9696 26.8338 59.443 26.3604 59.443 25.7764C59.443 25.1924 58.9696 24.7189 58.3856 24.7189C57.8016 24.7189 57.3281 25.1924 57.3281 25.7764C57.3281 26.3604 57.8016 26.8338 58.3856 26.8338Z" fill="white"/>
<path d="M58.3856 31.9505C58.9696 31.9505 59.443 31.477 59.443 30.893C59.443 30.309 58.9696 29.8356 58.3856 29.8356C57.8016 29.8356 57.3281 30.309 57.3281 30.893C57.3281 31.477 57.8016 31.9505 58.3856 31.9505Z" fill="white"/>
<path d="M58.3856 37.0671C58.9696 37.0671 59.443 36.5937 59.443 36.0097C59.443 35.4256 58.9696 34.9522 58.3856 34.9522C57.8016 34.9522 57.3281 35.4256 57.3281 36.0097C57.3281 36.5937 57.8016 37.0671 58.3856 37.0671Z" fill="white"/>
<path d="M58.3856 42.1838C58.9696 42.1838 59.443 41.7104 59.443 41.1264C59.443 40.5423 58.9696 40.0689 58.3856 40.0689C57.8016 40.0689 57.3281 40.5423 57.3281 41.1264C57.3281 41.7104 57.8016 42.1838 58.3856 42.1838Z" fill="white"/>
<path d="M58.3856 47.3004C58.9696 47.3004 59.443 46.827 59.443 46.243C59.443 45.659 58.9696 45.1855 58.3856 45.1855C57.8016 45.1855 57.3281 45.659 57.3281 46.243C57.3281 46.827 57.8016 47.3004 58.3856 47.3004Z" fill="white"/>
<path d="M58.3856 52.4171C58.9696 52.4171 59.443 51.9436 59.443 51.3596C59.443 50.7756 58.9696 50.3022 58.3856 50.3022C57.8016 50.3022 57.3281 50.7756 57.3281 51.3596C57.3281 51.9436 57.8016 52.4171 58.3856 52.4171Z" fill="white"/>
<path d="M58.3856 57.5337C58.9696 57.5337 59.443 57.0603 59.443 56.4763C59.443 55.8923 58.9696 55.4188 58.3856 55.4188C57.8016 55.4188 57.3281 55.8923 57.3281 56.4763C57.3281 57.0603 57.8016 57.5337 58.3856 57.5337Z" fill="white"/>
<path d="M63.5028 14.0422C64.0868 14.0422 64.5602 13.5688 64.5602 12.9847C64.5602 12.4007 64.0868 11.9273 63.5028 11.9273C62.9187 11.9273 62.4453 12.4007 62.4453 12.9847C62.4453 13.5688 62.9187 14.0422 63.5028 14.0422Z" fill="white"/>
<path d="M63.5028 19.1588C64.0868 19.1588 64.5602 18.6854 64.5602 18.1014C64.5602 17.5174 64.0868 17.0439 63.5028 17.0439C62.9187 17.0439 62.4453 17.5174 62.4453 18.1014C62.4453 18.6854 62.9187 19.1588 63.5028 19.1588Z" fill="white"/>
<path d="M63.5028 24.2755C64.0868 24.2755 64.5602 23.802 64.5602 23.218C64.5602 22.634 64.0868 22.1606 63.5028 22.1606C62.9187 22.1606 62.4453 22.634 62.4453 23.218C62.4453 23.802 62.9187 24.2755 63.5028 24.2755Z" fill="white"/>
<path d="M63.5028 29.3921C64.0868 29.3921 64.5602 28.9187 64.5602 28.3347C64.5602 27.7507 64.0868 27.2772 63.5028 27.2772C62.9187 27.2772 62.4453 27.7507 62.4453 28.3347C62.4453 28.9187 62.9187 29.3921 63.5028 29.3921Z" fill="white"/>
<path d="M63.5028 34.5088C64.0868 34.5088 64.5602 34.0354 64.5602 33.4514C64.5602 32.8674 64.0868 32.3939 63.5028 32.3939C62.9187 32.3939 62.4453 32.8674 62.4453 33.4514C62.4453 34.0354 62.9187 34.5088 63.5028 34.5088Z" fill="white"/>
<path d="M63.5028 39.6254C64.0868 39.6254 64.5602 39.152 64.5602 38.568C64.5602 37.984 64.0868 37.5106 63.5028 37.5106C62.9187 37.5106 62.4453 37.984 62.4453 38.568C62.4453 39.152 62.9187 39.6254 63.5028 39.6254Z" fill="white"/>
<path d="M63.5028 44.7421C64.0868 44.7421 64.5602 44.2686 64.5602 43.6846C64.5602 43.1006 64.0868 42.6272 63.5028 42.6272C62.9187 42.6272 62.4453 43.1006 62.4453 43.6846C62.4453 44.2686 62.9187 44.7421 63.5028 44.7421Z" fill="white"/>
<path d="M63.5028 49.8587C64.0868 49.8587 64.5602 49.3853 64.5602 48.8013C64.5602 48.2173 64.0868 47.7438 63.5028 47.7438C62.9187 47.7438 62.4453 48.2173 62.4453 48.8013C62.4453 49.3853 62.9187 49.8587 63.5028 49.8587Z" fill="white"/>
<path d="M63.5028 54.9754C64.0868 54.9754 64.5602 54.5019 64.5602 53.9179C64.5602 53.3339 64.0868 52.8605 63.5028 52.8605C62.9187 52.8605 62.4453 53.3339 62.4453 53.9179C62.4453 54.5019 62.9187 54.9754 63.5028 54.9754Z" fill="white"/>
<path d="M63.5028 60.0921C64.0868 60.0921 64.5602 59.6186 64.5602 59.0346C64.5602 58.4506 64.0868 57.9772 63.5028 57.9772C62.9187 57.9772 62.4453 58.4506 62.4453 59.0346C62.4453 59.6186 62.9187 60.0921 63.5028 60.0921Z" fill="white"/>
</svg>
