<svg width="130" height="56" viewBox="0 0 130 56" fill="none" xmlns="http://www.w3.org/2000/svg">
<path d="M79.6551 38.1355C77.9124 38.3878 76.3174 36.989 76.4015 35.175L76.1901 26.9099C76.2512 25.4118 75.6041 23.9748 74.4448 23.0245C73.9888 22.6525 73.1403 22.3773 72.4855 22.2015C70.2154 21.5875 67.7466 22.1761 66.0829 23.8372L65.7466 24.1735C65.1122 23.134 64.4854 22.5429 63.2064 22.3391L61.8433 22.148C61.5835 22.1073 61.3491 22.3085 61.3516 22.571L61.4637 31.0093C61.4866 32.6832 61.5911 34.3189 60.5771 35.6514C60.1847 36.1661 59.5325 36.4591 58.9006 36.324C58.0777 36.1457 57.5859 35.3992 57.6216 34.5966L57.4407 24.12C57.4866 23.0474 56.6484 22.2041 55.5732 22.2449C54.47 22.2882 53.6572 22.8385 52.9973 23.8474C52.3375 24.8564 50.3298 25.715 49.4712 25.715C49.4712 25.715 49.5145 24.8156 49.4635 23.4831C49.3871 21.4856 47.4635 20.069 45.7055 21.0092C43.7106 22.0767 43.6061 24.8487 45.4533 26.0768C46.1412 26.5328 46.903 26.8309 47.6903 26.9761C47.6903 26.9761 47.7743 32.3036 47.7692 33.4934C47.7616 34.6833 46.4291 35.7533 44.9131 35.7533C43.3972 35.7533 43.0838 34.2858 43.0456 33.0807C43.0074 31.8756 42.8163 25.6869 42.8163 25.6869C42.694 23.4933 41.4175 22.0436 39.3029 21.6512L38.1054 21.4296C37.8481 21.3811 37.606 21.5773 37.6035 21.8398C37.6035 21.8398 38.113 32.1507 38.0341 33.7508C37.9551 35.3482 37.0124 35.9954 35.8608 35.9954C34.7092 35.9954 33.7563 35.2285 33.7155 34.0004C33.7155 34.0004 33.5856 28.4309 33.5856 26.6475C33.5856 24.864 33.4225 22.7213 31.4938 21.9417C30.5384 21.5569 28.9562 21.4627 28.1664 21.7812L27.1141 22.2066C26.8976 22.2933 26.8746 22.5914 27.0759 22.7111L27.3791 22.892C28.3371 23.4678 28.7116 24.4283 28.7779 25.6538C28.8441 26.8793 28.7142 28.3596 28.7142 31.6437C28.7142 37.2336 32.3728 39.0451 34.9079 39.0451C37.443 39.0451 38.7322 36.0744 38.7322 36.0744C38.7322 36.0744 40.7449 38.8821 43.6826 39.0451C47.8202 39.2744 49.7005 36.3852 49.6266 33.8705C49.5527 31.3533 49.433 27.1265 49.433 27.1265C50.9642 27.1265 52.3349 26.5965 52.3349 26.5965C52.3349 26.5965 51.7999 30.3367 52.3477 33.5826C53.0101 37.5241 55.1095 39.0477 57.321 39.0477C59.5325 39.0477 60.7886 37.8425 61.6701 36.268L62.1771 35.3635L62.2153 37.1801C62.2153 38.2451 63.0739 39.0273 64.3504 39.0273C65.6268 39.0273 66.5339 38.5279 66.6358 37.1801L66.3479 26.6959C66.4065 25.8933 67.2294 25.2513 67.9453 24.8844C69.1632 24.2602 71.0078 25.0933 70.9798 26.8309L71.497 34.0106C71.4944 36.2909 73.1658 38.3368 75.2983 39.1419C76.7888 39.705 78.4321 39.6668 79.8869 39.0451C80.1341 38.9407 80.2538 38.6553 80.1417 38.4107C80.0474 38.2273 79.8564 38.1075 79.6551 38.1355ZM47.8406 25.3379C47.2852 25.1799 46.7552 24.9175 46.2915 24.5404C45.6928 24.0563 45.6316 23.1009 46.3042 22.7289C47.0355 22.3238 47.759 23.0066 47.8457 23.7379C47.9348 24.4665 47.8406 25.3379 47.8406 25.3379Z" fill="white"/>
<path d="M27.0252 32.7677C26.8519 32.8186 26.8137 34.0416 25.9423 35.2798C25.4481 35.9805 24.3907 36.9257 23.4353 36.6404C22.4671 36.3525 22.3576 35.0785 22.3423 34.2556C22.3372 34.0441 22.1869 25.2618 22.0824 19.1369C22.8901 19.0783 23.6748 19.0299 24.4009 18.9993C25.3436 18.9611 26.1971 18.9586 26.9818 18.984C27.764 19.0095 28.4443 19.0324 29.0048 19.0503C29.6265 19.0758 30.1029 19.0936 30.4061 19.1038C30.6532 19.114 30.7832 19.0579 30.8087 19.0019C30.8341 18.9458 30.6915 18.8643 30.4341 18.7726C30.1462 18.6681 29.7029 18.5178 29.122 18.3445C28.5742 18.1815 27.9041 18.0006 27.1245 17.8273C26.3525 17.6541 25.4404 17.4885 24.4544 17.3942C23.7028 17.3178 22.8926 17.277 22.0518 17.2592C22.0111 14.9254 21.9856 13.3101 21.9856 13.3101C21.9856 12.6349 21.8888 11.1317 21.8888 11.1317C21.8556 9.27688 20.3881 7.76603 18.5358 7.68196L17.0301 7.61317C16.5995 7.59278 16.2403 7.93674 16.2403 8.36732C16.2403 8.36732 16.2607 12.5508 16.3779 17.7178C15.5626 17.891 14.7396 18.1152 13.9167 18.4337L13.4402 18.6222C13.3663 18.6503 13.1498 18.7394 13.0428 18.7726C12.8466 18.8312 12.5842 18.9 12.3319 18.9178C11.8249 18.9688 11.2924 18.8949 10.7727 18.7216C10.686 18.6936 10.6045 18.6452 10.5204 18.6121C10.6504 18.5025 10.7752 18.3853 10.8975 18.2554C11.1625 17.9598 11.3154 17.7076 11.4657 17.3534C11.5956 17.0146 11.7154 16.5585 11.5192 16.0566C11.3204 15.5419 10.816 15.2591 10.4287 15.1649C10.2402 15.1063 9.97266 15.0833 9.85036 15.0782C9.63125 15.0681 9.44781 15.0782 9.24143 15.1114C8.44397 15.2362 7.60319 15.8095 7.35351 16.7573C7.22866 17.221 7.29236 17.7585 7.52166 18.1866C7.57771 18.2936 7.64141 18.3955 7.71275 18.4898C7.76625 18.5687 7.90638 18.7165 7.9446 18.7522C8.00065 18.8057 8.04906 18.849 8.09747 18.8923C7.44268 19.1598 6.77006 19.3254 6.1382 19.3764C5.68724 19.4095 5.25411 19.384 4.8643 19.2898C4.67066 19.2388 4.48722 19.1777 4.31906 19.0961C4.22225 19.0528 4.12543 19.007 4.02861 18.9637C3.93435 18.9229 3.81969 18.8872 3.71778 18.849C2.89229 18.584 2.13814 18.7089 1.58781 18.8617C1.02984 19.0197 0.622192 19.1955 0.339385 19.3025C0.211994 19.3509 0.112629 19.3891 0.0387428 19.4146C-0.0478828 19.4477 0.023456 19.6414 0.127916 19.6133C0.199255 19.593 0.296072 19.5649 0.415819 19.5318C0.706269 19.4503 1.12921 19.3127 1.66679 19.2108C2.19929 19.114 2.87191 19.0707 3.53943 19.3407C3.62096 19.3789 3.69485 19.4044 3.78402 19.4503C3.87065 19.4961 3.95728 19.5446 4.04645 19.593C4.24518 19.7102 4.46429 19.8019 4.69104 19.8783C5.14965 20.0261 5.64647 20.0898 6.16113 20.0898C7.04522 20.0821 7.97772 19.8936 8.90258 19.5216C9.30258 19.7968 9.73061 20.0388 10.1969 20.2274C10.8797 20.5076 11.6415 20.6783 12.4135 20.6554C12.8033 20.6503 13.1727 20.5943 13.5931 20.4923C13.7944 20.4388 13.8734 20.4159 14.1027 20.3446L14.523 20.2172C15.1447 20.0388 15.7842 19.9038 16.4263 19.7891C16.625 27.1752 17.2339 35.5142 17.8352 36.8391C18.546 38.4034 20.3372 39.0251 21.6748 39.0226C22.8315 39.02 24.7576 38.5741 26.1079 37.0225C26.6634 36.383 27.0761 35.5779 27.3003 34.755C27.4303 34.2785 27.6239 32.5944 27.0252 32.7677ZM9.47838 16.3649C9.57775 16.3394 9.70514 16.3292 9.79431 16.3267C9.9803 16.3292 10.0236 16.3292 10.1306 16.3522C10.3319 16.3904 10.4134 16.4592 10.444 16.5152C10.4873 16.5764 10.4924 16.7573 10.4236 16.9662C10.3599 17.1649 10.2147 17.4273 10.0924 17.5675C9.93444 17.7585 9.74335 17.9369 9.53188 18.0974C9.44781 18.0413 9.35863 17.9955 9.27456 17.9369C9.165 17.8579 9.02742 17.7509 8.94844 17.6847L8.90512 17.6464L8.89238 17.6312C8.88219 17.6235 8.872 17.6133 8.85672 17.5955C8.82869 17.5649 8.80321 17.5318 8.78538 17.5012C8.70639 17.3738 8.67327 17.2388 8.7013 17.0859C8.74461 16.7725 9.06309 16.4566 9.47838 16.3649Z" fill="white"/>
<path d="M129.985 46.913C129.985 46.5742 129.906 46.0264 129.712 45.392C129.511 44.7525 129.136 44.0034 128.502 43.2951C127.962 42.6913 127.215 42.118 126.293 41.7486C126.257 41.4378 126.204 41.127 126.094 40.8314C125.852 40.0594 125.442 39.3231 124.891 38.6989C123.791 37.4479 122.109 36.6581 120.372 36.6657C120.331 36.6683 120.288 36.6683 120.247 36.6683L120.31 28.0796C120.351 25.1624 118.231 22.4082 115.467 22.4082C114.089 22.4082 113.179 23.3509 113.182 24.6121L113.192 34.6326C113.085 37.4122 110.519 37.0148 110.578 35.5014L110.723 25.5598C110.746 25.1369 110.547 24.2477 110.239 23.8655C109.546 23.012 108.68 22.5178 107.587 22.4006L106.723 22.3088C106.399 22.2732 106.119 22.5356 106.132 22.8592C106.132 22.8592 106.216 27.0834 106.292 30.2809C106.336 32.0491 105.704 33.7689 104.529 35.0912C103.969 35.7205 102.754 36.7982 101.813 36.5205C100.861 36.2377 100.415 34.7804 100.397 33.9727C100.17 30.4618 100.111 25.9598 100.111 25.9598C105.138 23.9343 108.315 17.4654 106.32 12.4106C105.839 11.1902 104.861 10.2322 103.627 9.7787C98.9649 8.06148 94.6235 10.8946 94.6133 16.2782C94.6082 18.9839 94.812 27.5624 95.049 31.8631C95.2528 35.532 93.8566 37.1906 91.589 37.1014C89.8285 37.0326 88.282 32.9893 88.282 32.1638C89.6527 30.923 90.761 29.2542 91.5253 27.7943C92.2871 26.3344 92.6056 24.7012 92.6056 23.4859C92.6056 22.556 92.3738 21.812 91.9075 21.2566C91.4438 20.7012 90.7585 20.4235 89.854 20.4235C88.1571 20.4235 86.8272 22.3521 85.8616 26.1942L85.5456 13.1596C85.5125 11.3278 83.8666 9.70991 82.0347 9.62329L80.771 9.55959C80.3456 9.53921 79.7646 9.89336 79.7646 10.3188L80.585 36.9358C80.5825 38.0237 81.464 38.7779 82.552 38.7779H83.5558C84.5596 38.7779 85.4947 38.3728 85.9737 37.4912C86.3304 36.8364 86.6055 36.2938 86.9546 35.1039C86.9546 35.1804 88.496 38.9995 91.2272 38.9995C94.5216 38.9995 95.6451 35.7867 95.6451 35.8351C95.6451 35.8861 96.0197 36.7141 96.1292 36.8798C96.5191 37.4708 97.7012 39.0352 99.9025 39.0352C102.792 39.0352 104.137 37.5345 104.72 36.8925C105.345 36.2046 105.913 35.43 106.392 34.681C106.394 34.8007 106.397 34.7549 106.399 34.8491C106.453 37.0454 108.292 38.7779 110.491 38.7779H110.743C112.975 38.7779 115.011 37.2798 115.322 35.0683L115.291 38.2454C114.805 38.6377 114.043 39.1575 112.718 40.9486C108.438 46.7347 110.54 53.1857 111.826 54.5768C112.657 55.4737 114.55 56.1514 116.698 54.9259C118.846 53.7029 120.104 50.4137 120.104 46.7194C120.104 43.0251 120.221 38.4084 120.221 38.4084C120.282 38.4033 120.346 38.4008 120.407 38.3932C121.64 38.3193 122.909 38.8135 123.793 39.7104C124.255 40.1792 124.606 40.7499 124.823 41.3588C124.82 41.3614 124.82 41.3614 124.82 41.3614C124.548 41.3282 124.316 41.2671 123.888 41.369C123.093 41.5626 122.476 42.3703 122.54 43.2671C122.565 43.7053 122.8 44.1639 123.085 44.4416C123.442 44.806 123.895 44.9716 124.377 44.9894C124.853 44.9971 125.332 44.8264 125.704 44.4952C126.076 44.1588 126.316 43.6773 126.339 43.155L126.364 42.6327C126.364 42.6123 126.362 42.5843 126.362 42.5614C127.049 42.8365 127.635 43.2416 128.092 43.6849C128.706 44.2888 129.106 44.9487 129.345 45.527C129.577 46.1156 129.686 46.5818 129.717 46.9385C129.74 47.099 129.753 47.2188 129.758 47.3028C129.765 47.4022 129.819 47.4557 129.878 47.4583C129.936 47.4608 129.985 47.4124 129.987 47.3232C130 47.2315 129.995 47.0761 129.985 46.913ZM87.989 29.0121C88.1954 27.3586 88.4909 26.3497 88.7126 25.5726C88.9317 24.798 89.3775 24.4108 89.8412 24.4108C90.2795 24.4108 90.5011 24.6579 90.5011 25.1471C90.5011 25.6643 90.3814 26.3216 89.9661 27.2541C89.2094 28.9535 87.8106 30.3421 87.8106 30.3421L87.989 29.0121ZM99.9229 17.3788C99.9178 16.0208 100.636 14.7622 101.808 14.0743L101.938 13.9979C103.003 13.3762 104.338 13.9291 104.641 15.0934L104.667 15.1953C105.38 17.9317 103.717 22.1662 100.104 24.6299L99.9229 17.3788ZM115.564 42.8442C115.579 45.6391 115.444 49.1347 113.898 51.4787C113.391 52.2481 112.473 52.6532 112.086 50.7067C111.187 46.1818 112.573 43.0174 115.572 40.0773C115.569 40.0773 115.556 41.7817 115.564 42.8442ZM124.695 43.848C124.512 43.8582 124.298 43.7843 124.188 43.6849C123.997 43.5142 123.921 43.3665 123.88 43.1677C123.816 42.7779 124.076 42.3474 124.453 42.2276C124.497 42.2149 124.525 42.2072 124.568 42.1945L124.756 42.1817C124.891 42.1894 125.029 42.1945 125.162 42.2021C125.23 42.2098 125.297 42.2174 125.363 42.2276C125.381 42.3474 125.404 42.4595 125.406 42.6047L125.409 43.1295C125.424 43.4913 125.095 43.8302 124.695 43.848Z" fill="white"/>
<path d="M125.22 22.3629H124.657V19.5476H123.702V19.0635H126.186V19.5476H125.22V22.3629ZM127.967 22.3629L127.047 19.8049H127.012L127.04 20.396V22.3629H126.494V19.0635H127.35L128.247 21.6215L129.177 19.0635H130V22.3629H129.419V20.4393L129.447 19.8125H129.412L128.446 22.3629H127.967Z" fill="white"/>
<path d="M64.9652 6.76244C64.5881 5.80701 63.5716 5.43758 62.6391 5.27962C61.5588 5.09617 60.4352 5.09617 59.3728 5.38153C59.1078 3.98788 58.5651 2.61206 57.6759 1.49612C57.5409 1.32541 56.6874 0.408203 56.4937 0.408203C56.3867 0.408203 55.8389 1.15726 55.6173 1.48083C55.2529 2.00823 54.9268 2.56365 54.6746 3.15219C54.5498 3.44265 54.3892 3.93437 54.3077 4.24266C54.2542 4.44648 54.1115 4.8898 54.3103 4.92292C54.537 4.96114 54.5956 4.77005 54.6517 4.4898C54.7332 4.07705 54.9014 3.71526 55.0873 3.33818C55.4313 2.64518 55.9103 2.02352 56.4428 1.46554C57.253 2.40059 57.7218 3.59806 57.9358 4.80572C57.9918 5.1191 58.0301 5.43503 58.053 5.75351C58.0708 6.02358 58.025 6.3446 58.109 6.60193C58.2899 7.165 58.7715 7.11149 59.2046 6.97391C60.2543 6.64524 61.7804 6.8083 62.797 7.23379C63.3295 7.45799 62.8327 7.87838 62.583 8.14081C62.1346 8.6147 61.6199 9.01471 61.1027 9.40962C60.6543 9.75102 60.1447 10.0517 59.7167 10.4185C59.197 10.8644 59.3931 11.3663 59.5052 11.9192C59.6861 12.8262 59.8849 13.8912 59.8798 14.8008C59.8798 14.997 59.7065 14.8466 59.6123 14.7728C59.2836 14.5205 58.988 14.2199 58.7027 13.9218C58.3052 13.5039 57.9281 13.0683 57.574 12.6122C57.225 12.1638 56.8734 11.7307 56.2823 11.6211C55.3727 11.453 54.5676 12.2912 53.8822 12.7625C53.5765 12.974 53.179 13.267 52.8223 13.3842C52.7714 13.2517 52.9523 12.7065 53.1892 12.0262C53.4313 11.3358 53.8389 10.7727 53.5587 10.1332C53.2657 9.46567 52.5293 9.05802 51.9714 8.63763C51.2223 8.07202 50.5293 7.45035 49.8975 6.75735C51.1102 6.27326 52.4223 6.29364 53.658 6.68856C54.2389 6.87455 54.802 7.12678 55.3319 7.42997C55.5867 7.57519 55.9281 7.86819 56.0963 7.7459C56.3103 7.59048 56.0071 7.26946 55.6784 6.88983C54.0325 4.98407 51.7956 3.96495 49.2478 4.42355C48.3153 4.59171 47.2579 4.93311 46.7203 5.77134C46.2159 6.56116 46.7331 7.40704 47.156 8.11278C47.7879 9.17267 48.6108 10.2708 49.4898 11.1396C49.2325 11.7842 49.0337 12.5613 48.965 12.8848C48.8197 13.5702 48.7509 14.2734 48.7204 14.974C48.6923 15.5906 48.7153 16.2276 48.7968 16.839C48.8987 17.8683 49.849 18.6378 50.8733 18.5282C51.5128 18.4594 52.9217 17.6645 53.523 17.3078C54.5039 16.7218 55.6886 15.6645 55.7778 15.5881C56.3332 16.1588 57.1842 16.8339 57.8797 17.2314C59.332 18.062 60.4174 18.4289 60.9371 18.4594C62.0148 18.5231 62.2008 17.7639 62.397 16.7855C62.7435 15.0581 62.5957 13.5422 62.0556 11.8581C61.9792 11.6211 62.3027 11.4682 62.476 11.3103C62.718 11.0912 62.9575 10.8695 63.1945 10.6402C63.5715 10.2784 63.9435 9.90899 64.2671 9.49624C64.8582 8.74464 65.3601 7.72551 64.9652 6.76244C65.1588 7.23124 64.7792 6.2911 64.9652 6.76244Z" fill="white"/>
</svg>
