<?xml version="1.0" encoding="utf-8"?><svg viewBox="0 0 32 32" xmlns="http://www.w3.org/2000/svg" xmlns:xlink="http://www.w3.org/1999/xlink"><style>:root>svg{display:none}:root>svg:target{display:block}</style><svg fill="none" viewBox="0 0 24 25" id="sprite--arr-right" xmlns="http://www.w3.org/2000/svg"><g clip-path="url(#aclip0_272_818)"><path d="M8 2.3l9.9 9.9L8 22.098" stroke="#fff" stroke-width="2"/></g><defs><clipPath id="aclip0_272_818"><path fill="#fff" transform="translate(0 .3)" d="M0 0h24v24H0z"/></clipPath></defs></svg><svg fill="none" viewBox="0 0 24 23" id="sprite--cart" xmlns="http://www.w3.org/2000/svg"><path d="M18 18.5a2 2 0 11-2 2c0-1.11.89-2 2-2zM2 2.5h3.27l.94 2H21a1 1 0 011 1c0 .17-.05.34-.12.5l-3.58 6.47c-.34.61-1 1.03-1.75 1.03H9.1l-.9 1.63-.03.12a.25.25 0 00.25.25H20v2H8a2 2 0 01-2-2c0-.35.09-.68.24-.96l1.36-2.45L4 4.5H2v-2zm6 16a2 2 0 11-2 2c0-1.11.89-2 2-2zm9-7l2.78-5H7.14l2.36 5H17z" fill="currentColor"/></svg><svg fill="none" viewBox="0 0 32 32" id="sprite--menu" xmlns="http://www.w3.org/2000/svg"><path d="M1.5 6h29m-29 10h29m-29 10h29" stroke="#fff" stroke-width="2"/></svg><svg fill="none" viewBox="0 0 26 27" id="sprite--telegram" xmlns="http://www.w3.org/2000/svg"><path d="M24.489 3.459c-.098-.252-.196-.315-.327-.347-.36-.126-.916.063-.916.063S2.608 10.293 1.431 11.08c-.262.158-.327.284-.393.378-.196.567.425.82.425.82l5.332 1.668s.196.032.261 0c1.21-.724 12.167-7.4 12.789-7.621.098-.032.163 0 .163.063-.261.85-9.78 9.007-9.78 9.007s-.032.032-.064.095l-.491 5.07s-.196 1.544 1.406 0c1.145-1.102 2.257-2.015 2.78-2.456 1.832 1.228 3.794 2.551 4.645 3.275.425.347.785.41 1.079.41.818-.032 1.047-.882 1.047-.882s3.76-14.582 3.892-16.535c0-.189.032-.315.032-.441 0-.22-.032-.378-.065-.472z" fill="#fff"/></svg><svg fill="none" viewBox="0 0 22 23" id="sprite--user" xmlns="http://www.w3.org/2000/svg"><circle cx="11" cy="7.5" r="4.25" stroke="currentColor" stroke-width="1.5"/><path d="M2 20.5v0a7.257 7.257 0 016.897-5h4.557a6.772 6.772 0 016.437 4.666L20 20.5" stroke="currentColor" stroke-width="1.5" stroke-linecap="round"/></svg><svg fill="none" viewBox="0 0 26 27" id="sprite--whatsapp" xmlns="http://www.w3.org/2000/svg"><path fill-rule="evenodd" clip-rule="evenodd" d="M22.22 3.972C19.773 1.534 16.538.21 13.06.18 5.926.18.12 5.958.12 13.06c0 2.257.606 4.484 1.724 6.44L0 26.18l6.863-1.805a13.064 13.064 0 006.197 1.564c7.135 0 12.94-5.777 12.94-12.88 0-3.43-1.36-6.65-3.78-9.087zm-9.16 19.8c-1.934 0-3.84-.51-5.472-1.504l-.393-.24-4.081 1.053 1.088-3.942-.272-.392a10.548 10.548 0 01-1.632-5.687c0-5.898 4.837-10.713 10.762-10.713 2.873 0 5.563 1.113 7.62 3.13a10.651 10.651 0 013.143 7.583c0 5.928-4.837 10.713-10.763 10.713zm5.896-8.004c-.333-.15-1.905-.933-2.207-1.053-.302-.12-.514-.15-.726.15-.211.331-.846 1.054-1.028 1.264-.181.21-.362.241-.695.09-.333-.15-1.36-.511-2.6-1.594-.967-.843-1.602-1.896-1.814-2.227-.181-.331-.03-.482.151-.662.151-.15.333-.361.484-.572.151-.18.212-.331.332-.542.121-.21.06-.39-.03-.572-.09-.15-.725-1.745-.997-2.377-.273-.632-.545-.541-.726-.541h-.635c-.212 0-.574.09-.877.39-.302.332-1.118 1.114-1.118 2.679 0 1.595 1.149 3.13 1.33 3.34.151.21 2.267 3.46 5.533 4.875.786.331 1.36.542 1.844.692a4.346 4.346 0 002.025.12c.635-.09 1.905-.782 2.177-1.534s.272-1.384.181-1.535c-.06-.15-.272-.24-.604-.39z" fill="#fff"/></svg><svg fill="none" viewBox="0 0 26 27" id="sprite--youtube" xmlns="http://www.w3.org/2000/svg"><path d="M25.031 8.374c-.272-1.06-1.116-1.877-2.177-2.177-1.905-.517-9.58-.517-9.58-.517s-7.647 0-9.58.517c-1.061.272-1.878 1.116-2.177 2.177C1 10.28 1 14.28 1 14.28s0 3.974.517 5.906c.272 1.061 1.116 1.878 2.177 2.177 1.905.517 9.58.517 9.58.517s7.648 0 9.58-.517c1.061-.272 1.878-1.116 2.177-2.177.517-1.905.517-5.906.517-5.906s0-4-.517-5.906zm-14.18 9.553v-7.348l6.37 3.674-6.37 3.674z" fill="#fff"/></svg></svg>