<?xml version="1.0" encoding="utf-8"?><svg viewBox="0 0 130 100" xmlns="http://www.w3.org/2000/svg" xmlns:xlink="http://www.w3.org/1999/xlink"><style>:root>svg{display:none}:root>svg:target{display:block}</style><svg fill="none" viewBox="0 0 71 71" id="sprite--advantage-card-1" xmlns="http://www.w3.org/2000/svg"><path d="M44.83 18.319a.76.76 0 00-1.068 0 .76.76 0 000 1.068l2.319 2.32a.748.748 0 00.534.221c.192 0 .383-.07.535-.222l6.593-6.593a.76.76 0 000-1.069.76.76 0 00-1.069 0l-6.059 6.06-1.784-1.785z" fill="currentColor"/><path d="M62.576 4.668C52.515 3.609 49.349.272 49.319.242c-.292-.323-.847-.323-1.129 0-.03.03-3.095 3.357-13.257 4.426a.756.756 0 00-.675.756v17.19c0 .04 0 .08.01.13.06.374 1.663 9.054 14.265 12.996a.839.839 0 00.443 0c12.602-3.942 14.195-12.632 14.265-12.995.01-.04.01-.08.01-.131v-17.2a.753.753 0 00-.675-.746zm-.837 17.865c-.151.706-1.966 8.146-12.984 11.675-11.08-3.549-12.824-10.899-12.985-11.675V6.09c7.984-.937 11.694-3.286 12.985-4.335 1.3 1.049 5 3.388 12.984 4.335v16.444z" fill="currentColor"/><path d="M48.4 6.15c-2.339 1.24-5.192 2.198-8.498 2.853a.757.757 0 00-.605.746v12.23c0 .08.01.16.04.231.413 1.25 2.289 5.545 9.154 8.187.09.03.181.05.272.05a.87.87 0 00.272-.05c6.886-2.642 8.75-6.906 9.154-8.146.02-.081.04-.152.04-.232V9.749a.757.757 0 00-.604-.746c-3.307-.655-6.17-1.613-8.499-2.853a.771.771 0 00-.726 0zm8.307 4.214v11.514c-.423 1.19-2.107 4.657-7.954 6.986-5.837-2.319-7.53-5.827-7.954-7.027V10.364c3.034-.645 5.706-1.553 7.954-2.692 2.248 1.14 4.92 2.047 7.954 2.692zm-1.583 37.374h-5.928c.182-.363.293-.767.293-1.2V38.16a.762.762 0 00-.756-.756.762.762 0 00-.756.756v8.378c0 .665-.535 1.2-1.19 1.2H16.473c-.655 0-1.19-.535-1.19-1.2V19.176c0-.666.535-1.2 1.19-1.2h8.166v8.126c0 .262.13.504.352.635.121.08.262.121.404.121.11 0 .221-.02.322-.07l6.23-2.975a.755.755 0 10-.655-1.361l-5.151 2.46v-6.926h5.847a.762.762 0 00.756-.756.762.762 0 00-.756-.756H16.463a2.71 2.71 0 00-2.702 2.712v27.362c0 .433.11.837.292 1.2H8.125C3.64 47.748 0 51.398 0 55.874 0 60.35 3.65 64 8.125 64h47c4.485 0 8.125-3.65 8.125-8.126 0-4.477-3.64-8.136-8.126-8.136zm0 14.75H8.125a6.617 6.617 0 01-6.613-6.614 6.617 6.617 0 016.613-6.614h47a6.617 6.617 0 016.612 6.614 6.617 6.617 0 01-6.613 6.613z" fill="currentColor"/><path d="M8.126 51.73a4.143 4.143 0 100 8.287 4.143 4.143 0 000-8.287zm0 6.776a2.633 2.633 0 01-2.631-2.632 2.633 2.633 0 012.63-2.631 2.633 2.633 0 012.632 2.631 2.633 2.633 0 01-2.631 2.631zm11.746-6.776a4.143 4.143 0 100 8.287 4.143 4.143 0 000-8.287zm0 6.776a2.633 2.633 0 01-2.631-2.632 2.633 2.633 0 012.63-2.631 2.633 2.633 0 012.632 2.631 2.627 2.627 0 01-2.631 2.631zm11.754-6.776a4.143 4.143 0 100 8.287 4.143 4.143 0 000-8.287zm0 6.776a2.633 2.633 0 01-2.631-2.632 2.633 2.633 0 012.63-2.631 2.633 2.633 0 012.632 2.631 2.633 2.633 0 01-2.631 2.631zm11.746-6.776a4.143 4.143 0 100 8.287 4.143 4.143 0 000-8.287zm0 6.776a2.633 2.633 0 01-2.631-2.632 2.633 2.633 0 012.63-2.631 2.633 2.633 0 012.632 2.631 2.627 2.627 0 01-2.631 2.631zm11.752-6.776a4.143 4.143 0 100 8.287 4.143 4.143 0 000-8.287zm0 6.776a2.633 2.633 0 01-2.631-2.632 2.633 2.633 0 012.63-2.631 2.633 2.633 0 012.632 2.631 2.633 2.633 0 01-2.631 2.631zM26.615 39.178h-7.792a.762.762 0 00-.757.756c0 .414.343.757.757.757h7.802a.762.762 0 00.756-.757.764.764 0 00-.766-.756zm0 3.599h-7.792a.762.762 0 00-.757.756c0 .414.343.757.757.757h7.802a.762.762 0 00.756-.757.764.764 0 00-.766-.756z" fill="currentColor"/></svg><svg fill="none" viewBox="0 0 71 71" id="sprite--advantage-card-2" xmlns="http://www.w3.org/2000/svg"><path d="M63.39 25.843a.898.898 0 00-.885-.717H55.81a24.37 24.37 0 00-2.117-5.094l4.736-4.735a.903.903 0 00.107-1.136 32.08 32.08 0 00-8.705-8.705.903.903 0 00-1.136.107L43.958 10.3a24.749 24.749 0 00-5.094-2.117V1.486A.898.898 0 0038.147.6a31.799 31.799 0 00-12.305 0 .898.898 0 00-.718.885v6.696a24.365 24.365 0 00-5.094 2.117l-4.736-4.736a.903.903 0 00-1.136-.107 32.08 32.08 0 00-8.705 8.705.903.903 0 00.108 1.136l4.735 4.735a25.022 25.022 0 00-2.117 5.094H1.483a.898.898 0 00-.885.717A32.185 32.185 0 000 32.002c0 2.068.203 4.125.598 6.158a.898.898 0 00.885.717h6.696a24.66 24.66 0 002.117 5.094l-4.735 4.735a.903.903 0 00-.108 1.136 32.079 32.079 0 008.705 8.705.903.903 0 001.136-.107l4.736-4.735a24.747 24.747 0 005.094 2.116v6.696c0 .43.299.801.718.885 2.02.395 4.09.598 6.158.598 2.069 0 4.126-.203 6.158-.598a.898.898 0 00.718-.885v-6.696a24.37 24.37 0 005.094-2.116l4.736 4.735a.888.888 0 001.136.107 32.08 32.08 0 008.705-8.705.903.903 0 00-.107-1.136l-4.736-4.735a24.745 24.745 0 002.117-5.094h6.696c.43 0 .801-.299.885-.717.395-2.021.598-4.09.598-6.158a32.28 32.28 0 00-.598-6.159h-.012zm-1.626 11.24h-6.625a.908.908 0 00-.873.67 22.848 22.848 0 01-2.451 5.907.889.889 0 00.143 1.088l4.688 4.688a30.257 30.257 0 01-7.2 7.198l-4.687-4.687a.906.906 0 00-1.088-.144 22.852 22.852 0 01-5.907 2.452.887.887 0 00-.67.872v6.625a29.61 29.61 0 01-10.164 0v-6.625a.908.908 0 00-.67-.872 22.85 22.85 0 01-5.907-2.452.889.889 0 00-1.088.144l-4.688 4.687a30.258 30.258 0 01-7.199-7.198l4.688-4.688a.906.906 0 00.143-1.088 22.846 22.846 0 01-2.451-5.907.897.897 0 00-.873-.67H2.26a30.161 30.161 0 010-10.163h6.625a.908.908 0 00.873-.67 22.848 22.848 0 012.451-5.907.889.889 0 00-.143-1.088l-4.688-4.688a30.26 30.26 0 017.199-7.198l4.688 4.687a.906.906 0 001.088.144 22.849 22.849 0 015.907-2.452.887.887 0 00.67-.872V2.25a30.216 30.216 0 0110.164 0v6.625c0 .406.275.765.67.872A22.851 22.851 0 0143.67 12.2a.886.886 0 001.088-.144l4.688-4.687a30.258 30.258 0 017.199 7.198l-4.688 4.688a.906.906 0 00-.143 1.088 22.85 22.85 0 012.451 5.907c.096.395.455.67.873.67h6.625a30.161 30.161 0 010 10.163zM17.35 32.002c0-8.072 6.577-14.649 14.649-14.649 2.834 0 5.537.802 7.892 2.32a3.291 3.291 0 00-.418 1.567 3.287 3.287 0 003.288 3.288 3.287 3.287 0 003.289-3.288 3.287 3.287 0 00-3.289-3.289c-.574 0-1.112.168-1.59.43A16.247 16.247 0 0032 15.56c-9.064 0-16.443 7.378-16.443 16.441 0 1.59.228 3.145.67 4.616a.908.908 0 001.124.598.897.897 0 00.598-1.124 14.039 14.039 0 01-.598-4.09zM44.257 21.24a1.495 1.495 0 11-2.99-.002 1.495 1.495 0 012.99.002zm2.392 5.548a.897.897 0 00-.598 1.124 13.98 13.98 0 01.598 4.09c0 8.07-6.577 14.648-14.649 14.648-2.762 0-5.417-.766-7.725-2.225.287-.49.466-1.052.466-1.662a3.287 3.287 0 00-3.288-3.288 3.287 3.287 0 00-3.289 3.288 3.287 3.287 0 003.289 3.289 3.19 3.19 0 001.47-.371c2.691 1.794 5.8 2.762 9.065 2.762 9.064 0 16.443-7.378 16.443-16.441 0-1.603-.228-3.145-.67-4.616a.897.897 0 00-1.124-.598h.012zm-25.196 17.47a1.495 1.495 0 110-2.99 1.495 1.495 0 010 2.99zm17.95-17.123a.902.902 0 010 1.267l-8.455 8.454a.887.887 0 01-.634.263.887.887 0 01-.634-.263l-4.855-4.855a.902.902 0 010-1.267.902.902 0 011.268 0l4.22 4.221 7.822-7.82a.902.902 0 011.267 0z" fill="currentColor"/></svg><svg fill="none" viewBox="0 0 71 71" id="sprite--advantage-card-3" xmlns="http://www.w3.org/2000/svg"><g clip-path="url(#acclip0_1124_41616)" fill="currentColor"><path d="M18.567 53.488c.844.21 1.583.21 2.427.21.844 0 1.582-.105 2.426-.21 5.697-1.16 9.812-6.12 9.812-11.922 0-5.802-4.115-10.866-9.812-11.92-1.582-.317-3.27-.317-4.747 0-5.697 1.16-9.812 6.118-9.812 11.92 0 5.803 4.115 10.761 9.706 11.922zm3.798-20.045c0 .739-.633 1.372-1.371 1.372a1.397 1.397 0 01-1.372-1.372v-2.32a11.916 11.916 0 012.743 0v2.32zM19.622 49.69c0-.739.633-1.372 1.372-1.372.738 0 1.371.633 1.371 1.372v2.32a11.86 11.86 0 01-2.743 0v-2.32zm1.372-13.188a3.062 3.062 0 003.06-3.059v-1.899c4.43 1.372 7.384 5.486 7.384 10.022 0 4.642-3.06 8.651-7.385 10.023v-1.9a3.062 3.062 0 00-3.06-3.059 3.062 3.062 0 00-3.059 3.06v1.899c-4.43-1.372-7.385-5.38-7.385-10.023 0-4.642 3.06-8.756 7.385-10.022v1.899a3.062 3.062 0 003.06 3.06z"/><path d="M13.188 41.777c0 1.583 1.371 2.954 2.954 2.954a2.949 2.949 0 002.954-2.954c0-1.582-1.372-2.954-2.954-2.954a2.949 2.949 0 00-2.954 2.954zm1.688 0c0-.738.527-1.266 1.266-1.266.738 0 1.265.528 1.265 1.266 0 .739-.527 1.266-1.265 1.266-.739 0-1.266-.527-1.266-1.266zm11.076 2.954c1.582 0 2.954-1.371 2.954-2.954 0-1.582-1.371-2.954-2.954-2.954a2.949 2.949 0 00-2.954 2.954c0 1.688 1.266 2.954 2.954 2.954zm-1.266-2.954c0-.738.527-1.266 1.266-1.266.738 0 1.266.528 1.266 1.266 0 .739-.527 1.266-1.266 1.266s-1.266-.527-1.266-1.266z"/><path d="M53.805 58.024a.793.793 0 00-.739-.528h-4.642v-5.591a.832.832 0 00-.843-.844l-4.537-.211h-.95V27.535a6.731 6.731 0 00-6.752-6.752h-6.224l8.756-8.018c.212-.21.317-.633.212-.95a.793.793 0 00-.739-.527h-9.495l4.642-10.022c.105-.317.105-.528-.105-.844C32.282.211 31.966 0 31.65 0L17.619.316c-.422 0-.739.317-.845.739l-3.059 17.513c0 .316 0 .527.211.738.211.211.527.317.739.211l6.33-1.16-.528 2.32H6.752A6.731 6.731 0 000 27.43v28.696a6.731 6.731 0 006.752 6.752h28.59c.106 0 .212 0 .317-.106l6.752 7.912c.211.211.422.317.633.317.211 0 .528-.106.633-.317L53.7 58.868c.21-.211.316-.528.105-.844zM38.508 59.29c.421 0 .843-.422.843-.844v-5.697l3.693-.211 3.693.21v5.698c0 .422.421.844.843.844h3.693l-8.229 9.6-8.229-9.6h3.693zM19.095 27.746c-.105.316.106.738.422.95.317.21.739.105.95-.106l6.752-6.119h8.123c2.849 0 5.065 2.321 5.065 5.064v23.42l-2.005.106c-.422 0-.844.422-.844.844v5.591h-4.642a.793.793 0 00-.738.528c-.106.316-.106.633.105.95l1.899 2.215H6.646c-2.742-.106-4.958-2.321-4.958-5.064v-28.59c0-2.849 2.321-5.064 5.064-5.064h13.399l-1.055 5.275zm6.647-15.192c.105.211.422.422.738.422h8.652L21.31 25.53l1.688-8.017c.106-.317 0-.528-.211-.739-.211-.21-.422-.21-.633-.21h-.106l-6.33 1.16 2.743-15.72 12.027-.21-4.747 9.916c-.211.317-.211.633 0 .844z"/><path d="M45.05 47.79c.421 0 .843-.422.843-.843V32.915c0-.422-.422-.844-.844-.844s-.844.422-.844.844v14.032c0 .527.317.843.844.843z"/></g><defs><clipPath id="acclip0_1124_41616"><path fill="currentColor" d="M0 0h71v71H0z"/></clipPath></defs></svg><svg fill="none" viewBox="0 0 71 71" id="sprite--advantage-card-4" xmlns="http://www.w3.org/2000/svg"><path d="M30.304 21.758c6 0 10.879-4.88 10.879-10.88C41.183 4.88 36.303 0 30.304 0c-6 0-10.878 4.88-10.878 10.879-.01 6 4.879 10.879 10.878 10.879zm0-20.24c5.154 0 9.35 4.196 9.35 9.35 0 5.155-4.196 9.352-9.35 9.352s-9.35-4.197-9.35-9.351c-.01-5.155 4.186-9.351 9.35-9.351z" fill="currentColor"/><path d="M30.302 14.903c-.896 0-1.63-.734-1.63-1.63a.77.77 0 00-.764-.764.77.77 0 00-.764.764 3.156 3.156 0 002.394 3.056v1.018a.77.77 0 00.764.764.77.77 0 00.764-.764V16.33a3.156 3.156 0 002.394-3.056 3.16 3.16 0 00-3.158-3.158c-.896 0-1.63-.733-1.63-1.63 0-.896.734-1.63 1.63-1.63.896 0 1.63.734 1.63 1.63a.77.77 0 00.764.764.77.77 0 00.764-.764 3.156 3.156 0 00-2.394-3.055V4.41a.77.77 0 00-.764-.763.77.77 0 00-.764.764V5.43a3.156 3.156 0 00-2.393 3.055 3.16 3.16 0 003.157 3.158c.896 0 1.63.734 1.63 1.63 0 .896-.733 1.63-1.63 1.63z" fill="currentColor"/><path d="M63.916 37.21h-3.31V25.853a2.8 2.8 0 00-2.801-2.802H56.51v-5.317c0-3.769-3.066-6.845-6.845-6.845h-6.234a.77.77 0 00-.764.764.77.77 0 00.764.764h6.234a5.32 5.32 0 015.317 5.317v5.317H6.845a5.32 5.32 0 01-5.317-5.317 5.32 5.32 0 015.317-5.317h10.328a.77.77 0 00.764-.764.77.77 0 00-.764-.764H6.845C3.076 10.89 0 13.955 0 17.734v39.42C0 60.925 3.066 64 6.845 64h50.96a2.8 2.8 0 002.8-2.801V49.84h3.311a.77.77 0 00.764-.764V37.974a.77.77 0 00-.764-.764zM6.845 24.58h50.96c.702 0 1.273.57 1.273 1.273v3.31H1.528v-7.12a6.819 6.819 0 005.317 2.536zm50.96 37.892H6.845c-2.679 0-4.88-1.996-5.236-4.584h57.469v3.31c0 .704-.57 1.274-1.273 1.274zm1.273-6.112H1.528V30.691h57.55v6.52h-9.27a6.32 6.32 0 00-6.315 6.315 6.32 6.32 0 006.316 6.315h9.269v6.52zm4.074-8.047H49.798a4.795 4.795 0 01-4.787-4.787 4.795 4.795 0 014.787-4.788h13.354v9.575z" fill="currentColor"/><path d="M50.012 40.725a2.8 2.8 0 00-2.801 2.8 2.8 2.8 0 002.801 2.802 2.8 2.8 0 002.801-2.801 2.806 2.806 0 00-2.801-2.801zm0 4.074a1.274 1.274 0 11.001-2.547 1.274 1.274 0 01-.001 2.547z" fill="currentColor"/></svg><svg fill="none" viewBox="0 0 24 24" id="sprite--arr-left" xmlns="http://www.w3.org/2000/svg"><g clip-path="url(#aeclip0_1114_24883)"><path d="M16 2l-9.9 9.9 9.9 9.899" stroke="currentColor" stroke-width="2"/></g><defs><clipPath id="aeclip0_1114_24883"><path fill="#fff" transform="matrix(-1 0 0 1 24 0)" d="M0 0h24v24H0z"/></clipPath></defs></svg><svg fill="none" viewBox="0 0 24 25" id="sprite--arr-right" xmlns="http://www.w3.org/2000/svg"><g clip-path="url(#afclip0_272_818)"><path d="M8 2.3l9.9 9.9L8 22.098" stroke="currentColor" stroke-width="2"/></g><defs><clipPath id="afclip0_272_818"><path fill="currentColor" transform="translate(0 .3)" d="M0 0h24v24H0z"/></clipPath></defs></svg><svg fill="none" viewBox="0 0 22 21" id="sprite--cart" xmlns="http://www.w3.org/2000/svg"><path d="M17 16.45a2 2 0 11-2 2c0-1.11.89-2 2-2zM1 .45h3.27l.94 2H20a1 1 0 011 1c0 .17-.05.34-.12.5l-3.58 6.47c-.34.61-1 1.03-1.75 1.03H8.1l-.9 1.63-.03.12a.25.25 0 00.25.25H19v2H7a2 2 0 01-2-2c0-.35.09-.68.24-.96l1.36-2.45L3 2.45H1v-2zm6 16a2 2 0 11-2 2c0-1.11.89-2 2-2zm9-7l2.78-5H6.14l2.36 5H16z" fill="currentColor" stroke="#000" stroke-width=".5"/></svg><svg fill="none" viewBox="0 0 30 30" id="sprite--diod" xmlns="http://www.w3.org/2000/svg"><path fill-rule="evenodd" clip-rule="evenodd" d="M15.248 0a9.375 9.375 0 00-9.375 9.375v9.375h-.936a.937.937 0 100 1.875h4.689v8.438a.937.937 0 101.875 0v-8.438h7.502v8.438a.937.937 0 101.875 0v-8.438h4.686a.937.937 0 100-1.875h-.94V9.375A9.375 9.375 0 0015.248 0zm4.691 18.75h2.81V9.375a7.5 7.5 0 00-15 0v9.375h6.562v-4.3l-2.538-2.537a.937.937 0 011.325-1.326l2.15 2.15 2.15-2.15a.937.937 0 011.326 1.326l-2.538 2.538v4.299h3.753z" fill="currentColor"/></svg><svg fill="none" viewBox="0 0 30 30" id="sprite--infinite" xmlns="http://www.w3.org/2000/svg"><path d="M17.328 18.677a6.872 6.872 0 005.022 2.754c4.95 0 8.045-5.36 5.57-9.647a6.431 6.431 0 00-5.57-3.216C17.756 8.568 15 15 15 15s-2.756 6.43-7.35 6.43c-4.95 0-8.045-5.358-5.57-9.646a6.431 6.431 0 015.57-3.216 6.88 6.88 0 015.022 2.76" stroke="currentColor" stroke-width="1.5" stroke-linecap="round" stroke-linejoin="round"/></svg><svg fill="none" viewBox="0 0 130 56" id="sprite--logo" xmlns="http://www.w3.org/2000/svg"><path d="M79.655 38.136a2.856 2.856 0 01-3.254-2.961l-.21-8.265a4.772 4.772 0 00-1.746-3.886c-.456-.372-1.305-.647-1.96-.823-2.27-.614-4.738-.025-6.402 1.636l-.336.337c-.635-1.04-1.262-1.631-2.54-1.835l-1.364-.191a.425.425 0 00-.491.423l.112 8.438c.023 1.674.127 3.31-.887 4.642-.392.515-1.044.808-1.676.673-.823-.178-1.315-.925-1.28-1.727l-.18-10.477a1.774 1.774 0 00-1.868-1.875c-1.103.043-1.916.593-2.576 1.602-.66 1.01-2.667 1.868-3.526 1.868 0 0 .044-.9-.007-2.232-.077-1.997-2-3.414-3.758-2.474-1.995 1.068-2.1 3.84-.253 5.068.688.456 1.45.754 2.237.9 0 0 .084 5.327.08 6.516-.008 1.19-1.34 2.26-2.857 2.26-1.516 0-1.83-1.467-1.867-2.672-.039-1.205-.23-7.394-.23-7.394-.122-2.194-1.399-3.643-3.513-4.036l-1.198-.221a.424.424 0 00-.502.41s.51 10.31.431 11.91c-.079 1.598-1.022 2.245-2.173 2.245-1.152 0-2.105-.767-2.145-1.995 0 0-.13-5.57-.13-7.352 0-1.784-.163-3.927-2.092-4.706-.956-.385-2.538-.48-3.328-.16l-1.052.425a.282.282 0 00-.038.504l.303.181c.958.576 1.333 1.536 1.399 2.762.066 1.225-.064 2.706-.064 5.99 0 5.59 3.659 7.401 6.194 7.401s3.824-2.97 3.824-2.97 2.013 2.807 4.95 2.97c4.138.23 6.018-2.66 5.945-5.175-.074-2.517-.194-6.743-.194-6.743 1.531 0 2.902-.53 2.902-.53s-.535 3.74.013 6.986c.662 3.941 2.761 5.465 4.973 5.465 2.212 0 3.468-1.206 4.35-2.78l.506-.904.038 1.816c0 1.065.859 1.847 2.135 1.847 1.277 0 2.184-.5 2.286-1.847l-.288-10.484c.058-.803.881-1.445 1.597-1.812 1.218-.624 3.063.21 3.035 1.947l.517 7.18c-.003 2.28 1.669 4.326 3.801 5.13a6.146 6.146 0 004.589-.096.476.476 0 00.255-.634.484.484 0 00-.487-.276zM47.841 25.337a4.318 4.318 0 01-1.55-.798c-.598-.484-.66-1.44.013-1.811.731-.405 1.455.278 1.542 1.009.089.729-.005 1.6-.005 1.6z" fill="currentColor"/><path d="M27.025 32.768c-.173.05-.211 1.274-1.083 2.512-.494.7-1.551 1.646-2.507 1.36-.968-.288-1.077-1.562-1.093-2.384-.005-.212-.155-8.994-.26-15.12A77.734 77.734 0 0124.401 19a35.68 35.68 0 012.58-.015l2.024.066c.622.026 1.098.044 1.401.054.247.01.377-.046.403-.102.025-.056-.117-.138-.375-.23a24.267 24.267 0 00-1.312-.427 29.294 29.294 0 00-1.997-.518 21.704 21.704 0 00-2.67-.433 30.382 30.382 0 00-2.403-.135l-.066-3.949c0-.675-.097-2.178-.097-2.178a3.515 3.515 0 00-3.353-3.45l-1.506-.069a.754.754 0 00-.79.754s.02 4.184.138 9.35c-.815.174-1.638.398-2.461.717l-.477.188c-.074.028-.29.117-.397.15a3.429 3.429 0 01-.711.146 3.766 3.766 0 01-1.56-.196c-.086-.028-.168-.077-.252-.11.13-.11.255-.227.378-.357.264-.295.417-.547.568-.902.13-.338.25-.795.053-1.296-.199-.515-.703-.798-1.09-.892a2.63 2.63 0 00-.579-.087c-.219-.01-.402 0-.609.033-.797.125-1.638.698-1.887 1.646a2.007 2.007 0 00.168 1.43 2.176 2.176 0 00.423.565c.056.054.104.097.152.14a6.667 6.667 0 01-1.959.484 4.164 4.164 0 01-1.274-.086 2.993 2.993 0 01-.545-.194c-.097-.043-.194-.089-.29-.132-.095-.041-.21-.077-.311-.115-.826-.265-1.58-.14-2.13.013-.558.158-.966.334-1.249.44-.127.049-.226.087-.3.113-.087.033-.016.226.089.198l.288-.081c.29-.082.713-.22 1.25-.321.533-.097 1.206-.14 1.873.13.082.038.156.063.245.11.087.045.173.094.262.142.2.117.418.209.645.285.459.148.955.212 1.47.212a7.557 7.557 0 002.742-.568c.4.275.828.517 1.294.705.683.28 1.445.451 2.217.428.39-.005.759-.06 1.18-.163.2-.053.28-.076.509-.147l.42-.128a19.054 19.054 0 011.903-.428c.199 7.386.808 15.725 1.41 17.05.71 1.564 2.501 2.186 3.839 2.184 1.156-.003 3.083-.449 4.433-2a5.85 5.85 0 001.192-2.268c.13-.477.324-2.16-.275-1.987zM9.478 16.365c.1-.026.227-.036.316-.038.186.002.23.002.337.025.2.038.282.107.313.163.043.061.048.242-.02.451a1.988 1.988 0 01-.332.601c-.158.192-.349.37-.56.53-.084-.056-.173-.102-.257-.16a6.58 6.58 0 01-.327-.252l-.043-.039-.013-.015a.574.574 0 01-.107-.13.565.565 0 01-.084-.415c.044-.313.362-.63.777-.721zm120.507 30.548c0-.339-.079-.887-.273-1.521a5.758 5.758 0 00-1.21-2.097 5.959 5.959 0 00-2.209-1.546 3.901 3.901 0 00-.199-.918 5.91 5.91 0 00-1.203-2.132 6.072 6.072 0 00-4.519-2.033c-.041.002-.084.002-.125.002l.063-8.588c.041-2.918-2.079-5.672-4.843-5.672-1.378 0-2.288.943-2.285 2.204l.01 10.02c-.107 2.78-2.673 2.383-2.614.87l.145-9.942c.023-.423-.176-1.312-.484-1.694-.693-.854-1.559-1.348-2.652-1.465l-.864-.092a.534.534 0 00-.591.55s.084 4.224.16 7.422a6.984 6.984 0 01-1.763 4.81c-.56.63-1.775 1.707-2.716 1.43-.952-.283-1.398-1.74-1.416-2.548-.227-3.511-.286-8.013-.286-8.013 5.027-2.026 8.204-8.495 6.209-13.55a4.6 4.6 0 00-2.693-2.631c-4.662-1.718-9.003 1.116-9.014 6.5-.005 2.705.199 11.283.436 15.584.204 3.669-1.192 5.328-3.46 5.238-1.76-.068-3.307-4.112-3.307-4.937 1.37-1.241 2.479-2.91 3.243-4.37.762-1.46 1.08-3.093 1.08-4.308 0-.93-.231-1.674-.698-2.23-.463-.555-1.148-.832-2.053-.832-1.697 0-3.027 1.928-3.992 5.77l-.316-13.034c-.034-1.832-1.68-3.45-3.511-3.537L80.77 9.56c-.425-.02-1.006.333-1.006.759l.82 26.617c-.002 1.088.879 1.842 1.967 1.842h1.004c1.004 0 1.939-.405 2.418-1.287.356-.655.632-1.197.98-2.387 0 .076 1.542 3.895 4.273 3.895 3.295 0 4.418-3.212 4.418-3.164 0 .051.375.88.484 1.045.39.59 1.572 2.155 3.773 2.155 2.89 0 4.235-1.5 4.818-2.142a16.739 16.739 0 001.672-2.212c.002.12.005.074.007.168.054 2.196 1.893 3.929 4.092 3.929h.252c2.232 0 4.268-1.498 4.579-3.71l-.031 3.177c-.486.393-1.248.913-2.573 2.704-4.28 5.786-2.178 12.237-.892 13.628.831.897 2.724 1.574 4.872.349 2.148-1.223 3.406-4.512 3.406-8.207 0-3.694.117-8.31.117-8.31.061-.006.125-.008.186-.016 1.233-.074 2.502.42 3.386 1.317a4.53 4.53 0 011.03 1.649l-.003.002c-.272-.033-.504-.094-.932.008-.795.194-1.412 1.001-1.348 1.898a1.9 1.9 0 00.545 1.175c.357.364.81.53 1.292.547.476.008.955-.163 1.327-.494a1.93 1.93 0 00.635-1.34l.025-.522-.002-.072c.687.276 1.273.68 1.73 1.124a5.618 5.618 0 011.253 1.842c.232.589.341 1.055.372 1.411.023.161.036.28.041.365.007.1.061.153.12.155.058.003.107-.046.109-.135a2.438 2.438 0 00-.002-.41zm-41.996-17.9c.206-1.654.502-2.663.724-3.44.219-.775.665-1.162 1.128-1.162.439 0 .66.247.66.736 0 .517-.12 1.175-.535 2.107-.757 1.7-2.155 3.088-2.155 3.088l.178-1.33zm11.934-11.634a3.816 3.816 0 011.885-3.305l.13-.076c1.065-.622 2.4-.069 2.703 1.095l.026.102c.713 2.737-.95 6.971-4.563 9.435l-.181-7.251zm15.641 25.465c.015 2.795-.12 6.29-1.666 8.635-.507.77-1.425 1.174-1.812-.772-.899-4.525.487-7.69 3.486-10.63-.003 0-.016 1.705-.008 2.767zm9.131 1.004a.768.768 0 01-.507-.163.867.867 0 01-.308-.517.878.878 0 01.573-.94c.044-.013.072-.02.115-.034l.188-.012c.135.007.273.012.406.02.068.008.135.015.201.026.018.12.041.231.043.377l.003.525c.015.361-.314.7-.714.718zm.525-21.485h-.563v-2.815h-.955v-.484h2.484v.484h-.966v2.815zm2.747 0l-.92-2.558h-.035l.028.591v1.967h-.546v-3.3h.856l.897 2.559.93-2.558H130v3.299h-.581v-1.924l.028-.627h-.035l-.966 2.55h-.479zM64.965 6.762c-.377-.955-1.393-1.324-2.326-1.482-1.08-.184-2.204-.184-3.266.102-.265-1.394-.808-2.77-1.697-3.886-.135-.17-.989-1.088-1.182-1.088-.107 0-.655.75-.877 1.073a9.63 9.63 0 00-.942 1.671c-.125.29-.286.782-.367 1.09-.054.204-.197.648.002.68.227.04.286-.152.342-.432.081-.413.25-.775.435-1.152.344-.693.823-1.314 1.356-1.872.81.935 1.279 2.132 1.493 3.34.056.313.094.629.117.948.018.27-.028.59.056.848.18.563.663.51 1.096.372 1.05-.329 2.575-.166 3.592.26.533.224.036.644-.214.907-.448.474-.963.874-1.48 1.269-.449.341-.958.642-1.386 1.008-.52.446-.324.948-.212 1.501.181.907.38 1.972.375 2.882 0 .196-.174.046-.268-.028a8.209 8.209 0 01-.91-.851 17.244 17.244 0 01-1.128-1.31c-.349-.448-.7-.881-1.292-.99-.91-.169-1.714.67-2.4 1.14-.305.212-.703.505-1.06.622-.05-.132.13-.678.367-1.358.242-.69.65-1.253.37-1.893-.293-.667-1.03-1.075-1.588-1.495a15.117 15.117 0 01-2.073-1.88c1.212-.485 2.524-.464 3.76-.07.58.187 1.144.439 1.674.742.255.145.596.438.764.316.214-.156-.089-.477-.418-.856-1.645-1.906-3.882-2.925-6.43-2.466-.933.168-1.99.51-2.528 1.347-.504.79.013 1.636.436 2.342.632 1.06 1.455 2.158 2.334 3.027a12.298 12.298 0 00-.525 1.745 12.76 12.76 0 00-.245 2.089c-.028.617-.005 1.254.077 1.865a1.904 1.904 0 002.076 1.69c.64-.07 2.049-.864 2.65-1.221.98-.586 2.166-1.643 2.255-1.72.555.57 1.406 1.246 2.102 1.643 1.452.831 2.537 1.198 3.057 1.228 1.078.064 1.264-.695 1.46-1.674.346-1.727.199-3.243-.341-4.927-.077-.237.247-.39.42-.548.242-.219.482-.44.718-.67.377-.362.75-.731 1.073-1.144.591-.751 1.093-1.77.698-2.734.194.47-.186-.47 0 0z" fill="currentColor"/></svg><svg fill="none" viewBox="0 0 32 32" id="sprite--menu" xmlns="http://www.w3.org/2000/svg"><path d="M1.5 6h29m-29 10h29m-29 10h29" stroke="currentColor" stroke-width="2"/></svg><svg fill="none" viewBox="0 0 30 30" id="sprite--minus" xmlns="http://www.w3.org/2000/svg"><path stroke="currentColor" d="M22 15.5H8"/></svg><svg fill="none" viewBox="0 0 100 100" id="sprite--opt1" xmlns="http://www.w3.org/2000/svg"><g clip-path="url(#amclip0_648_28032)"><g filter="url(#amfilter0_f_648_28032)"><path d="M50 9.27l35.507 20.5v41L50 91.27l-35.507-20.5v-41L50 9.27z" stroke="#AA6CFF" stroke-width="5"/></g><g filter="url(#amfilter1_d_648_28032)"><path d="M15.493 30.347L50 10.424l34.507 19.923v39.845L50 90.115 15.493 70.192V30.347z" stroke="#AA6CFF" stroke-width="2" shape-rendering="crispEdges"/></g><path d="M33 34v35m17-40v45m16-40v35" stroke="#AA6CFF" stroke-width="2"/><circle cx="50" cy="52" r="5" fill="#AA6CFF"/><circle cx="33" cy="45" r="5" fill="#AA6CFF"/><circle cx="66" cy="62" r="5" fill="#AA6CFF"/></g><defs><filter id="amfilter0_f_648_28032" x="4.993" y="-.617" width="90.014" height="101.773" filterUnits="userSpaceOnUse" color-interpolation-filters="sRGB"><feFlood flood-opacity="0" result="BackgroundImageFix"/><feBlend in="SourceGraphic" in2="BackgroundImageFix" result="shape"/><feGaussianBlur stdDeviation="3.5" result="effect1_foregroundBlur_648_28032"/></filter><filter id="amfilter1_d_648_28032" x="4.493" y="-.73" width="91.014" height="102" filterUnits="userSpaceOnUse" color-interpolation-filters="sRGB"><feFlood flood-opacity="0" result="BackgroundImageFix"/><feColorMatrix in="SourceAlpha" values="0 0 0 0 0 0 0 0 0 0 0 0 0 0 0 0 0 0 127 0" result="hardAlpha"/><feOffset/><feGaussianBlur stdDeviation="5"/><feComposite in2="hardAlpha" operator="out"/><feColorMatrix values="0 0 0 0 0.665298 0 0 0 0 0.425 0 0 0 0 1 0 0 0 1 0"/><feBlend in2="BackgroundImageFix" result="effect1_dropShadow_648_28032"/><feBlend in="SourceGraphic" in2="effect1_dropShadow_648_28032" result="shape"/></filter><clipPath id="amclip0_648_28032"><path fill="#fff" d="M0 0h100v100H0z"/></clipPath></defs></svg><svg fill="none" viewBox="0 0 100 100" id="sprite--opt2" xmlns="http://www.w3.org/2000/svg"><g clip-path="url(#anclip0_648_28198)"><g filter="url(#anfilter0_f_648_28198)"><path d="M50 9.27l35.507 20.5v41L50 91.27l-35.507-20.5v-41L50 9.27z" stroke="#AA6CFF" stroke-width="5"/></g><g filter="url(#anfilter1_d_648_28198)"><path d="M15.493 30.347L50 10.424l34.507 19.923v39.845L50 90.115 15.493 70.192V30.347z" stroke="#AA6CFF" stroke-width="2" shape-rendering="crispEdges"/></g><path d="M72.901 57.006H61.354l5.774 10 5.773-10zm-29.81 18.366l22.516-13-1-1.732-22.517 13 1 1.732zM68.73 39.783H57.185l5.773 10 5.774-10zM30.26 63.15l31.176-18-1-1.732-31.177 18 1 1.732zm26.141-34.723H44.854l5.774 10 5.773-10zm-29.81 18.366l22.516-13-1-1.732-22.517 13 1 1.732z" fill="#AA6CFF"/></g><defs><filter id="anfilter0_f_648_28198" x="4.993" y="-.617" width="90.014" height="101.773" filterUnits="userSpaceOnUse" color-interpolation-filters="sRGB"><feFlood flood-opacity="0" result="BackgroundImageFix"/><feBlend in="SourceGraphic" in2="BackgroundImageFix" result="shape"/><feGaussianBlur stdDeviation="3.5" result="effect1_foregroundBlur_648_28198"/></filter><filter id="anfilter1_d_648_28198" x="4.493" y="-.73" width="91.014" height="102" filterUnits="userSpaceOnUse" color-interpolation-filters="sRGB"><feFlood flood-opacity="0" result="BackgroundImageFix"/><feColorMatrix in="SourceAlpha" values="0 0 0 0 0 0 0 0 0 0 0 0 0 0 0 0 0 0 127 0" result="hardAlpha"/><feOffset/><feGaussianBlur stdDeviation="5"/><feComposite in2="hardAlpha" operator="out"/><feColorMatrix values="0 0 0 0 0.665298 0 0 0 0 0.425 0 0 0 0 1 0 0 0 1 0"/><feBlend in2="BackgroundImageFix" result="effect1_dropShadow_648_28198"/><feBlend in="SourceGraphic" in2="effect1_dropShadow_648_28198" result="shape"/></filter><clipPath id="anclip0_648_28198"><path fill="#fff" d="M0 0h100v100H0z"/></clipPath></defs></svg><svg fill="none" viewBox="0 0 100 100" id="sprite--opt3" xmlns="http://www.w3.org/2000/svg"><g clip-path="url(#aoclip0_648_28207)"><g filter="url(#aofilter0_f_648_28207)"><path d="M50 9.27l35.507 20.5v41L50 91.27l-35.507-20.5v-41L50 9.27z" stroke="#AA6CFF" stroke-width="5"/></g><g filter="url(#aofilter1_d_648_28207)"><path d="M15.493 30.347L50 10.424l34.507 19.923v39.845L50 90.115 15.493 70.192V30.347z" stroke="#AA6CFF" stroke-width="2" shape-rendering="crispEdges"/></g><circle cx="50" cy="43" r="5" fill="#AA6CFF"/><circle cx="57" cy="55" r="5" fill="#AA6CFF"/><circle cx="43" cy="55" r="5" fill="#AA6CFF"/><path stroke="#AA6CFF" stroke-width="2" d="M24.416 50l25.585-25.585L75.587 50 50 75.585z"/></g><defs><filter id="aofilter0_f_648_28207" x="4.993" y="-.617" width="90.014" height="101.773" filterUnits="userSpaceOnUse" color-interpolation-filters="sRGB"><feFlood flood-opacity="0" result="BackgroundImageFix"/><feBlend in="SourceGraphic" in2="BackgroundImageFix" result="shape"/><feGaussianBlur stdDeviation="3.5" result="effect1_foregroundBlur_648_28207"/></filter><filter id="aofilter1_d_648_28207" x="4.493" y="-.73" width="91.014" height="102" filterUnits="userSpaceOnUse" color-interpolation-filters="sRGB"><feFlood flood-opacity="0" result="BackgroundImageFix"/><feColorMatrix in="SourceAlpha" values="0 0 0 0 0 0 0 0 0 0 0 0 0 0 0 0 0 0 127 0" result="hardAlpha"/><feOffset/><feGaussianBlur stdDeviation="5"/><feComposite in2="hardAlpha" operator="out"/><feColorMatrix values="0 0 0 0 0.665298 0 0 0 0 0.425 0 0 0 0 1 0 0 0 1 0"/><feBlend in2="BackgroundImageFix" result="effect1_dropShadow_648_28207"/><feBlend in="SourceGraphic" in2="effect1_dropShadow_648_28207" result="shape"/></filter><clipPath id="aoclip0_648_28207"><path fill="#fff" d="M0 0h100v100H0z"/></clipPath></defs></svg><svg fill="none" viewBox="0 0 100 100" id="sprite--opt4" xmlns="http://www.w3.org/2000/svg"><g clip-path="url(#apclip0_648_28218)"><g filter="url(#apfilter0_f_648_28218)"><path d="M50 9.27l35.507 20.5v41L50 91.27l-35.507-20.5v-41L50 9.27z" stroke="#AA6CFF" stroke-width="5"/></g><g filter="url(#apfilter1_d_648_28218)"><path d="M15.493 30.347L50 10.424l34.507 19.923v39.845L50 90.115 15.493 70.192V30.347z" stroke="#AA6CFF" stroke-width="2" shape-rendering="crispEdges"/></g><path fill-rule="evenodd" clip-rule="evenodd" d="M42.93 65.556l22.627-22.628a6 6 0 10-8.486-8.485L34.444 57.071a6 6 0 008.485 8.485zm24.04-32.527a8 8 0 00-11.313 0L33.03 55.656A8 8 0 1044.343 66.97l22.628-22.627a8 8 0 000-11.314z" fill="#AA6CFF"/><path fill-rule="evenodd" clip-rule="evenodd" d="M65.557 57.071L42.929 34.444a6 6 0 10-8.485 8.485L57.07 65.557a6 6 0 008.486-8.486zM33.03 33.03a8 8 0 000 11.313l22.627 22.628a8 8 0 1011.314-11.314L44.343 33.03a8 8 0 00-11.313 0z" fill="#AA6CFF"/><path d="M41.515 35.858c-1.953-1.953-4.411-2.66-6.364-.707a5 5 0 000 7.071l4.95 4.95-.707.707-4.95-4.95a6 6 0 118.485-8.485l11.314 11.313 3.535 3.536-.707.707-4.242-2.828-11.314-11.314zm16.971 28.284c1.952 1.953 4.41 2.66 6.363.707a5 5 0 000-7.07l-4.95-4.95.708-.708 4.95 4.95a6 6 0 01-8.486 8.486l-14.849-14.85 1.414-1.414 14.85 14.85z" fill="#1D1C21"/><path d="M32.322 45.05a9 9 0 010-12.727c3.515-3.515 9.92-4.222 13.436-.708L57.07 42.93l2.829 4.243-.707.707-3.536-3.536L44.343 33.03A8 8 0 1033.03 44.343l4.95 4.95-.708.707-4.95-4.95zm35.356 9.9a9 9 0 010 12.728c-3.515 3.514-9.92 4.222-13.435.707l-14.85-14.85 1.415-1.413 14.85 14.849A8 8 0 1066.97 55.657l-4.95-4.95.707-.707 4.95 4.95z" fill="#1D1C21"/><path d="M64.142 41.514c1.953-1.952 2.66-4.41.708-6.364a5 5 0 00-7.072 0l-4.95 4.95-.707-.707 4.95-4.95a6 6 0 118.486 8.486L54.243 54.242l-3.536 3.536L50 57.07l2.829-4.243 11.313-11.314zM35.858 58.485c-1.952 1.953-2.66 4.411-.707 6.364a5 5 0 007.071 0l4.95-4.95.707.707-4.95 4.95a6 6 0 01-8.485-8.485l14.85-14.85 1.413 1.415-14.849 14.849z" fill="#1D1C21"/><path d="M54.95 32.322a9 9 0 0112.728 0c3.515 3.515 4.222 9.92.707 13.435L57.071 57.071l-4.242 2.828-.708-.707 3.536-3.535 11.314-11.314a8 8 0 10-11.314-11.314l-4.95 4.95-.707-.707 4.95-4.95zm-9.9 35.355a9 9 0 01-12.727 0c-3.515-3.514-4.222-9.92-.708-13.435l14.85-14.849 1.414 1.414-14.85 14.85A8 8 0 0044.344 66.97l4.95-4.95.707.708-4.95 4.95z" fill="#1D1C21"/></g><defs><filter id="apfilter0_f_648_28218" x="4.993" y="-.617" width="90.014" height="101.773" filterUnits="userSpaceOnUse" color-interpolation-filters="sRGB"><feFlood flood-opacity="0" result="BackgroundImageFix"/><feBlend in="SourceGraphic" in2="BackgroundImageFix" result="shape"/><feGaussianBlur stdDeviation="3.5" result="effect1_foregroundBlur_648_28218"/></filter><filter id="apfilter1_d_648_28218" x="4.493" y="-.73" width="91.014" height="102" filterUnits="userSpaceOnUse" color-interpolation-filters="sRGB"><feFlood flood-opacity="0" result="BackgroundImageFix"/><feColorMatrix in="SourceAlpha" values="0 0 0 0 0 0 0 0 0 0 0 0 0 0 0 0 0 0 127 0" result="hardAlpha"/><feOffset/><feGaussianBlur stdDeviation="5"/><feComposite in2="hardAlpha" operator="out"/><feColorMatrix values="0 0 0 0 0.665298 0 0 0 0 0.425 0 0 0 0 1 0 0 0 1 0"/><feBlend in2="BackgroundImageFix" result="effect1_dropShadow_648_28218"/><feBlend in="SourceGraphic" in2="effect1_dropShadow_648_28218" result="shape"/></filter><clipPath id="apclip0_648_28218"><path fill="#fff" d="M0 0h100v100H0z"/></clipPath></defs></svg><svg fill="none" viewBox="0 0 30 30" id="sprite--plus" xmlns="http://www.w3.org/2000/svg"><path d="M15.574 14.527h5.906v1.19h-5.906v5.96h-1.19v-5.96H8.493v-1.19h5.893V8.553h1.19v5.974z" fill="currentColor"/></svg><svg fill="none" viewBox="0 0 35 12" id="sprite--plus-icon" xmlns="http://www.w3.org/2000/svg"><path d="M27.412 8.174v-.616h7.276a.276.276 0 00.283-.275.276.276 0 00-.282-.275h-7.277v-.605h7.276a.276.276 0 00.283-.275.276.276 0 00-.282-.275h-7.277v-.605h7.276a.276.276 0 00.283-.275.276.276 0 00-.282-.275h-7.277v-.605h7.276a.276.276 0 00.283-.275.276.276 0 00-.282-.275h-7.277v-.617C27.412 1.31 26.066 0 24.425 0H11.32C9.669 0 8.333 1.32 8.333 2.926v1.772H1.034a.276.276 0 00-.283.275c0 .154.125.275.283.275h7.3v.605h-7.3a.276.276 0 00-.283.275c0 .154.125.275.283.275h7.3v1.771c0 1.618 1.346 2.927 2.987 2.927h13.104c1.652 0 2.987-1.31 2.987-2.927zm-16.091 2.377c-1.336 0-2.422-1.067-2.422-2.377V2.926C8.9 1.617 9.985.55 11.321.55h13.104c1.335 0 2.421 1.067 2.421 2.376v5.248c0 1.31-1.086 2.377-2.421 2.377H11.32z" fill="currentColor"/><path d="M23.338 5.545c0-1.265-1.052-2.288-2.353-2.288-1.302 0-2.354 1.023-2.354 2.288s1.052 2.288 2.354 2.288c1.301 0 2.354-1.023 2.354-2.288zm-4.13 0c0-.957.804-1.738 1.788-1.738.985 0 1.788.78 1.788 1.738 0 .957-.803 1.738-1.788 1.738-.984 0-1.788-.78-1.788-1.738zm-3.202 0a.66.66 0 00-.668-.649c-.362 0-.679.297-.679.65 0 .351.305.66.679.66a.662.662 0 00.668-.66z" fill="currentColor"/></svg><svg fill="none" viewBox="0 0 20 21" id="sprite--questionmark" xmlns="http://www.w3.org/2000/svg"><circle cx="10" cy="10" r="7" stroke="currentColor"/><path d="M9.6 12.121v-.305c0-.312.029-.58.088-.802.058-.227.16-.438.304-.633.149-.196.354-.402.615-.621.305-.254.545-.469.721-.645.18-.18.309-.36.387-.539.078-.18.117-.396.117-.65 0-.406-.13-.717-.393-.932-.261-.219-.63-.328-1.107-.328-.387 0-.73.049-1.031.146a6.47 6.47 0 00-.867.352l-.34-.785c.32-.168.668-.305 1.043-.41a4.627 4.627 0 011.254-.158c.754 0 1.338.187 1.752.562.414.371.62.883.62 1.535 0 .363-.058.674-.175.932a2.437 2.437 0 01-.498.703c-.215.21-.469.436-.762.674a4.665 4.665 0 00-.592.58 1.41 1.41 0 00-.28.51 2.154 2.154 0 00-.077.62v.194h-.78zm-.258 1.77c0-.274.064-.467.193-.58a.712.712 0 01.498-.176.71.71 0 01.487.175c.136.114.205.307.205.58 0 .27-.069.467-.205.592a.696.696 0 01-.487.182.698.698 0 01-.498-.182c-.129-.125-.193-.322-.193-.591z" fill="currentColor"/></svg><svg fill="none" viewBox="0 0 30 30" id="sprite--settings" xmlns="http://www.w3.org/2000/svg"><g clip-path="url(#atclip0_648_28349)" stroke="currentColor" stroke-width="2" stroke-linecap="round" stroke-linejoin="round"><path d="M13.182 3.048a2.446 2.446 0 003.635 0L18 1.75a2.448 2.448 0 014.262 1.767l-.088 1.75a2.449 2.449 0 002.564 2.567l1.75-.089a2.449 2.449 0 011.762 4.263l-1.302 1.175a2.45 2.45 0 000 3.636l1.302 1.175a2.45 2.45 0 01-1.766 4.263l-1.75-.09a2.45 2.45 0 00-2.57 2.57l.088 1.75A2.45 2.45 0 0118 28.25l-1.176-1.3a2.45 2.45 0 00-3.635 0l-1.181 1.3a2.45 2.45 0 01-4.258-1.76l.09-1.75a2.447 2.447 0 00-2.57-2.57l-1.75.09A2.447 2.447 0 011.75 18l1.301-1.175a2.45 2.45 0 000-3.636L1.75 12.008A2.447 2.447 0 013.511 7.75l1.75.09a2.448 2.448 0 002.573-2.576L7.75 3.513a2.449 2.449 0 014.258-1.763l1.175 1.298z"/><path d="M9.375 15.001a5.625 5.625 0 1011.25 0 5.625 5.625 0 00-11.25 0z"/></g><defs><clipPath id="atclip0_648_28349"><path fill="currentColor" d="M0 0h30v30H0z"/></clipPath></defs></svg><svg viewBox="0 0 24 24" fill="none" id="sprite--share" xmlns="http://www.w3.org/2000/svg"><path d="M9 13.5l6 3m0-9l-6 3M18 21a3 3 0 110-6 3 3 0 010 6zM6 15a3 3 0 110-6 3 3 0 010 6zm12-6a3 3 0 110-6 3 3 0 010 6z" stroke="currentColor" stroke-width="2" stroke-linecap="round" stroke-linejoin="round"/></svg><svg viewBox="0 0 30 20" fill="none" id="sprite--sort" xmlns="http://www.w3.org/2000/svg"><path fill-rule="evenodd" clip-rule="evenodd" d="M0 2a2 2 0 012-2h26a2 2 0 110 4H2a2 2 0 01-2-2zm3 8a2 2 0 012-2h20a2 2 0 110 4H5a2 2 0 01-2-2zm5 6a2 2 0 100 4h14a2 2 0 100-4H8z" fill="currentColor"/></svg><svg fill="none" viewBox="0 0 26 27" id="sprite--telegram" xmlns="http://www.w3.org/2000/svg"><path d="M24.489 3.459c-.098-.252-.196-.315-.327-.347-.36-.126-.916.063-.916.063S2.608 10.293 1.431 11.08c-.262.158-.327.284-.393.378-.196.567.425.82.425.82l5.332 1.668s.196.032.261 0c1.21-.724 12.167-7.4 12.789-7.621.098-.032.163 0 .163.063-.261.85-9.78 9.007-9.78 9.007s-.032.032-.064.095l-.491 5.07s-.196 1.544 1.406 0c1.145-1.102 2.257-2.015 2.78-2.456 1.832 1.228 3.794 2.551 4.645 3.275.425.347.785.41 1.079.41.818-.032 1.047-.882 1.047-.882s3.76-14.582 3.892-16.535c0-.189.032-.315.032-.441 0-.22-.032-.378-.065-.472z" fill="#fff"/></svg><svg fill="none" viewBox="0 0 24 24" id="sprite--trash" xmlns="http://www.w3.org/2000/svg"><path d="M19 4h-3.5l-1-1h-5l-1 1H5v2h14M6 19a2 2 0 002 2h8a2 2 0 002-2V7H6v12z" fill="currentColor"/></svg><svg fill="none" viewBox="0 0 22 23" id="sprite--user" xmlns="http://www.w3.org/2000/svg"><circle cx="11" cy="7.5" r="4.25" stroke="currentColor" stroke-width="1.5"/><path d="M2 20.5v0a7.257 7.257 0 016.897-5h4.557a6.772 6.772 0 016.437 4.666L20 20.5" stroke="currentColor" stroke-width="1.5" stroke-linecap="round"/></svg><svg fill="none" viewBox="0 0 30 30" id="sprite--w-settings" xmlns="http://www.w3.org/2000/svg"><g clip-path="url(#azclip0_648_28371)"><path fill-rule="evenodd" clip-rule="evenodd" d="M18.998 2.464A13.26 13.26 0 002.436 18.903a13.26 13.26 0 003.718 5.987l-.618.668.618-.668a13.258 13.258 0 006.26 3.236.947.947 0 11-.393 1.853A15.153 15.153 0 01.62 19.44l.908-.268-.908.268a15.153 15.153 0 01-.143-8.053l.916.236-.916-.236A15.153 15.153 0 0119.548.651l-.255.842.255-.842a15.153 15.153 0 0110.455 11.481.947.947 0 01-1.857.378 13.26 13.26 0 00-3.189-6.284l.7-.638-.7.638a13.26 13.26 0 00-5.959-3.762z" fill="currentColor"/><path d="M6.344 26.275l1.263-6.377H8.97a1.87 1.87 0 001.49-.732 1.82 1.82 0 00.34-1.617l-.946-3.788a1.881 1.881 0 00-1.831-1.44h-6.73m25.256-5.682h-5.153a1.881 1.881 0 00-1.83 1.44l-.354 1.388" stroke="currentColor" stroke-width="2" stroke-linecap="round" stroke-linejoin="round"/><path fill-rule="evenodd" clip-rule="evenodd" d="M19.737 18.815a2.841 2.841 0 114.018 4.018 2.841 2.841 0 01-4.018-4.018zm2.009 1.062a.947.947 0 100 1.894.947.947 0 000-1.894z" fill="currentColor"/><path d="M23.349 13.5l.606 1.83a1.263 1.263 0 001.478.859l1.856-.43a1.692 1.692 0 011.616 2.804l-1.263 1.402a1.263 1.263 0 000 1.717l1.263 1.402a1.692 1.692 0 01-1.616 2.803l-1.857-.43a1.263 1.263 0 00-1.477.86l-.568 1.83a1.667 1.667 0 01-3.208 0l-.568-1.83a1.262 1.262 0 00-1.477-.86l-1.857.43a1.693 1.693 0 01-1.616-2.803l1.263-1.402a1.263 1.263 0 000-1.717l-1.263-1.402a1.692 1.692 0 011.616-2.803l1.857.429a1.263 1.263 0 001.477-.859l.556-1.83a1.668 1.668 0 013.182 0z" stroke="currentColor" stroke-width="2" stroke-linecap="round" stroke-linejoin="round"/></g><defs><clipPath id="azclip0_648_28371"><path fill="currentColor" d="M0 0h30v30H0z"/></clipPath></defs></svg><svg fill="none" viewBox="0 0 26 27" id="sprite--whatsapp" xmlns="http://www.w3.org/2000/svg"><path fill-rule="evenodd" clip-rule="evenodd" d="M22.22 3.972C19.773 1.534 16.538.21 13.06.18 5.926.18.12 5.958.12 13.06c0 2.257.606 4.484 1.724 6.44L0 26.18l6.863-1.805a13.064 13.064 0 006.197 1.564c7.135 0 12.94-5.777 12.94-12.88 0-3.43-1.36-6.65-3.78-9.087zm-9.16 19.8c-1.934 0-3.84-.51-5.472-1.504l-.393-.24-4.081 1.053 1.088-3.942-.272-.392a10.548 10.548 0 01-1.632-5.687c0-5.898 4.837-10.713 10.762-10.713 2.873 0 5.563 1.113 7.62 3.13a10.651 10.651 0 013.143 7.583c0 5.928-4.837 10.713-10.763 10.713zm5.896-8.004c-.333-.15-1.905-.933-2.207-1.053-.302-.12-.514-.15-.726.15-.211.331-.846 1.054-1.028 1.264-.181.21-.362.241-.695.09-.333-.15-1.36-.511-2.6-1.594-.967-.843-1.602-1.896-1.814-2.227-.181-.331-.03-.482.151-.662.151-.15.333-.361.484-.572.151-.18.212-.331.332-.542.121-.21.06-.39-.03-.572-.09-.15-.725-1.745-.997-2.377-.273-.632-.545-.541-.726-.541h-.635c-.212 0-.574.09-.877.39-.302.332-1.118 1.114-1.118 2.679 0 1.595 1.149 3.13 1.33 3.34.151.21 2.267 3.46 5.533 4.875.786.331 1.36.542 1.844.692a4.346 4.346 0 002.025.12c.635-.09 1.905-.782 2.177-1.534s.272-1.384.181-1.535c-.06-.15-.272-.24-.604-.39z" fill="#fff"/></svg><svg fill="none" viewBox="0 0 26 27" id="sprite--youtube" xmlns="http://www.w3.org/2000/svg"><path d="M25.031 8.374c-.272-1.06-1.116-1.877-2.177-2.177-1.905-.517-9.58-.517-9.58-.517s-7.647 0-9.58.517c-1.061.272-1.878 1.116-2.177 2.177C1 10.28 1 14.28 1 14.28s0 3.974.517 5.906c.272 1.061 1.116 1.878 2.177 2.177 1.905.517 9.58.517 9.58.517s7.648 0 9.58-.517c1.061-.272 1.878-1.116 2.177-2.177.517-1.905.517-5.906.517-5.906s0-4-.517-5.906zm-14.18 9.553v-7.348l6.37 3.674-6.37 3.674z" fill="#fff"/></svg></svg>